SplineFontDB: 3.0
FontName: tengtelc
FullName: Tengwar Telcontar
FamilyName: Tengwar Telcontar
Weight: Regular
Copyright: Copyright (c) 2005-2009 by Johan Winge
UComments: "2009-11-15: Created." 
Version: 0.08
ItalicAngle: 0
UnderlinePosition: -204.8
UnderlineWidth: 102.4
Ascent: 1638
Descent: 410
LayerCount: 2
Layer: 0 0 "Back"  1
Layer: 1 0 "Fore"  0
NeedsXUIDChange: 1
XUID: [1021 410 507953941 5996597]
OS2Version: 0
OS2_WeightWidthSlopeOnly: 0
OS2_UseTypoMetrics: 1
CreationTime: 1258317357
ModificationTime: 1258317722
OS2TypoAscent: 0
OS2TypoAOffset: 1
OS2TypoDescent: 0
OS2TypoDOffset: 1
OS2TypoLinegap: 0
OS2WinAscent: 0
OS2WinAOffset: 1
OS2WinDescent: 0
OS2WinDOffset: 1
HheadAscent: 0
HheadAOffset: 1
HheadDescent: 0
HheadDOffset: 1
OS2Vendor: 'PfEd'
DEI: 91125
LangName: 1033 "" "" "" "FontForge: Tengwar Telcontar 0.08" "" "" "" "" "" "Johan Winge" "" "http://home.student.uu.se/jowi4905/fonts/tengtelc/" "http://home.student.uu.se/jowi4905/fonts/tengtelc/" "Tengwar Telcontar is distributed under the terms of the GNU General Public License." 
Encoding: UnicodeBmp
Compacted: 1
UnicodeInterp: none
NameList: Adobe Glyph List
DisplaySize: 2000
AntiAlias: 1
FitToEm: 1
BeginChars: 65850 566

StartChar: numbersign
Encoding: 35 35 0
Width: 1482
VWidth: 0
Flags: HW
LayerCount: 2
Fore
SplineSet
714 1215 m 0
 724 1215 727 1211 727 1210 c 0
 727 1206 712 1120 694 1017 c 0
 676 913 660 826 660 825 c 0
 660 824 690 824 803 824 c 2
 946 824 l 1
 1007 1097 948 1109 1119 1192 c 0
 1150 1207 1176 1215 1190 1215 c 0
 1198 1215 1202 1213 1202 1208 c 0
 1202 1206 1187 1120 1169 1016 c 0
 1151 912 1135 826 1135 825 c 0
 1135 824 1173 824 1318 824 c 0
 1520 824 1503 824 1503 815 c 0
 1503 786 1406 695 1341 668 c 0
 1336 666 1324 666 1221 665 c 2
 1107 664 l 1
 1039 281 l 1
 1220 281 l 2
 1328 281 1401 281 1403 280 c 0
 1423 272 1351 169 1240 123 c 1
 1011 122 l 1
 952 -173 990 -155 890 -218 c 0
 842 -249 791 -269 768 -269 c 0
 758 -269 756 -264 756 -263 c 0
 756 -259 770 -174 788 -71 c 0
 806 33 822 120 822 121 c 0
 822 122 792 122 679 122 c 2
 536 122 l 1
 475 -151 534 -163 363 -246 c 0
 332 -261 307 -269 293 -269 c 0
 285 -269 280 -267 280 -262 c 0
 280 -260 296 -173 314 -69 c 0
 332 35 347 120 347 121 c 0
 347 122 309 123 164 123 c 0
 -38 123 -20 122 -20 131 c 0
 -20 160 76 251 141 278 c 0
 146 280 158 280 261 281 c 2
 376 282 l 1
 443 665 l 1
 263 665 l 2
 155 665 81 665 79 666 c 0
 59 674 132 777 243 823 c 1
 471 824 l 1
 525 1094 507 1092 537 1122 c 0
 582 1167 678 1215 714 1215 c 0
775 665 m 0
 662 665 632 664 632 663 c 0
 631 661 564 284 564 282 c 0
 564 282 605 281 660 281 c 0
 675 281 691 281 708 281 c 2
 851 282 l 1
 884 472 l 2
 902 577 918 663 918 664 c 0
 918 665 888 665 775 665 c 0
EndSplineSet
EndChar

StartChar: dollar
Encoding: 36 36 1
Width: 1260
VWidth: 0
Flags: HW
LayerCount: 2
Fore
SplineSet
500 -31 m 0
 167 -31 55 244 55 249 c 0
 55 286 235 415 253 376 c 0
 269 342 348 186 553 128 c 1
 553 643 l 1
 512 653 l 2
 268 710 150 788 150 959 c 0
 150 1205 487 1346 553 1370 c 1
 554 1521 l 1
 589 1594 685 1678 720 1678 c 0
 726 1678 726 1671 726 1587 c 2
 726 1538 l 1
 726 1405 l 1
 735 1406 735 1407 772 1407 c 0
 1054 1407 1161 1207 1161 1207 c 0
 1169 1176 992 1047 966 1074 c 0
 935 1106 893 1192 726 1247 c 1
 726 1019 l 2
 726 994 726 970 726 947 c 0
 726 856 727 789 727 789 c 0
 740 778 1038 748 1145 625 c 0
 1185 579 1204 524 1204 455 c 0
 1204 182 834 30 726 -1 c 1
 725 -145 l 1
 687 -222 592 -302 559 -302 c 0
 553 -302 553 -293 553 -217 c 0
 553 -202 553 -184 553 -163 c 2
 553 -30 l 1
 505 -31 l 2
 503 -31 502 -31 500 -31 c 0
553 837 m 1
 553 1262 l 1
 521 1261 402 1241 384 1214 c 0
 360 1179 347 1135 347 1088 c 0
 347 937 457 873 553 837 c 1
727 602 m 0
 726 602 726 517 726 358 c 2
 726 114 l 1
 845 123 944 157 955 170 c 0
 975 193 1007 249 1007 328 c 0
 1007 488 890 553 756 594 c 0
 741 599 728 602 727 602 c 0
EndSplineSet
EndChar

StartChar: percent
Encoding: 37 37 2
Width: 1418
VWidth: 0
Flags: HW
LayerCount: 2
Fore
SplineSet
744 207 m 0
 744 418 1015 577 1140 577 c 0
 1274 577 1363 460 1363 334 c 0
 1363 122 1090 -36 966 -36 c 0
 833 -36 744 81 744 207 c 0
962 434 m 1
 951 405 941 379 941 335 c 0
 941 245 995 116 1145 107 c 1
 1156 136 1166 162 1166 206 c 0
 1166 291 1116 424 962 434 c 1
674 1144 m 0
 674 932 401 775 277 775 c 0
 78 775 -53 1052 175 1253 c 0
 471 1514 674 1341 674 1144 c 0
273 1244 m 1
 262 1215 252 1188 252 1145 c 0
 252 1076 291 928 456 918 c 1
 467 947 477 974 477 1017 c 0
 477 1099 428 1234 273 1244 c 1
62 -56 m 0
 49 -56 45 -51 45 -48 c 0
 45 -38 1170 1325 1175 1329 c 0
 1213 1361 1311 1407 1356 1407 c 0
 1367 1407 1373 1404 1373 1399 c 0
 1373 1389 249 27 249 27 c 0
 209 -11 103 -56 62 -56 c 0
EndSplineSet
EndChar

StartChar: ampersand
Encoding: 38 38 3
Width: 1661
VWidth: 0
Flags: HW
LayerCount: 2
Fore
SplineSet
77 344 m 0
 77 672 413 846 521 890 c 1
 417 974 394 1159 576 1310 c 0
 612 1340 736 1438 858 1438 c 0
 998 1438 1104 1363 1104 1216 c 0
 1104 1084 1011 977 851 887 c 1
 1015 783 1098 501 1120 477 c 0
 1121 475 1162 525 1337 745 c 0
 1429 861 1481 935 1583 981 c 0
 1605 991 1623 995 1629 991 c 0
 1637 985 1625 968 1599 937 c 2
 1458 761 l 1
 1324 593 1264 520 1195 444 c 2
 1155 400 l 1
 1167 376 l 2
 1209 294 1319 92 1491 113 c 0
 1558 121 1617 211 1668 211 c 0
 1675 211 1677 209 1677 202 c 0
 1677 165 1469 -31 1300 -31 c 0
 1123 -31 1035 122 977 230 c 1
 948 207 l 2
 832 114 625 -31 409 -31 c 0
 232 -31 77 124 77 344 c 0
907 1092 m 0
 907 1169 861 1295 676 1295 c 0
 662 1295 663 1293 659 1285 c 0
 646 1257 639 1221 639 1188 c 0
 639 1059 740 984 861 984 c 0
 881 984 882 984 886 991 c 0
 899 1016 907 1058 907 1092 c 0
274 469 m 0
 274 280 409 112 589 112 c 0
 739 112 834 184 886 229 c 0
 902 243 948 286 948 287 c 0
 948 287 847 523 780 624 c 0
 707 733 630 783 529 783 c 0
 466 783 395 766 375 745 c 0
 317 685 274 581 274 469 c 0
EndSplineSet
EndChar

StartChar: asterisk
Encoding: 42 42 4
Width: 1418
VWidth: 0
Flags: HW
LayerCount: 2
Fore
SplineSet
989 1378 m 0
 1030 1378 1015 1368 926 1214 c 2
 842 1070 l 1
 1015 1070 l 2
 1203 1069 1192 1070 1192 1062 c 0
 1192 1037 1106 966 1041 937 c 0
 1018 926 1025 927 937 926 c 2
 858 926 l 1
 938 788 l 2
 1022 643 1029 642 1007 636 c 0
 998 633 985 632 970 632 c 0
 903 632 809 655 789 676 c 0
 782 683 703 823 702 824 c 0
 701 825 684 796 664 761 c 0
 619 683 622 684 573 660 c 0
 521 635 459 618 427 618 c 0
 389 618 404 628 493 782 c 2
 576 926 l 1
 403 926 l 2
 215 927 227 926 227 934 c 0
 227 959 312 1029 376 1058 c 0
 401 1069 393 1069 481 1070 c 2
 560 1070 l 1
 480 1208 l 2
 396 1353 390 1354 412 1360 c 0
 421 1363 433 1364 448 1364 c 0
 515 1364 608 1340 629 1320 c 0
 635 1314 715 1173 716 1172 c 0
 720 1168 779 1296 814 1319 c 0
 847 1341 937 1378 989 1378 c 0
EndSplineSet
EndChar

StartChar: equal
Encoding: 61 61 5
Width: 1370
VWidth: 0
Flags: HW
LayerCount: 2
Fore
SplineSet
415 202 m 0
 10 202 10 198 10 210 c 0
 10 240 115 338 174 358 c 0
 181 360 204 360 767 360 c 2
 815 360 l 2
 1115 360 1354 360 1355 360 c 0
 1358 359 1359 357 1359 353 c 0
 1359 316 1241 216 1192 203 c 0
 1189 202 755 202 415 202 c 0
415 534 m 0
 10 534 10 531 10 543 c 0
 10 573 115 671 174 691 c 0
 181 693 204 693 767 693 c 2
 815 693 l 2
 1115 693 1354 692 1355 692 c 0
 1358 691 1359 689 1359 685 c 0
 1359 648 1241 549 1192 536 c 0
 1189 535 755 534 415 534 c 0
EndSplineSet
EndChar

StartChar: figuredash
Encoding: 8210 8210 6
Width: 1370
VWidth: 0
Flags: HW
LayerCount: 2
Fore
SplineSet
415 368 m 0
 10 368 10 364 10 376 c 0
 10 406 115 504 174 524 c 0
 181 526 204 527 767 527 c 2
 815 527 l 2
 1115 527 1354 526 1355 526 c 0
 1358 525 1359 523 1359 519 c 0
 1359 482 1241 383 1192 370 c 0
 1189 369 755 368 415 368 c 0
EndSplineSet
EndChar

StartChar: plus
Encoding: 43 43 7
Width: 1370
VWidth: 0
Flags: HW
LayerCount: 2
Fore
SplineSet
591 963 m 1
 623 1030 736 1109 768 1109 c 0
 772 1109 774 1107 777 1105 c 1
 777 527 l 1
 1065 527 l 2
 1360 527 1359 531 1359 519 c 0
 1359 482 1241 383 1192 370 c 0
 1188 369 1126 368 982 368 c 2
 777 368 l 1
 777 -68 l 1
 745 -134 633 -214 600 -214 c 0
 596 -214 594 -212 591 -210 c 1
 591 368 l 1
 304 368 l 2
 10 368 10 364 10 376 c 0
 10 413 128 512 177 525 c 0
 181 526 243 527 387 527 c 2
 591 527 l 1
 591 963 l 1
EndSplineSet
EndChar

StartChar: slash
Encoding: 47 47 8
Width: 1101
VWidth: 0
Flags: HW
LayerCount: 2
Fore
SplineSet
1038 1727 m 0
 1045 1727 1052 1726 1051 1719 c 0
 1051 1715 262 -296 255 -310 c 0
 237 -347 110 -423 63 -423 c 0
 57 -423 49 -421 50 -414 c 0
 50 -410 839 1600 846 1614 c 0
 864 1652 992 1727 1038 1727 c 0
EndSplineSet
EndChar

StartChar: zero
Encoding: 48 48 9
Width: 1152
VWidth: 0
Flags: HW
LayerCount: 2
Fore
SplineSet
81 387 m 0
 81 700 450 926 656 926 c 0
 924 926 1071 717 1071 508 c 0
 1071 205 719 -31 488 -31 c 0
 266 -31 81 145 81 387 c 0
874 385 m 0
 874 574 733 783 476 783 c 0
 465 783 381 777 360 752 c 0
 307 689 278 600 278 510 c 0
 278 299 444 113 666 113 c 0
 721 113 776 124 792 143 c 0
 845 206 874 295 874 385 c 0
EndSplineSet
EndChar

StartChar: one
Encoding: 49 49 10
Width: 835
VWidth: 0
Flags: HW
LayerCount: 2
Fore
SplineSet
81 7 m 0
 81 26 188 143 290 143 c 2
 319 143 l 1
 319 422 l 2
 319 680 319 700 317 700 c 0
 315 700 210 611 155 602 c 0
 153 602 150 602 148 602 c 0
 141 602 138 604 138 609 c 0
 138 646 238 689 313 790 c 2
 329 812 l 2
 366 861 473 926 504 926 c 0
 511 926 513 924 516 922 c 1
 516 143 l 1
 632 143 l 2
 643 143 654 143 663 143 c 0
 759 143 754 142 754 135 c 0
 754 110 662 30 578 0 c 1
 332 -0 l 2
 272 -0 227 0 192 -0 c 0
 69 0 81 0 81 7 c 0
EndSplineSet
EndChar

StartChar: two
Encoding: 50 50 11
Width: 1152
VWidth: 0
Flags: HW
LayerCount: 2
Fore
SplineSet
138 645 m 0
 138 690 395 926 664 926 c 0
 788 926 918 865 918 730 c 0
 918 486 697 293 458 159 c 2
 429 143 l 1
 748 143 l 2
 1071 143 1071 145 1071 136 c 0
 1071 111 982 32 897 0 c 1
 492 -0 l 2
 401 -0 330 0 275 -0 c 0
 89 0 81 -3 81 6 c 0
 81 26 150 102 264 145 c 0
 596 269 641 351 680 430 c 0
 707 486 720 541 720 603 c 0
 720 727 596 783 496 783 c 0
 284 783 212 637 147 637 c 0
 141 637 138 640 138 645 c 0
EndSplineSet
EndChar

StartChar: three
Encoding: 51 51 12
Width: 1152
VWidth: 0
Flags: HW
LayerCount: 2
Fore
SplineSet
138 645 m 0
 138 688 390 926 665 926 c 0
 786 926 917 870 917 728 c 0
 917 646 893 487 683 310 c 1
 643 278 l 1
 945 268 1071 62 1071 -116 c 0
 1071 -536 615 -831 307 -831 c 0
 186 -831 81 -792 81 -782 c 0
 81 -752 228 -628 280 -649 c 0
 329 -668 402 -687 483 -687 c 0
 697 -687 754 -589 759 -583 c 0
 807 -524 873 -413 873 -243 c 0
 873 -21 682 134 475 134 c 0
 365 134 307 87 311 116 c 0
 313 133 374 206 492 252 c 0
 560 279 596 302 640 363 c 0
 692 434 720 518 720 604 c 0
 720 727 596 783 496 783 c 0
 284 783 213 637 147 637 c 0
 141 637 138 640 138 645 c 0
EndSplineSet
EndChar

StartChar: four
Encoding: 52 52 13
Width: 1311
VWidth: 0
Flags: HW
LayerCount: 2
Fore
SplineSet
406 -0 m 2
 92 0 81 -6 81 7 c 0
 81 10 82 14 85 19 c 0
 91 30 740 818 755 832 c 0
 807 883 886 926 911 926 c 0
 918 926 920 924 923 922 c 1
 923 143 l 1
 1074 143 l 2
 1091 143 1106 143 1120 143 c 0
 1238 143 1230 142 1230 135 c 0
 1230 110 1145 40 1081 11 c 0
 1056 0 1062 0 988 -0 c 2
 923 -1 l 1
 923 -586 l 1
 895 -641 773 -717 736 -717 c 0
 731 -717 730 -715 726 -713 c 1
 726 -0 l 1
 406 -0 l 2
726 254 m 0
 726 297 725 350 725 407 c 2
 725 669 l 1
 292 144 l 1
 508 143 l 2
 555 143 599 143 634 143 c 0
 689 143 725 143 725 143 c 0
 725 143 726 187 726 254 c 0
EndSplineSet
EndChar

StartChar: five
Encoding: 53 53 14
Width: 1072
VWidth: 0
Flags: HW
LayerCount: 2
Fore
SplineSet
706 895 m 2
 985 895 992 900 992 888 c 0
 992 863 900 783 816 753 c 1
 278 752 l 1
 278 358 l 1
 345 388 401 409 484 409 c 0
 661 409 864 279 864 31 c 0
 864 -495 140 -789 92 -789 c 0
 85 -789 81 -786 81 -781 c 0
 81 -769 125 -698 271 -640 c 0
 380 -597 450 -552 510 -486 c 0
 596 -392 666 -261 666 -90 c 0
 666 120 492 265 306 265 c 0
 165 265 120 174 81 200 c 1
 81 764 l 1
 101 804 186 873 260 895 c 1
 623 895 l 1
 706 895 l 2
EndSplineSet
EndChar

StartChar: six
Encoding: 54 54 15
Width: 1231
VWidth: 0
Flags: HW
LayerCount: 2
Fore
SplineSet
488 -31 m 0
 245 -31 81 185 81 462 c 0
 81 925 389 1373 833 1619 c 0
 852 1630 914 1663 934 1663 c 0
 941 1663 946 1662 946 1656 c 0
 946 1607 756 1508 735 1494 c 0
 516 1348 279 981 279 591 c 0
 279 329 433 112 664 112 c 0
 711 112 822 126 856 164 c 0
 927 241 953 343 953 429 c 0
 953 637 763 783 574 783 c 0
 438 783 391 695 331 695 c 0
 257 695 542 926 748 926 c 0
 957 926 1151 777 1151 553 c 0
 1151 230 757 -31 488 -31 c 0
EndSplineSet
EndChar

StartChar: seven
Encoding: 55 55 16
Width: 1231
VWidth: 0
Flags: HW
LayerCount: 2
Fore
SplineSet
804 895 m 2
 1150 895 1151 898 1151 888 c 0
 1151 883 450 -662 444 -671 c 0
 414 -715 304 -789 266 -789 c 0
 258 -789 254 -785 255 -780 c 0
 255 -778 412 -432 602 -12 c 2
 948 752 l 1
 516 752 l 2
 80 753 81 750 81 760 c 0
 81 783 172 869 260 895 c 1
 703 895 l 1
 804 895 l 2
EndSplineSet
EndChar

StartChar: eight
Encoding: 56 56 17
Width: 1231
VWidth: 0
Flags: HW
LayerCount: 2
Fore
SplineSet
525 -31 m 0
 278 -31 81 152 81 383 c 0
 81 455 86 620 436 829 c 0
 468 848 475 848 460 856 c 0
 258 970 184 1075 184 1221 c 0
 184 1258 180 1384 364 1526 c 0
 512 1641 630 1663 696 1663 c 0
 909 1663 1048 1520 1048 1347 c 0
 1048 1191 948 1076 778 957 c 2
 754 941 l 1
 777 929 l 2
 1003 811 1151 714 1151 505 c 0
 1151 232 806 -31 525 -31 c 0
851 1218 m 0
 851 1378 715 1520 523 1520 c 0
 481 1520 461 1514 432 1506 c 1
 404 1471 380 1417 380 1345 c 0
 380 1126 611 1018 696 971 c 1
 708 978 851 1036 851 1218 c 0
279 507 m 0
 279 282 483 112 703 112 c 0
 771 112 851 131 872 155 c 0
 914 203 953 284 953 383 c 0
 953 596 764 695 582 790 c 0
 523 821 545 822 483 789 c 0
 389 740 279 693 279 507 c 0
EndSplineSet
EndChar

StartChar: nine
Encoding: 57 57 18
Width: 1231
VWidth: 0
Flags: HW
LayerCount: 2
Fore
SplineSet
81 342 m 0
 81 673 488 926 736 926 c 0
 1019 926 1150 674 1150 431 c 0
 1150 -22 820 -481 346 -700 c 0
 322 -711 306 -717 296 -717 c 0
 289 -717 286 -715 286 -710 c 0
 286 -655 501 -552 523 -538 c 0
 712 -415 953 -81 953 309 c 0
 953 559 799 783 568 783 c 0
 521 783 410 769 376 731 c 0
 305 654 278 552 278 466 c 0
 278 258 468 112 657 112 c 0
 793 112 840 200 900 200 c 0
 974 200 690 -31 484 -31 c 0
 275 -31 81 118 81 342 c 0
EndSplineSet
EndChar

StartChar: at
Encoding: 64 64 19
Width: 1803
VWidth: 0
Flags: HW
LayerCount: 2
Fore
SplineSet
164 1013 m 0
 164 1068 555 1409 972 1409 c 0
 1398 1409 1641 1033 1641 659 c 0
 1641 351 1489 207 1424 146 c 0
 1230 -34 1121 -29 1020 68 c 0
 997 90 976 115 953 151 c 1
 863 72 692 -31 518 -31 c 0
 365 -31 251 77 295 230 c 0
 348 414 641 552 692 610 c 0
 702 622 712 634 712 637 c 0
 712 640 651 737 579 737 c 0
 556 737 529 720 529 737 c 0
 529 761 644 895 746 895 c 0
 989 895 1060 158 1331 158 c 0
 1361 158 1362 166 1374 185 c 0
 1444 296 1455 437 1455 521 c 0
 1455 922 1176 1251 815 1251 c 0
 412 1251 240 1005 173 1005 c 0
 168 1005 164 1008 164 1013 c 0
747 579 m 1
 579 450 483 436 483 289 c 0
 483 183 580 112 698 112 c 0
 863 112 889 178 916 219 c 1
 787 499 l 2
 756 563 751 571 747 579 c 1
EndSplineSet
EndChar

StartChar: B
Encoding: 66 66 20
Width: 1311
VWidth: 0
Flags: HW
LayerCount: 2
Fore
SplineSet
81 1532 m 1
 102 1578 197 1645 260 1664 c 1
 339 1663 l 2
 729 1660 1086 1613 1086 1308 c 0
 1086 1158 1000 1051 793 934 c 1
 1060 887 1229 778 1229 543 c 0
 1229 474 1215 410 1171 345 c 0
 1106 248 959 141 817 87 c 0
 693 39 512 -1 138 -1 c 0
 98 -1 87 -1 81 3 c 1
 81 1532 l 1
278 1518 m 1
 278 967 l 1
 342 968 l 2
 572 971 711 987 816 1022 c 0
 818 1023 889 1025 889 1180 c 0
 889 1519 386 1508 278 1518 c 1
283 821 m 2
 278 821 l 1
 278 142 l 1
 348 143 l 2
 569 146 803 160 955 223 c 0
 1009 245 1032 347 1032 417 c 0
 1032 739 678 804 317 820 c 0
 300 821 286 821 283 821 c 2
EndSplineSet
EndChar

StartChar: C
Encoding: 67 67 21
Width: 1311
VWidth: 0
Flags: HW
LayerCount: 2
Fore
SplineSet
81 771 m 0
 81 1398 592 1663 822 1663 c 0
 1135 1663 1230 1423 1230 1423 c 0
 1230 1384 1064 1273 1037 1288 c 0
 1033 1290 925 1520 660 1520 c 0
 497 1520 461 1456 437 1424 c 0
 336 1291 278 1099 278 886 c 0
 278 574 385 113 742 113 c 0
 829 113 901 135 923 158 c 0
 1036 274 1026 436 1038 456 c 0
 1062 496 1178 577 1219 577 c 0
 1228 577 1236 578 1224 503 c 0
 1177 212 833 -31 568 -31 c 0
 276 -31 81 272 81 771 c 0
EndSplineSet
EndChar

StartChar: D
Encoding: 68 68 22
Width: 1311
VWidth: 0
Flags: HW
LayerCount: 2
Fore
SplineSet
286 1663 m 2
 719 1663 1230 1494 1230 815 c 0
 1230 692 1205 562 1123 437 c 0
 1034 302 852 165 666 92 c 0
 562 51 383 0 101 -0 c 0
 85 0 86 0 81 3 c 1
 81 1532 l 1
 98 1565 200 1663 284 1663 c 2
 286 1663 l 2
278 1510 m 1
 278 143 l 1
 292 143 l 2
 566 143 816 207 890 281 c 0
 935 325 1032 446 1032 693 c 0
 1032 1180 754 1444 314 1505 c 2
 278 1510 l 1
EndSplineSet
EndChar

StartChar: E
Encoding: 69 69 23
Width: 1152
VWidth: 0
Flags: HW
LayerCount: 2
Fore
SplineSet
280 -0 m 0
 89 0 87 -1 81 3 c 1
 81 1532 l 1
 101 1572 186 1641 260 1663 c 1
 623 1663 l 1
 707 1663 l 2
 957 1663 987 1664 989 1662 c 0
 1010 1648 912 1555 816 1521 c 1
 278 1520 l 1
 278 967 l 1
 513 967 l 1
 598 967 l 2
 768 967 754 966 754 959 c 0
 754 934 669 864 603 834 c 0
 581 824 589 824 480 824 c 0
 464 824 446 824 425 824 c 2
 278 824 l 1
 278 143 l 1
 672 143 l 2
 1072 143 1071 146 1071 135 c 0
 1071 110 979 30 895 0 c 1
 491 -0 l 2
 403 -0 334 0 280 -0 c 0
EndSplineSet
EndChar

StartChar: G
Encoding: 71 71 24
Width: 1311
VWidth: 0
Flags: HW
LayerCount: 2
Fore
SplineSet
530 -31 m 0
 168 -31 81 426 81 755 c 0
 81 1462 616 1663 796 1663 c 0
 1095 1663 1179 1423 1179 1423 c 0
 1179 1383 1008 1271 985 1289 c 0
 983 1291 887 1519 633 1519 c 0
 487 1519 463 1474 438 1441 c 0
 402 1394 278 1219 278 885 c 0
 278 595 351 113 707 113 c 0
 802 113 882 138 908 166 c 0
 997 260 1033 387 1033 493 c 0
 1033 597 1003 671 959 752 c 1
 829 752 l 2
 810 752 795 752 781 752 c 0
 703 752 693 753 693 758 c 0
 693 792 811 878 866 893 c 0
 875 895 879 896 1011 896 c 0
 1169 896 1146 909 1176 848 c 0
 1217 766 1230 687 1230 618 c 0
 1230 246 816 -31 530 -31 c 0
EndSplineSet
EndChar

StartChar: H
Encoding: 72 72 25
Width: 1152
VWidth: 0
Flags: HW
LayerCount: 2
Fore
SplineSet
81 1532 m 1
 110 1589 233 1663 266 1663 c 0
 273 1663 275 1662 278 1660 c 1
 278 967 l 1
 874 967 l 1
 874 1532 l 1
 902 1587 1024 1663 1061 1663 c 0
 1066 1663 1067 1662 1071 1660 c 1
 1071 131 l 1
 1043 76 922 0 885 -0 c 0
 880 0 878 1 874 3 c 1
 874 824 l 1
 278 824 l 1
 278 131 l 1
 250 76 128 0 91 -0 c 0
 86 0 85 1 81 3 c 1
 81 1532 l 1
EndSplineSet
EndChar

StartChar: I
Encoding: 73 73 26
Width: 913
VWidth: 0
Flags: HW
LayerCount: 2
Fore
SplineSet
671 1663 m 0
 850 1663 833 1663 833 1656 c 0
 833 1631 748 1560 684 1531 c 0
 659 1520 663 1520 606 1520 c 2
 556 1520 l 1
 556 143 l 1
 692 143 l 2
 707 143 719 143 731 143 c 0
 839 143 833 142 833 135 c 0
 833 110 741 30 657 0 c 1
 372 -0 l 2
 302 -0 249 0 208 -0 c 0
 66 0 81 0 81 7 c 0
 81 32 165 102 231 132 c 0
 254 142 255 143 310 143 c 2
 358 143 l 1
 358 1520 l 1
 222 1520 l 1
 182 1520 l 2
 74 1520 81 1521 81 1528 c 0
 81 1553 178 1638 260 1663 c 1
 544 1663 l 2
 595 1663 636 1663 671 1663 c 0
EndSplineSet
EndChar

StartChar: J
Encoding: 74 74 27
Width: 1231
VWidth: 0
Flags: HW
LayerCount: 2
Fore
SplineSet
956 1663 m 2
 1142 1663 1144 1664 1151 1659 c 1
 1150 1089 l 2
 1150 498 1171 444 1064 283 c 0
 980 156 756 -31 526 -31 c 0
 218 -31 81 240 81 269 c 0
 81 299 211 400 264 404 c 0
 283 406 274 394 313 331 c 0
 396 198 545 113 699 113 c 0
 700 113 818 112 852 150 c 0
 977 291 954 412 954 971 c 2
 954 1520 l 1
 700 1520 l 1
 608 1520 l 2
 426 1520 442 1521 442 1528 c 0
 442 1554 539 1639 621 1663 c 1
 883 1663 l 1
 956 1663 l 2
EndSplineSet
EndChar

StartChar: K
Encoding: 75 75 28
Width: 1231
VWidth: 0
Flags: HW
LayerCount: 2
Fore
SplineSet
81 1532 m 1
 110 1589 233 1663 266 1663 c 0
 273 1663 275 1661 278 1659 c 1
 278 883 l 1
 584 1224 l 2
 791 1454 895 1569 904 1577 c 0
 955 1623 1026 1663 1053 1663 c 0
 1074 1663 1059 1641 1048 1628 c 0
 1002 1574 519 1040 519 1038 c 0
 519 1038 1150 139 1150 135 c 0
 1153 104 1011 0 964 -0 c 0
 954 0 959 -4 656 428 c 0
 492 661 358 853 357 854 c 0
 356 855 347 847 316 813 c 2
 278 770 l 1
 278 131 l 1
 250 76 128 0 91 -0 c 0
 86 0 85 1 81 3 c 1
 81 1532 l 1
EndSplineSet
EndChar

StartChar: L
Encoding: 76 76 29
Width: 1152
VWidth: 0
Flags: HW
LayerCount: 2
Fore
SplineSet
81 1532 m 1
 110 1589 233 1663 266 1663 c 0
 273 1663 275 1662 278 1660 c 1
 278 143 l 1
 672 143 l 2
 1072 143 1071 146 1071 135 c 0
 1071 110 979 30 895 0 c 1
 491 -0 l 2
 403 -0 334 0 280 -0 c 0
 89 0 87 -1 81 3 c 1
 81 1532 l 1
EndSplineSet
EndChar

StartChar: M
Encoding: 77 77 30
Width: 1390
VWidth: 0
Flags: HW
LayerCount: 2
Fore
SplineSet
81 1532 m 1
 110 1589 233 1663 266 1663 c 0
 277 1663 272 1667 506 1351 c 2
 741 1034 l 1
 1109 1531 l 2
 1174 1618 1275 1663 1299 1663 c 0
 1304 1663 1305 1662 1309 1660 c 1
 1309 131 l 1
 1281 76 1160 0 1123 -0 c 0
 1118 0 1116 1 1112 3 c 1
 1112 1381 l 1
 949 1161 l 2
 775 926 767 901 668 847 c 0
 636 829 609 820 600 825 c 0
 599 826 526 923 438 1042 c 2
 278 1258 l 1
 277 129 l 1
 248 75 128 0 91 -0 c 0
 86 0 85 1 81 3 c 1
 81 1532 l 1
EndSplineSet
EndChar

StartChar: N
Encoding: 78 78 31
Width: 1231
VWidth: 0
Flags: HW
LayerCount: 2
Fore
SplineSet
81 1532 m 1
 110 1589 233 1663 266 1663 c 0
 270 1663 274 1663 276 1661 c 0
 278 1659 430 1393 616 1070 c 2
 953 482 l 1
 954 1534 l 1
 983 1588 1103 1663 1140 1663 c 0
 1145 1663 1147 1662 1151 1660 c 1
 1151 131 l 1
 1124 77 1003 0 962 -0 c 0
 955 0 957 0 616 593 c 2
 278 1181 l 1
 277 129 l 1
 248 75 128 0 91 -0 c 0
 86 0 85 1 81 3 c 1
 81 1532 l 1
EndSplineSet
EndChar

StartChar: O
Encoding: 79 79 32
Width: 1470
VWidth: 0
Flags: HW
LayerCount: 2
Fore
SplineSet
646 -31 m 0
 289 -31 81 343 81 748 c 0
 81 1053 184 1275 324 1419 c 0
 426 1523 618 1663 813 1663 c 0
 1223 1663 1388 1234 1388 882 c 0
 1388 244 920 -31 646 -31 c 0
1191 754 m 0
 1191 1095 1026 1520 637 1520 c 0
 612 1520 513 1514 472 1471 c 0
 355 1346 278 1122 278 879 c 0
 278 525 454 112 825 112 c 0
 852 112 956 116 998 161 c 0
 1115 286 1191 511 1191 754 c 0
EndSplineSet
EndChar

StartChar: Q
Encoding: 81 81 33
Width: 1311
VWidth: 0
Flags: HW
LayerCount: 2
Fore
SplineSet
570 -31 m 0
 265 -31 81 283 81 754 c 0
 81 1148 200 1399 445 1561 c 0
 563 1639 662 1663 728 1663 c 0
 1129 1663 1229 1209 1229 879 c 0
 1229 429 1060 244 999 179 c 1
 1100 4 l 2
 1167 -111 1202 -173 1202 -175 c 0
 1203 -208 1061 -310 1016 -310 c 0
 1005 -310 1009 -314 906 -135 c 0
 852 -42 808 35 808 35 c 0
 803 40 718 -31 570 -31 c 0
1033 755 m 0
 1033 1053 937 1520 554 1520 c 0
 449 1520 438 1480 438 1480 c 0
 366 1391 278 1189 278 877 c 0
 278 582 374 112 756 112 c 0
 760 112 763 113 763 113 c 0
 763 113 717 194 660 292 c 0
 596 402 557 472 557 474 c 0
 557 507 697 609 743 609 c 0
 753 609 749 613 849 439 c 0
 901 349 944 276 945 276 c 0
 947 277 1033 459 1033 755 c 0
EndSplineSet
EndChar

StartChar: R
Encoding: 82 82 34
Width: 1311
VWidth: 0
Flags: HW
LayerCount: 2
Fore
SplineSet
81 1532 m 1
 102 1578 197 1645 260 1664 c 1
 339 1663 l 2
 729 1660 1086 1613 1086 1308 c 0
 1086 1172 1014 1071 852 968 c 0
 764 912 711 898 685 887 c 1
 957 513 l 2
 1163 230 1230 138 1230 135 c 0
 1230 102 1089 0 1043 -0 c 0
 1034 0 1038 -4 730 420 c 2
 427 836 l 1
 278 826 l 1
 278 131 l 1
 250 76 128 0 91 -0 c 0
 86 0 85 1 81 3 c 1
 81 1532 l 1
278 1518 m 1
 278 967 l 1
 307 967 l 2
 547 967 708 986 816 1022 c 0
 817 1022 889 1025 889 1180 c 0
 889 1519 386 1508 278 1518 c 1
EndSplineSet
EndChar

StartChar: U
Encoding: 85 85 35
Width: 1231
VWidth: 0
Flags: HW
LayerCount: 2
Fore
SplineSet
81 1532 m 1
 110 1589 233 1663 266 1663 c 0
 273 1663 275 1661 278 1659 c 1
 278 1150 l 2
 278 689 247 471 416 259 c 0
 532 113 670 113 706 113 c 0
 814 113 823 146 831 156 c 0
 916 265 941 404 951 501 c 0
 952 511 953 646 954 1024 c 2
 954 1534 l 1
 983 1588 1103 1663 1140 1663 c 0
 1145 1663 1147 1662 1151 1660 c 1
 1150 1147 l 2
 1150 584 1151 637 1144 582 c 0
 1112 341 989 179 808 63 c 0
 706 -2 618 -31 527 -31 c 0
 231 -31 98 270 82 514 c 0
 81 528 81 701 81 1033 c 2
 81 1532 l 1
EndSplineSet
EndChar

StartChar: V
Encoding: 86 86 36
Width: 1390
VWidth: 0
Flags: HW
LayerCount: 2
Fore
SplineSet
81 1529 m 0
 81 1562 222 1663 266 1663 c 0
 270 1663 273 1662 275 1661 c 0
 277 1659 339 1475 497 1000 c 2
 716 340 l 2
 716 340 1111 1529 1116 1539 c 0
 1137 1579 1258 1663 1300 1663 c 0
 1306 1663 1309 1661 1309 1656 c 0
 1309 1652 794 100 790 93 c 0
 769 52 647 -31 607 -31 c 0
 595 -31 599 -31 339 749 c 0
 197 1176 81 1527 81 1529 c 0
EndSplineSet
EndChar

StartChar: X
Encoding: 88 88 37
Width: 1311
VWidth: 0
Flags: HW
LayerCount: 2
Fore
SplineSet
81 1528 m 0
 81 1561 222 1663 266 1663 c 0
 270 1663 273 1662 275 1661 c 0
 277 1659 690 1001 695 993 c 1
 868 1271 l 2
 1049 1561 1045 1553 1067 1574 c 0
 1108 1614 1189 1663 1220 1663 c 0
 1230 1663 1232 1658 1227 1647 c 0
 1226 1644 1120 1474 991 1268 c 2
 757 894 l 1
 993 516 l 2
 1153 261 1230 137 1230 135 c 0
 1230 102 1089 0 1043 -0 c 0
 1040 0 1038 1 1036 2 c 0
 1034 4 621 662 616 670 c 1
 442 392 l 2
 261 102 266 110 244 89 c 0
 203 49 122 0 91 -0 c 0
 84 0 81 2 81 7 c 0
 81 14 81 13 320 395 c 2
 554 769 l 1
 317 1147 l 2
 157 1402 81 1526 81 1528 c 0
EndSplineSet
EndChar

StartChar: Y
Encoding: 89 89 38
Width: 1311
VWidth: 0
Flags: HW
LayerCount: 2
Fore
SplineSet
567 -0 m 0
 562 0 561 1 557 3 c 1
 557 829 l 1
 319 1177 l 2
 146 1431 81 1525 81 1528 c 0
 81 1560 221 1663 267 1663 c 0
 277 1663 272 1667 486 1353 c 0
 602 1184 698 1045 698 1045 c 0
 701 1045 1034 1539 1051 1558 c 0
 1098 1608 1186 1663 1220 1663 c 0
 1227 1663 1230 1661 1230 1656 c 0
 1230 1648 1233 1654 988 1296 c 2
 754 953 l 1
 754 131 l 1
 726 76 604 0 567 -0 c 0
EndSplineSet
EndChar

StartChar: Z
Encoding: 90 90 39
Width: 1231
VWidth: 0
Flags: HW
LayerCount: 2
Fore
SplineSet
804 1663 m 2
 1151 1663 1151 1666 1151 1656 c 0
 1151 1649 1151 1651 715 892 c 2
 285 144 l 1
 716 143 l 2
 1151 142 1151 145 1151 135 c 0
 1151 110 1059 30 975 0 c 1
 531 -0 l 2
 435 -0 358 0 299 -0 c 0
 80 0 81 -3 81 7 c 0
 81 14 80 12 516 771 c 2
 946 1520 l 1
 515 1520 l 2
 80 1521 81 1518 81 1528 c 0
 81 1552 172 1637 260 1663 c 1
 703 1663 l 1
 804 1663 l 2
EndSplineSet
EndChar

StartChar: bracketleft
Encoding: 91 91 40
Width: 732
VWidth: 0
Flags: HW
LayerCount: 2
Fore
SplineSet
205 -717 m 0
 91 -717 89 -718 81 -713 c 1
 81 1532 l 1
 101 1572 186 1641 260 1663 c 1
 504 1663 l 2
 547 1663 582 1663 611 1663 c 0
 767 1663 754 1663 754 1656 c 0
 754 1631 662 1551 578 1521 c 1
 278 1520 l 1
 278 -574 l 1
 513 -574 l 2
 545 -574 574 -574 598 -574 c 0
 768 -574 754 -575 754 -582 c 0
 754 -607 662 -687 578 -717 c 1
 332 -717 l 2
 279 -717 238 -717 205 -717 c 0
EndSplineSet
EndChar

StartChar: backslash
Encoding: 92 92 41
Width: 1101
VWidth: 0
Flags: HW
LayerCount: 2
Fore
SplineSet
1051 -304 m 0
 1051 -334 908 -423 855 -423 c 0
 851 -423 848 -422 846 -420 c 0
 843 -418 51 1601 50 1607 c 0
 47 1637 194 1727 245 1727 c 0
 249 1727 251 1727 253 1726 c 0
 259 1723 1051 -301 1051 -304 c 0
EndSplineSet
EndChar

StartChar: bracketright
Encoding: 93 93 42
Width: 732
VWidth: 0
Flags: HW
LayerCount: 2
Fore
SplineSet
485 1663 m 0
 638 1663 646 1664 652 1660 c 1
 652 -586 l 1
 626 -637 523 -703 480 -715 c 0
 471 -718 467 -717 227 -717 c 2
 139 -717 l 2
 -36 -717 -22 -716 -22 -709 c 0
 -22 -684 70 -605 154 -575 c 1
 454 -574 l 1
 454 1520 l 1
 219 1520 l 1
 134 1520 l 2
 -36 1520 -22 1521 -22 1528 c 0
 -22 1558 97 1649 156 1663 c 0
 162 1665 370 1663 485 1663 c 0
EndSplineSet
EndChar

StartChar: asciicircum
Encoding: 94 94 43
Width: 1152
VWidth: 0
Flags: HW
LayerCount: 2
Fore
SplineSet
885 1080 m 0
 877 1080 881 1076 522 1475 c 1
 392 1331 l 2
 353 1288 185 1080 91 1080 c 0
 84 1080 81 1083 81 1088 c 0
 81 1093 85 1101 94 1112 c 0
 108 1129 497 1559 508 1570 c 0
 556 1617 634 1662 664 1663 c 2
 665 1663 l 2
 679 1663 1071 1217 1071 1215 c 0
 1071 1181 929 1080 885 1080 c 0
EndSplineSet
EndChar

StartChar: underscore
Encoding: 95 95 44
Width: 1152
VWidth: 0
Flags: HW
LayerCount: 2
Fore
SplineSet
755 -185 m 0
 1060 -185 1071 -180 1071 -193 c 0
 1071 -218 979 -298 895 -328 c 1
 491 -328 l 2
 390 -328 314 -328 256 -328 c 0
 94 -328 80 -327 80 -323 c 0
 80 -322 81 -321 81 -320 c 0
 81 -295 178 -210 260 -185 c 1
 663 -185 l 2
 696 -185 727 -185 755 -185 c 0
EndSplineSet
EndChar

StartChar: grave
Encoding: 96 96 45
Width: 755
VWidth: 0
Flags: HW
LayerCount: 2
Fore
SplineSet
81 1600 m 0
 81 1632 219 1735 267 1735 c 2
 268 1735 l 2
 281 1735 675 1314 675 1311 c 0
 675 1286 556 1181 483 1175 c 1
 456 1201 81 1594 81 1600 c 0
EndSplineSet
EndChar

StartChar: braceleft
Encoding: 123 123 46
Width: 891
VWidth: 0
Flags: HW
LayerCount: 2
Fore
SplineSet
913 -582 m 0
 913 -609 788 -717 718 -717 c 2
 714 -717 l 2
 470 -716 427 -493 410 -326 c 0
 376 7 424 388 105 401 c 0
 84 402 81 403 81 409 c 0
 81 434 198 542 280 545 c 0
 301 546 311 547 324 549 c 1
 456 825 332 1244 520 1468 c 0
 589 1551 743 1663 892 1663 c 0
 910 1663 926 1663 897 1628 c 0
 885 1613 791 1524 716 1520 c 0
 693 1519 685 1518 670 1516 c 1
 603 1377 608 1272 589 995 c 0
 569 703 515 622 395 522 c 1
 630 412 565 88 614 -253 c 0
 670 -645 913 -551 913 -582 c 0
EndSplineSet
EndChar

StartChar: bar
Encoding: 124 124 47
Width: 835
VWidth: 0
Flags: HW
LayerCount: 2
Fore
SplineSet
319 1532 m 1
 348 1589 471 1663 504 1663 c 0
 511 1663 513 1662 516 1660 c 1
 516 -586 l 1
 488 -641 366 -717 329 -717 c 0
 324 -717 323 -715 319 -713 c 1
 319 1532 l 1
EndSplineSet
EndChar

StartChar: braceright
Encoding: 125 125 48
Width: 891
VWidth: 0
Flags: HW
LayerCount: 2
Fore
SplineSet
-22 1528 m 0
 -22 1561 117 1663 165 1663 c 0
 744 1663 249 567 786 545 c 0
 807 544 810 543 810 537 c 0
 810 512 693 404 611 401 c 0
 590 400 580 399 567 397 c 1
 426 104 574 -327 340 -554 c 0
 264 -628 134 -717 -4 -717 c 0
 -18 -717 -22 -715 -22 -709 c 0
 -22 -684 96 -578 175 -574 c 0
 198 -573 206 -572 221 -570 c 1
 288 -430 282 -323 301 -48 c 0
 321 244 376 324 496 424 c 1
 261 534 325 858 276 1199 c 0
 220 1591 -22 1497 -22 1528 c 0
EndSplineSet
EndChar

StartChar: asciitilde
Encoding: 126 126 49
Width: 1231
VWidth: 0
Flags: HW
LayerCount: 2
Fore
SplineSet
81 832 m 0
 81 873 306 1037 457 1037 c 0
 656 1037 769 897 940 897 c 0
 1052 897 1084 967 1140 967 c 0
 1147 967 1150 964 1150 959 c 0
 1150 925 942 754 765 754 c 0
 583 754 458 894 291 894 c 0
 179 894 148 824 92 824 c 0
 85 824 81 827 81 832 c 0
EndSplineSet
EndChar

StartChar: T
Encoding: 84 84 50
Width: 1090
VWidth: 0
Flags: HW
LayerCount: 2
Fore
SplineSet
-169 1503 m 0
 -169 1549 -50 1680 -21 1680 c 0
 43 1680 301 1664 623 1664 c 0
 1021 1664 1250 1682 1256 1679 c 0
 1258 1678 1259 1675 1259 1671 c 0
 1259 1635 1154 1495 1104 1495 c 0
 633 1510 l 2
 634 1380 l 2
 636 1071 646 335 652 277 c 0
 678 41 728 53 728 35 c 0
 728 5 594 14 475 -5 c 0
 411 -15 408 -16 382 -16 c 0
 323 -16 297 2 392 33 c 1
 447 107 441 192 444 335 c 0
 452 727 455 959 456 1270 c 2
 456 1511 l 1
 388 1510 l 2
 84 1508 -163 1491 -167 1497 c 0
 -168 1499 -169 1501 -169 1503 c 0
EndSplineSet
EndChar

StartChar: f
Encoding: 102 102 51
Width: 663
VWidth: 0
Flags: HW
LayerCount: 2
Fore
SplineSet
0 723 m 0
 -6 723 -9 723 -9 731 c 0
 -9 757 64 853 148 895 c 1
 211 896 l 1
 212 984 l 2
 212 1030 193 1189 346 1373 c 0
 437 1482 672 1663 859 1663 c 0
 1063 1663 1121 1530 1121 1464 c 0
 1121 1418 975 1323 935 1323 c 0
 926 1323 924 1326 924 1335 c 0
 924 1434 818 1520 681 1520 c 0
 578 1520 559 1483 559 1483 c 0
 393 1312 419 1093 419 1037 c 2
 418 896 l 1
 585 896 l 2
 697 896 752 895 754 894 c 0
 757 892 757 884 754 877 c 0
 732 828 623 744 586 738 c 0
 571 735 421 734 419 732 c 0
 418 731 417 557 417 382 c 0
 417 15 413 -50 445 -105 c 0
 463 -135 377 -169 353 -191 c 0
 214 -317 105 -349 65 -349 c 0
 54 -349 50 -347 50 -341 c 0
 50 -305 160 -299 203 -148 c 0
 212 -116 213 -108 213 202 c 0
 213 265 213 335 213 406 c 2
 212 728 l 1
 127 725 21 723 0 723 c 0
EndSplineSet
EndChar

StartChar: f.conl
Encoding: 65536 -1 52
Width: 663
VWidth: 0
Flags: HW
LayerCount: 2
Fore
SplineSet
63 737 m 2
 -93 737 -92 735 -92 745 c 0
 -92 782 26 881 75 894 c 0
 78 895 103 896 146 896 c 2
 211 896 l 1
 212 984 l 2
 212 1030 193 1189 346 1373 c 0
 437 1482 672 1663 859 1663 c 0
 1063 1663 1121 1530 1121 1464 c 0
 1121 1418 975 1323 935 1323 c 0
 926 1323 924 1326 924 1335 c 0
 924 1434 818 1520 681 1520 c 0
 578 1520 559 1483 559 1483 c 0
 393 1312 419 1093 419 1037 c 2
 418 896 l 1
 584 896 l 2
 675 896 750 895 752 895 c 0
 780 887 660 757 589 738 c 0
 586 737 558 737 502 737 c 2
 419 737 l 1
 417 685 417 606 417 440 c 0
 417 -13 414 -52 445 -105 c 0
 462 -135 377 -169 353 -191 c 0
 214 -317 105 -349 65 -349 c 0
 54 -349 50 -347 50 -341 c 0
 50 -305 160 -299 203 -148 c 0
 212 -116 213 -108 213 204 c 0
 213 267 213 338 213 410 c 2
 212 737 l 1
 63 737 l 2
EndSplineSet
EndChar

StartChar: f.dotlig
Encoding: 65537 -1 53
Width: 663
VWidth: 0
Flags: HW
LayerCount: 2
Fore
SplineSet
0 723 m 0
 -6 723 -9 723 -9 731 c 0
 -9 757 64 853 148 895 c 1
 211 896 l 1
 212 985 l 2
 212 1022 189 1234 388 1439 c 0
 449 1502 644 1663 814 1663 c 0
 940 1663 1044 1581 1044 1454 c 0
 1044 1403 1038 1347 937 1268 c 0
 885 1228 830 1198 807 1198 c 0
 764 1198 847 1236 847 1330 c 0
 847 1449 735 1520 633 1520 c 0
 603 1520 584 1515 562 1510 c 1
 397 1323 419 1129 419 1038 c 2
 418 896 l 1
 585 896 l 2
 697 896 752 895 754 894 c 0
 757 892 757 884 754 877 c 0
 732 828 623 744 586 738 c 0
 571 735 421 734 419 732 c 0
 418 731 417 555 417 379 c 0
 417 -3 412 -50 447 -110 c 0
 459 -131 370 -175 353 -191 c 0
 215 -316 106 -349 65 -349 c 0
 54 -349 50 -347 50 -341 c 0
 50 -305 160 -299 203 -148 c 0
 214 -109 213 -92 213 190 c 0
 213 253 213 325 213 399 c 2
 212 728 l 1
 127 725 21 723 0 723 c 0
EndSplineSet
EndChar

StartChar: f.conl_dotlig
Encoding: 65538 -1 54
Width: 663
VWidth: 0
Flags: HW
LayerCount: 2
Fore
SplineSet
63 737 m 2
 -93 737 -92 735 -92 745 c 0
 -92 782 26 881 75 894 c 0
 78 895 102 896 145 896 c 2
 211 896 l 1
 212 985 l 2
 212 1022 189 1234 388 1439 c 0
 449 1502 644 1663 814 1663 c 0
 940 1663 1044 1581 1044 1454 c 0
 1044 1403 1038 1347 937 1268 c 0
 885 1228 830 1198 807 1198 c 0
 764 1198 847 1236 847 1330 c 0
 847 1449 735 1520 633 1520 c 0
 603 1520 584 1515 562 1510 c 1
 397 1323 419 1129 419 1038 c 2
 418 896 l 1
 584 896 l 2
 675 896 750 895 752 895 c 0
 780 887 660 757 589 738 c 0
 586 737 558 737 502 737 c 2
 419 737 l 1
 418 708 l 2
 417 688 417 565 417 430 c 0
 417 -18 412 -51 447 -110 c 0
 459 -131 370 -175 353 -191 c 0
 215 -316 106 -349 65 -349 c 0
 54 -349 50 -347 50 -341 c 0
 50 -305 160 -299 203 -148 c 0
 214 -108 213 -93 213 192 c 0
 213 256 213 329 213 404 c 2
 212 737 l 1
 63 737 l 2
EndSplineSet
EndChar

StartChar: longs
Encoding: 383 383 55
Width: 533
VWidth: 0
Flags: HW
LayerCount: 2
Fore
SplineSet
991 1462 m 0
 991 1421 846 1323 804 1323 c 0
 777 1323 816 1389 739 1466 c 0
 647 1557 496 1511 472 1484 c 0
 333 1329 356 1127 356 1010 c 0
 356 263 354 198 379 135 c 0
 393 101 293 47 167 14 c 0
 118 1 81 -21 44 -21 c 0
 -16 -21 102 47 111 57 c 0
 160 108 156 133 156 390 c 0
 156 488 158 786 41 739 c 0
 18 730 8 731 8 740 c 0
 8 764 74 831 157 876 c 1
 158 973 l 2
 158 1040 147 1187 259 1352 c 0
 376 1524 615 1663 773 1663 c 0
 957 1663 991 1526 991 1462 c 0
EndSplineSet
EndChar

StartChar: u
Encoding: 117 117 56
Width: 1147
VWidth: 0
Flags: HW
LayerCount: 2
Fore
SplineSet
37 736 m 0
 37 766 160 895 238 895 c 0
 285 895 341 852 355 755 c 0
 358 735 359 684 359 597 c 0
 359 413 357 390 357 367 c 0
 357 157 556 54 678 145 c 0
 798 235 790 377 790 412 c 0
 790 679 787 710 765 751 c 0
 762 757 759 763 759 765 c 0
 759 804 992 913 1042 887 c 0
 1058 879 1024 852 1018 848 c 0
 988 828 991 686 991 316 c 0
 991 265 984 152 1054 152 c 0
 1060 152 1063 149 1063 144 c 0
 1063 114 954 22 896 3 c 0
 875 -4 846 4 829 21 c 0
 783 68 796 174 791 180 c 0
 791 180 612 -31 413 -31 c 0
 291 -31 156 62 156 246 c 0
 156 311 162 311 162 572 c 0
 162 578 171 685 105 727 c 0
 70 749 37 712 37 736 c 0
EndSplineSet
EndChar

StartChar: u.conl
Encoding: 65539 -1 57
Width: 1147
VWidth: 0
Flags: HW
LayerCount: 2
Fore
SplineSet
413 -31 m 0
 314 -31 147 37 156 271 c 0
 160 370 162 479 162 568 c 0
 162 587 171 706 74 730 c 0
 37 739 -92 726 -92 745 c 0
 -92 767 13 894 103 897 c 0
 111 897 120 897 131 897 c 0
 221 897 258 895 296 862 c 0
 368 800 359 722 359 560 c 0
 359 442 357 403 357 364 c 0
 357 158 557 54 678 145 c 0
 798 235 790 377 790 412 c 0
 790 679 787 710 765 751 c 0
 762 757 759 763 759 765 c 0
 759 804 992 913 1042 887 c 0
 1058 879 1024 852 1018 848 c 0
 988 828 991 686 991 316 c 0
 991 265 984 152 1054 152 c 0
 1060 152 1063 149 1063 144 c 0
 1063 114 954 22 896 3 c 0
 875 -4 846 4 829 21 c 0
 783 68 796 174 791 180 c 0
 789 182 614 -31 413 -31 c 0
EndSplineSet
EndChar

StartChar: x
Encoding: 120 120 58
Width: 1021
VWidth: 0
Flags: HW
LayerCount: 2
Fore
SplineSet
68 717 m 0
 40 717 31 711 32 726 c 0
 35 756 144 895 232 895 c 0
 310 895 378 806 514 638 c 0
 530 619 544 602 544 602 c 0
 544 602 769 902 961 925 c 0
 966 926 972 926 977 926 c 0
 1053 926 1085 858 1085 854 c 0
 1085 822 946 719 899 719 c 0
 881 719 870 776 810 776 c 0
 805 776 774 800 651 611 c 0
 618 560 611 516 612 515 c 0
 716 395 843 177 962 177 c 0
 983 177 1003 190 996 165 c 0
 985 126 879 -1 798 -1 c 0
 687 -1 579 203 495 297 c 0
 494 298 350 96 161 1 c 0
 120 -19 86 -31 48 -31 c 0
 -34 -31 -64 41 -64 44 c 0
 -64 74 74 179 122 179 c 0
 138 179 174 88 254 127 c 0
 288 143 426 321 426 382 c 0
 426 382 224 654 122 703 c 0
 101 713 87 717 68 717 c 0
EndSplineSet
EndChar

StartChar: x.conl
Encoding: 65540 -1 59
Width: 1021
VWidth: 0
Flags: HW
LayerCount: 2
Fore
SplineSet
68 717 m 0
 40 717 31 711 32 726 c 0
 35 756 144 895 232 895 c 0
 310 895 378 806 514 638 c 0
 530 619 544 602 544 602 c 0
 544 602 769 902 961 925 c 0
 966 926 972 926 977 926 c 0
 1053 926 1085 858 1085 854 c 0
 1085 822 946 719 899 719 c 0
 881 719 870 776 810 776 c 0
 805 776 774 800 651 611 c 0
 618 560 611 516 612 515 c 0
 716 395 843 177 962 177 c 0
 983 177 1003 190 996 165 c 0
 985 126 879 -1 798 -1 c 0
 687 -1 579 203 495 297 c 0
 494 298 350 96 161 1 c 0
 120 -19 86 -31 48 -31 c 0
 -34 -31 -64 41 -64 44 c 0
 -64 74 74 179 122 179 c 0
 138 179 174 88 254 127 c 0
 288 143 426 321 426 382 c 0
 426 382 224 654 122 703 c 0
 101 713 87 717 68 717 c 0
EndSplineSet
EndChar

StartChar: uni25CC
Encoding: 9676 9676 60
Width: 1125
VWidth: 0
Flags: HW
LayerCount: 2
Fore
SplineSet
607 24 m 0
 607 -5 599 -20 563 -20 c 0
 496 -20 511 59 545 68 c 0
 552 70 607 79 607 24 c 0
722 12 m 0
 682 12 678 30 678 57 c 0
 678 84 684 95 704 100 c 0
 713 103 766 111 766 56 c 0
 766 26 758 12 722 12 c 0
403 12 m 0
 363 12 359 30 359 57 c 0
 359 84 365 95 385 100 c 0
 394 103 447 111 447 56 c 0
 447 26 439 12 403 12 c 0
902 146 m 0
 902 117 893 101 857 101 c 0
 790 101 806 181 840 190 c 0
 847 192 902 201 902 146 c 0
313 146 m 0
 313 117 304 101 268 101 c 0
 201 101 217 181 251 190 c 0
 258 192 313 201 313 146 c 0
993 282 m 0
 993 253 984 237 948 237 c 0
 881 237 897 315 931 325 c 0
 938 327 993 337 993 282 c 0
222 282 m 0
 222 253 213 237 177 237 c 0
 110 237 126 315 160 325 c 0
 167 327 222 337 222 282 c 0
1023 441 m 0
 1023 408 1012 397 979 397 c 0
 911 397 929 475 961 484 c 0
 970 487 1023 495 1023 441 c 0
146 397 m 0
 119 397 101 403 101 443 c 0
 101 498 176 497 188 463 c 0
 190 458 190 452 190 441 c 0
 190 408 179 397 146 397 c 0
993 600 m 0
 993 571 984 556 948 556 c 0
 881 556 897 634 931 644 c 0
 938 646 993 655 993 600 c 0
177 556 m 0
 156 556 132 560 132 602 c 0
 132 657 207 658 220 621 c 0
 222 616 222 610 222 600 c 0
 222 571 213 556 177 556 c 0
902 736 m 0
 902 707 893 691 857 691 c 0
 790 691 806 771 840 780 c 0
 847 782 902 791 902 736 c 0
268 691 m 0
 247 691 223 695 223 737 c 0
 223 792 298 794 311 757 c 0
 313 752 313 746 313 736 c 0
 313 707 304 691 268 691 c 0
722 781 m 0
 682 781 678 799 678 826 c 0
 678 853 684 864 704 869 c 0
 713 872 766 880 766 826 c 0
 766 796 758 781 722 781 c 0
403 781 m 0
 368 781 359 795 359 825 c 0
 359 852 363 863 385 869 c 0
 394 872 447 880 447 826 c 0
 447 796 439 781 403 781 c 0
517 859 m 0
 517 887 531 903 561 903 c 0
 606 903 607 877 607 858 c 0
 607 829 599 813 563 813 c 0
 542 813 517 817 517 859 c 0
EndSplineSet
EndChar

StartChar: uni0303.normal
Encoding: 65541 -1 61
Width: 0
VWidth: 0
Flags: HW
LayerCount: 2
Fore
SplineSet
-410 1080 m 0
 -410 1120 -218 1294 -85 1294 c 0
 46 1294 136 1213 243 1213 c 0
 330 1213 355 1277 401 1277 c 0
 405 1277 410 1275 410 1269 c 0
 410 1236 232 1055 77 1055 c 0
 -39 1055 -140 1136 -243 1136 c 0
 -330 1136 -355 1072 -401 1072 c 0
 -405 1072 -410 1074 -410 1080 c 0
EndSplineSet
EndChar

StartChar: uni0303.narrow
Encoding: 65542 -1 62
Width: 0
VWidth: 0
Flags: HW
LayerCount: 2
Fore
SplineSet
176 1235 m 0
 224 1235 248 1277 282 1277 c 0
 288 1277 291 1274 291 1269 c 0
 291 1235 130 1076 9 1076 c 0
 -56 1076 -116 1114 -176 1114 c 0
 -224 1114 -247 1072 -282 1072 c 0
 -288 1072 -291 1075 -291 1080 c 0
 -291 1114 -131 1273 -9 1273 c 0
 56 1273 116 1235 176 1235 c 0
EndSplineSet
EndChar

StartChar: uni0304.normal
Encoding: 65543 -1 63
Width: 0
VWidth: 0
Flags: HW
LayerCount: 2
Fore
SplineSet
233 1223 m 0
 435 1223 416 1222 416 1215 c 0
 416 1186 303 1098 244 1082 c 0
 235 1079 231 1080 -88 1080 c 2
 -212 1080 l 2
 -437 1080 -416 1081 -416 1088 c 0
 -416 1114 -318 1199 -236 1223 c 1
 87 1223 l 2
 146 1223 193 1223 233 1223 c 0
EndSplineSet
EndChar

StartChar: uni0304.narrow
Encoding: 65544 -1 64
Width: 0
VWidth: 0
Flags: HW
LayerCount: 2
Fore
SplineSet
175 1223 m 0
 308 1223 297 1222 297 1215 c 0
 297 1186 184 1098 125 1082 c 0
 116 1079 112 1080 -88 1080 c 2
 -158 1080 l 2
 -308 1080 -297 1081 -297 1088 c 0
 -297 1113 -199 1198 -117 1223 c 1
 87 1223 l 2
 122 1223 151 1223 175 1223 c 0
EndSplineSet
EndChar

StartChar: uni0300.normal
Encoding: 65545 -1 65
Width: 0
VWidth: 0
Flags: HW
LayerCount: 2
Fore
SplineSet
-295 1396 m 0
 -295 1406 -253 1414 -219 1414 c 0
 -168 1414 -78 1400 -61 1381 c 0
 -50 1368 155 1000 157 987 c 0
 158 980 153 978 147 978 c 0
 121 978 32 1021 -35 1098 c 2
 -253 1344 l 2
 -285 1381 -295 1391 -295 1396 c 0
EndSplineSet
EndChar

StartChar: uni0301.normal
Encoding: 65546 -1 66
Width: 0
VWidth: 0
Flags: HW
LayerCount: 2
Fore
SplineSet
-147 978 m 0
 -151 978 -157 979 -157 984 c 0
 -157 999 50 1369 61 1381 c 0
 78 1400 168 1414 217 1414 c 0
 251 1414 295 1406 295 1396 c 0
 295 1391 285 1381 253 1344 c 2
 35 1098 l 2
 -32 1021 -121 978 -147 978 c 0
EndSplineSet
EndChar

StartChar: uni0307.normal
Encoding: 65547 -1 67
Width: 0
VWidth: 0
Flags: HW
LayerCount: 2
Fore
SplineSet
-1 1273 m 0
 30 1273 121 1189 121 1152 c 0
 121 1127 114 1123 72 1081 c 0
 30 1039 25 1031 0 1031 c 0
 -23 1031 -27 1035 -72 1081 c 0
 -116 1125 -121 1128 -121 1152 c 0
 -121 1177 -113 1180 -72 1222 c 0
 -31 1264 -25 1273 -1 1273 c 0
EndSplineSet
EndChar

StartChar: uni0308.normal
Encoding: 65548 -1 68
Width: 0
VWidth: 0
Flags: HW
LayerCount: 2
Fore
SplineSet
204 1273 m 0
 235 1273 326 1189 326 1152 c 0
 326 1127 319 1123 277 1081 c 0
 235 1039 230 1031 205 1031 c 0
 182 1031 177 1035 132 1081 c 0
 88 1125 84 1128 84 1152 c 0
 84 1177 91 1180 132 1222 c 0
 173 1264 180 1273 204 1273 c 0
-205 1273 m 0
 -174 1273 -84 1189 -84 1152 c 0
 -84 1127 -90 1123 -132 1081 c 0
 -174 1039 -180 1031 -205 1031 c 0
 -228 1031 -232 1035 -277 1081 c 0
 -321 1125 -326 1128 -326 1152 c 0
 -326 1177 -318 1180 -277 1222 c 0
 -236 1264 -229 1273 -205 1273 c 0
EndSplineSet
EndChar

StartChar: uni0308.narrow
Encoding: 65549 -1 69
Width: 0
VWidth: 0
Flags: HW
LayerCount: 2
Fore
SplineSet
179 1273 m 0
 210 1273 300 1189 300 1152 c 0
 300 1127 294 1123 252 1081 c 0
 210 1039 204 1031 179 1031 c 0
 156 1031 152 1035 107 1081 c 0
 63 1125 58 1128 58 1152 c 0
 58 1177 66 1180 107 1222 c 0
 148 1264 155 1273 179 1273 c 0
-180 1273 m 0
 -149 1273 -58 1189 -58 1152 c 0
 -58 1127 -65 1123 -107 1081 c 0
 -149 1039 -154 1031 -179 1031 c 0
 -202 1031 -207 1035 -252 1081 c 0
 -296 1125 -300 1128 -300 1152 c 0
 -300 1177 -293 1180 -252 1222 c 0
 -211 1264 -204 1273 -180 1273 c 0
EndSplineSet
EndChar

StartChar: uni030A.normal
Encoding: 65550 -1 70
Width: 0
VWidth: 0
Flags: HW
LayerCount: 2
Fore
SplineSet
-242 1179 m 0
 -242 1309 -82 1412 26 1412 c 0
 145 1412 242 1338 242 1227 c 0
 242 1100 85 993 -30 993 c 0
 -121 993 -242 1051 -242 1179 c 0
103 1147 m 0
 103 1249 -2 1307 -88 1307 c 0
 -91 1307 -103 1312 -103 1258 c 0
 -103 1156 2 1098 88 1098 c 0
 91 1098 103 1093 103 1147 c 0
EndSplineSet
EndChar

StartChar: uni0364.normal
Encoding: 65551 -1 71
Width: 0
VWidth: 0
Flags: HW
LayerCount: 2
Fore
SplineSet
-232 1200 m 0
 -232 1336 -14 1479 104 1479 c 0
 174 1479 277 1463 277 1384 c 0
 277 1297 145 1180 -45 1117 c 0
 -84 1104 -89 1109 -77 1084 c 0
 -63 1054 -27 1036 21 1036 c 0
 123 1036 145 1101 204 1114 c 0
 223 1118 226 1108 212 1086 c 0
 182 1040 13 883 -144 883 c 0
 -207 883 -277 910 -277 981 c 0
 -277 1054 -169 1177 65 1249 c 0
 81 1254 89 1253 75 1280 c 0
 57 1315 11 1328 -35 1334 c 1
 -34 1319 -32 1303 -29 1290 c 1
 -57 1233 -175 1160 -213 1157 c 0
 -224 1156 -232 1158 -232 1200 c 0
EndSplineSet
EndChar

StartChar: A
Encoding: 65 65 72
Width: 1553
VWidth: 0
Flags: HW
LayerCount: 2
Fore
SplineSet
236 1438 m 0
 183 1438 399 1666 548 1666 c 0
 780 1666 915 1353 924 1335 c 0
 1179 833 1448 24 1602 24 c 0
 1610 24 1641 37 1641 22 c 0
 1641 -13 1481 -130 1422 -130 c 0
 1322 -130 1226 185 1211 182 c 0
 1207 181 1195 180 1191 180 c 1
 1060 252 911 304 725 304 c 0
 519 304 352 230 332 206 c 0
 303 170 246 106 226 86 c 0
 186 46 19 -30 19 9 c 0
 19 36 76 66 178 193 c 0
 619 742 654 1312 664 1331 c 0
 666 1335 513 1512 346 1487 c 0
 297 1479 270 1438 236 1438 c 0
798 1122 m 1
 661 617 428 341 428 332 c 0
 428 332 618 447 902 447 c 0
 1015 447 1107 426 1107 426 c 0
 1107 426 1093 461 1075 503 c 2
 1028 616 l 2
 956 787 905 902 851 1015 c 1
 798 1122 l 1
EndSplineSet
EndChar

StartChar: F
Encoding: 70 70 73
Width: 940
VWidth: 0
Flags: HW
LayerCount: 2
Fore
SplineSet
-13 1509 m 0
 -13 1540 120 1663 206 1663 c 0
 325 1663 339 1443 355 1310 c 1
 475 1470 705 1663 973 1663 c 0
 1247 1663 1396 1470 1396 1458 c 0
 1396 1426 1263 1328 1213 1323 c 0
 1190 1321 1192 1357 1095 1428 c 0
 1003 1495 895 1520 809 1520 c 0
 730 1520 647 1500 591 1467 c 0
 517 1423 370 1225 370 934 c 0
 370 879 372 851 373 658 c 2
 374 534 l 1
 430 531 793 529 866 527 c 0
 903 526 904 527 904 518 c 0
 904 489 795 387 740 371 c 0
 723 366 490 367 407 365 c 2
 374 364 l 1
 374 316 l 2
 374 -516 339 -592 268 -643 c 0
 213 -682 131 -717 96 -717 c 0
 84 -717 81 -713 81 -708 c 0
 81 -694 103 -687 111 -667 c 0
 167 -532 172 95 172 333 c 2
 172 362 l 1
 116 362 l 2
 44 361 35 359 69 409 c 0
 93 445 123 475 172 513 c 1
 172 608 l 2
 172 1072 161 1562 22 1508 c 0
 0 1500 -13 1499 -13 1509 c 0
EndSplineSet
EndChar

StartChar: P
Encoding: 80 80 74
Width: 1625
VWidth: 0
Flags: HW
LayerCount: 2
Fore
SplineSet
361 1227 m 2
 361 1227 649 1663 1088 1663 c 0
 1422 1663 1545 1289 1545 984 c 0
 1545 472 1081 179 794 179 c 0
 576 179 421 299 421 306 c 0
 421 334 545 429 616 436 c 1
 718 368 826 322 967 322 c 0
 1002 322 1121 328 1174 381 c 0
 1210 417 1347 572 1347 860 c 0
 1347 1142 1233 1517 916 1517 c 0
 797 1517 661 1478 572 1380 c 0
 450 1245 398 1086 369 951 c 1
 370 904 l 2
 372 769 374 610 374 449 c 0
 374 -535 345 -588 268 -643 c 0
 213 -682 131 -717 96 -717 c 0
 84 -717 81 -713 81 -708 c 0
 81 -693 103 -687 111 -667 c 0
 151 -571 172 -278 172 503 c 0
 172 1061 165 1563 22 1508 c 0
 0 1500 -13 1499 -13 1509 c 0
 -13 1544 144 1685 230 1660 c 0
 276 1646 340 1590 359 1256 c 0
 360 1240 361 1227 361 1227 c 2
EndSplineSet
EndChar

StartChar: S
Encoding: 83 83 75
Width: 1272
VWidth: 0
Flags: HW
LayerCount: 2
Fore
SplineSet
150 1158 m 0
 150 1432 526 1663 772 1663 c 0
 1015 1663 1116 1515 1163 1423 c 1
 1143 1369 1021 1293 979 1288 c 0
 953 1285 882 1520 606 1520 c 0
 563 1520 495 1515 432 1487 c 0
 403 1474 347 1391 347 1283 c 0
 347 832 1204 990 1204 521 c 0
 1204 439 1182 278 927 109 c 0
 809 31 669 -31 497 -31 c 0
 161 -31 56 270 56 303 c 0
 56 336 195 438 241 438 c 0
 258 438 328 113 673 113 c 0
 777 113 897 144 929 180 c 0
 943 196 1007 267 1007 398 c 0
 1007 611 804 690 628 753 c 2
 546 782 l 2
 345 854 150 932 150 1158 c 0
EndSplineSet
EndChar

StartChar: W
Encoding: 87 87 76
Width: 2168
VWidth: 0
Flags: HW
LayerCount: 2
Fore
SplineSet
-60 1490 m 0
 -60 1519 47 1663 132 1663 c 0
 281 1663 421 1340 522 1114 c 0
 683 754 775 439 835 175 c 1
 872 229 l 1
 970 375 1053 532 1118 695 c 2
 1135 738 l 2
 1138 746 1147 755 1156 766 c 1
 1027 1215 914 1524 788 1484 c 0
 775 1480 769 1481 770 1493 c 0
 773 1526 878 1663 962 1663 c 0
 1079 1663 1165 1435 1235 1213 c 0
 1339 884 1419 579 1479 276 c 0
 1484 250 1489 229 1489 229 c 0
 1492 229 1876 944 1876 1315 c 0
 1876 1329 1882 1469 1816 1509 c 0
 1767 1539 1705 1477 1705 1507 c 0
 1705 1538 1842 1663 1950 1663 c 0
 2056 1663 2081 1543 2081 1420 c 0
 2081 975 1594 140 1517 63 c 0
 1449 -5 1363 -42 1349 -30 c 0
 1339 -21 1301 237 1211 565 c 1
 1081 323 901 109 852 61 c 0
 806 16 726 -32 696 -32 c 0
 685 -32 685 -33 675 8 c 0
 534 614 286 1113 212 1247 c 0
 174 1316 62 1513 -40 1484 c 0
 -53 1480 -60 1482 -60 1490 c 0
EndSplineSet
EndChar

StartChar: a
Encoding: 97 97 77
Width: 1061
VWidth: 0
Flags: HW
LayerCount: 2
Fore
SplineSet
494 637 m 0
 494 640 434 737 362 737 c 0
 339 737 296 714 316 752 c 0
 328 776 432 895 526 895 c 0
 643 895 705 769 879 377 c 0
 937 245 990 143 1059 161 c 0
 1070 164 1076 161 1076 154 c 0
 1076 127 954 0 875 -0 c 0
 817 0 777 55 730 147 c 1
 629 68 480 -31 300 -31 c 0
 175 -31 69 44 69 158 c 0
 69 260 99 350 392 547 c 0
 441 580 494 619 494 637 c 0
529 579 m 1
 361 450 266 436 266 289 c 0
 266 174 376 112 478 112 c 0
 645 112 673 180 698 220 c 1
 569 499 l 2
 538 564 533 571 529 579 c 1
EndSplineSet
EndChar

StartChar: ae
Encoding: 230 230 78
Width: 1550
VWidth: 0
Flags: HW
LayerCount: 2
Fore
SplineSet
315 -31 m 0
 187 -31 68 39 68 164 c 0
 68 432 505 605 543 637 c 0
 543 637 464 807 371 780 c 0
 305 761 365 824 402 853 c 0
 463 900 519 926 563 926 c 0
 685 926 739 761 745 764 c 0
 836 817 993 926 1172 926 c 0
 1352 926 1449 786 1449 655 c 0
 1449 597 1444 566 1334 498 c 0
 1261 453 1048 402 916 372 c 1
 996 219 1079 113 1207 113 c 0
 1311 113 1285 138 1336 183 c 0
 1389 230 1457 268 1484 268 c 0
 1490 268 1495 266 1495 261 c 0
 1495 221 1261 -31 1030 -31 c 0
 856 -31 776 150 768 148 c 0
 760 146 563 -31 315 -31 c 0
1250 558 m 0
 1250 603 1187 783 993 783 c 0
 889 783 767 718 768 712 c 0
 768 711 774 699 780 684 c 2
 857 501 l 2
 868 477 868 475 871 476 c 2
 915 483 l 2
 972 492 1250 546 1250 558 c 0
265 290 m 0
 265 183 369 112 495 112 c 0
 665 112 715 183 735 207 c 1
 720 238 l 2
 656 365 571 583 568 583 c 0
 568 583 342 465 318 438 c 0
 285 400 265 346 265 290 c 0
EndSplineSet
EndChar

StartChar: b
Encoding: 98 98 79
Width: 1196
VWidth: 0
Flags: HW
LayerCount: 2
Fore
SplineSet
-2 1500 m 0
 -2 1529 122 1663 215 1663 c 0
 339 1663 370 1440 370 736 c 2
 370 721 l 1
 458 802 613 926 774 926 c 0
 957 926 1110 768 1110 557 c 0
 1110 251 776 -31 520 -31 c 0
 422 -31 260 7 165 205 c 1
 166 277 l 2
 168 372 171 468 171 754 c 0
 171 1291 151 1489 58 1502 c 0
 33 1505 -2 1480 -2 1500 c 0
925 419 m 0
 925 611 788 760 611 760 c 0
 544 760 429 723 369 639 c 1
 368 534 l 2
 368 476 367 407 366 380 c 2
 365 330 l 1
 421 209 542 122 685 122 c 0
 840 122 859 188 859 188 c 0
 909 265 925 355 925 419 c 0
EndSplineSet
EndChar

StartChar: b.conl
Encoding: 65552 -1 80
Width: 1298
VWidth: 0
Flags: HW
LayerCount: 2
Fore
SplineSet
873 926 m 0
 1067 926 1213 758 1213 559 c 0
 1213 232 861 -31 618 -31 c 0
 355 -31 259 202 259 202 c 0
 258 203 258 248 258 381 c 0
 258 468 259 594 259 769 c 2
 259 1334 l 1
 288 1391 411 1466 444 1466 c 0
 452 1466 454 1464 457 1462 c 1
 457 1191 l 2
 457 1042 458 873 458 818 c 2
 459 718 l 1
 480 737 l 2
 568 815 716 926 873 926 c 0
1027 425 m 0
 1027 607 886 760 716 760 c 0
 615 760 503 703 458 635 c 1
 458 331 l 1
 551 151 697 120 785 120 c 0
 817 120 914 128 944 166 c 0
 995 230 1027 322 1027 425 c 0
EndSplineSet
EndChar

StartChar: c
Encoding: 99 99 81
Width: 981
VWidth: 0
Flags: HW
LayerCount: 2
Fore
SplineSet
58 385 m 0
 58 710 411 926 607 926 c 0
 834 926 927 756 927 753 c 0
 927 720 791 622 743 618 c 0
 734 617 734 617 719 638 c 0
 584 822 358 791 329 755 c 0
 283 697 249 613 249 511 c 0
 249 229 487 49 751 179 c 0
 824 215 870 282 905 282 c 0
 912 282 914 281 914 273 c 0
 914 236 695 -31 419 -31 c 0
 187 -31 58 183 58 385 c 0
EndSplineSet
EndChar

StartChar: d
Encoding: 100 100 82
Width: 1188
VWidth: 0
Flags: HW
LayerCount: 2
Fore
SplineSet
682 1498 m 0
 682 1530 808 1663 899 1663 c 0
 976 1663 1017 1592 1028 1342 c 0
 1037 1144 1027 380 1043 251 c 0
 1057 139 1088 166 1088 153 c 0
 1088 115 946 -11 906 1 c 0
 863 13 850 95 841 179 c 1
 747 92 596 -31 432 -31 c 0
 260 -31 83 111 83 342 c 0
 83 715 447 926 638 926 c 0
 716 926 771 906 833 866 c 1
 834 905 l 2
 835 938 835 1010 835 1081 c 0
 835 1364 817 1503 739 1503 c 0
 714 1503 682 1479 682 1498 c 0
594 130 m 0
 622 130 756 140 835 261 c 1
 833 304 834 364 833 498 c 2
 832 696 l 1
 721 606 728 639 689 680 c 0
 626 746 549 782 455 782 c 0
 368 782 364 753 364 753 c 0
 314 686 276 582 276 468 c 0
 276 276 422 130 594 130 c 0
EndSplineSet
EndChar

StartChar: e
Encoding: 101 101 83
Width: 1021
VWidth: 0
Flags: HW
LayerCount: 2
Fore
SplineSet
58 384 m 0
 58 713 437 926 619 926 c 0
 852 926 926 794 926 706 c 0
 926 574 696 492 670 492 c 0
 623 492 292 349 286 343 c 0
 285 343 367 137 588 137 c 0
 832 137 891 282 945 282 c 0
 952 282 954 280 954 273 c 0
 954 239 747 -31 438 -31 c 0
 210 -31 58 168 58 384 c 0
722 603 m 1
 717 645 680 782 451 782 c 0
 431 782 354 777 330 749 c 0
 270 678 249 583 249 511 c 0
 249 472 258 411 263 411 c 0
 281 411 510 527 690 592 c 2
 722 603 l 1
EndSplineSet
EndChar

StartChar: g
Encoding: 103 103 84
Width: 1111
VWidth: 0
Flags: HW
LayerCount: 2
Fore
SplineSet
81 387 m 0
 81 717 438 926 623 926 c 0
 679 926 718 915 764 896 c 1
 982 896 l 2
 1203 895 1204 898 1204 888 c 0
 1204 851 1088 754 1039 739 c 0
 1025 735 933 740 932 740 c 2
 945 716 l 2
 1097 410 840 292 840 119 c 0
 840 -57 1099 -83 1060 -280 c 0
 1019 -484 671 -717 365 -717 c 0
 106 -717 9 -488 9 -469 c 0
 9 -443 114 -357 176 -338 c 0
 231 -321 187 -364 285 -464 c 0
 357 -538 445 -573 544 -573 c 0
 665 -573 793 -529 816 -502 c 0
 860 -450 880 -372 856 -313 c 0
 800 -178 535 -132 693 148 c 1
 726 202 l 2
 779 290 795 333 795 388 c 0
 795 586 651 783 448 783 c 0
 359 783 354 756 354 756 c 0
 309 696 278 607 278 512 c 0
 278 353 407 209 579 209 c 0
 610 209 646 222 632 194 c 0
 632 194 544 65 402 65 c 2
 401 65 l 2
 231 65 81 194 81 387 c 0
EndSplineSet
EndChar

StartChar: g.swash
Encoding: 65553 -1 85
Width: 1367
VWidth: 0
Flags: HW
LayerCount: 2
Fore
SplineSet
624 926 m 0
 670 926 715 919 766 896 c 1
 1151 896 l 2
 1555 896 1598 891 1646 917 c 0
 1674 932 1695 940 1707 940 c 0
 1710 940 1718 939 1718 932 c 0
 1718 911 1586 766 1386 753 c 0
 1373 752 1284 752 1145 752 c 0
 1024 752 925 752 925 752 c 0
 925 752 1026 591 981 442 c 0
 945 324 840 231 840 119 c 0
 840 -57 1099 -83 1060 -280 c 0
 1019 -484 671 -717 365 -717 c 0
 106 -717 9 -488 9 -469 c 0
 9 -443 114 -357 176 -338 c 0
 231 -321 187 -364 285 -464 c 0
 357 -538 445 -573 544 -573 c 0
 665 -573 793 -529 816 -502 c 0
 860 -450 880 -372 856 -313 c 0
 800 -178 535 -132 693 148 c 1
 726 202 l 2
 779 290 795 333 795 388 c 0
 795 586 651 783 448 783 c 0
 359 783 354 756 354 756 c 0
 309 696 278 607 278 512 c 0
 278 353 407 209 579 209 c 0
 610 209 646 222 632 194 c 0
 632 194 544 65 402 65 c 2
 401 65 l 2
 231 65 81 194 81 387 c 0
 81 716 436 926 624 926 c 0
EndSplineSet
EndChar

StartChar: h
Encoding: 104 104 86
Width: 1108
VWidth: 0
Flags: HW
LayerCount: 2
Fore
SplineSet
8 1508 m 0
 8 1543 147 1663 226 1663 c 0
 369 1663 356 1411 357 1014 c 2
 358 729 l 1
 528 883 662 895 722 895 c 0
 859 895 967 805 986 684 c 0
 990 659 993 531 993 429 c 0
 993 374 991 348 991 293 c 0
 991 272 986 166 1026 161 c 0
 1034 160 1038 158 1038 153 c 0
 1038 119 901 -9 856 1 c 0
 786 16 790 161 790 336 c 0
 790 446 791 483 791 520 c 0
 791 644 690 748 548 748 c 0
 423 748 389 679 358 630 c 1
 358 466 l 2
 358 120 374 128 371 120 c 0
 349 67 143 8 143 8 c 0
 105 -8 69 -21 44 -21 c 0
 -16 -21 102 47 111 57 c 0
 134 81 148 111 152 142 c 0
 153 153 156 753 156 1033 c 0
 156 1181 173 1559 41 1507 c 0
 29 1502 22 1500 17 1500 c 0
 11 1500 8 1503 8 1508 c 0
EndSplineSet
EndChar

StartChar: h.conl
Encoding: 65554 -1 87
Width: 1211
VWidth: 0
Flags: HW
LayerCount: 2
Fore
SplineSet
650 748 m 0
 526 748 491 681 459 629 c 1
 460 450 l 2
 461 261 462 197 473 136 c 0
 484 73 244 8 242 7 c 0
 224 -3 173 -21 147 -21 c 0
 136 -21 129 -19 129 -13 c 0
 129 21 231 31 253 130 c 0
 255 141 256 359 258 942 c 2
 259 1334 l 1
 288 1392 411 1466 444 1466 c 0
 452 1466 454 1464 457 1462 c 1
 457 1368 l 2
 457 1316 458 1151 458 1001 c 2
 459 728 l 1
 559 814 679 895 825 895 c 0
 961 895 1067 805 1088 687 c 0
 1092 667 1094 548 1094 399 c 0
 1094 370 1094 338 1094 305 c 0
 1094 274 1088 166 1129 161 c 0
 1137 160 1140 158 1140 153 c 0
 1140 127 1004 -26 944 6 c 0
 911 23 891 80 891 305 c 0
 891 370 894 478 894 521 c 0
 894 638 796 748 650 748 c 0
EndSplineSet
EndChar

StartChar: dotlessi
Encoding: 305 305 88
Width: 537
VWidth: 0
Flags: HW
LayerCount: 2
Fore
SplineSet
40 736 m 0
 40 764 162 895 244 895 c 0
 293 895 357 842 366 675 c 0
 368 641 370 462 370 346 c 0
 370 196 377 161 404 161 c 0
 411 161 415 158 415 152 c 0
 415 116 284 0 241 -0 c 0
 165 0 168 162 168 241 c 0
 168 356 171 471 171 529 c 0
 171 695 110 748 67 732 c 0
 49 725 40 727 40 736 c 0
EndSplineSet
EndChar

StartChar: dotlessi.conl
Encoding: 65555 -1 89
Width: 537
VWidth: 0
Flags: HW
LayerCount: 2
Fore
SplineSet
168 217 m 0
 168 282 171 456 171 527 c 0
 171 769 31 734 2 734 c 0
 -92 735 -92 736 -92 745 c 0
 -92 766 12 894 104 897 c 0
 127 898 130 898 133 898 c 0
 241 898 353 904 366 674 c 0
 368 642 370 466 370 348 c 0
 370 209 373 161 404 161 c 0
 411 161 415 158 415 152 c 0
 415 116 284 0 241 -0 c 0
 171 0 168 137 168 217 c 0
EndSplineSet
EndChar

StartChar: uni0237
Encoding: 567 567 90
Width: 515
VWidth: 0
Flags: HW
LayerCount: 2
Fore
SplineSet
195 253 m 0
 195 317 221 791 72 729 c 0
 46 718 34 721 46 745 c 0
 70 793 182 895 258 895 c 0
 383 895 393 691 393 200 c 0
 393 -210 405 -355 225 -523 c 0
 144 -599 -18 -717 -180 -717 c 0
 -305 -717 -360 -613 -360 -607 c 0
 -360 -577 -216 -488 -166 -488 c 0
 -144 -488 -94 -618 81 -562 c 0
 112 -552 170 -447 181 -339 c 0
 187 -280 195 16 195 253 c 0
EndSplineSet
EndChar

StartChar: uni0237.conl
Encoding: 65556 -1 91
Width: 515
VWidth: 0
Flags: HW
LayerCount: 2
Fore
SplineSet
-360 -607 m 0
 -360 -577 -216 -488 -166 -488 c 0
 -144 -488 -94 -618 81 -562 c 0
 112 -552 170 -447 181 -339 c 0
 186 -284 194 -7 194 214 c 0
 194 508 202 714 75 732 c 0
 61 734 -75 733 -90 738 c 0
 -90 738 -92 742 -92 745 c 0
 -92 767 12 893 103 897 c 0
 113 897 125 897 138 897 c 0
 365 897 393 875 393 201 c 0
 393 -210 405 -355 225 -523 c 0
 144 -599 -18 -717 -180 -717 c 0
 -305 -717 -360 -613 -360 -607 c 0
EndSplineSet
EndChar

StartChar: k
Encoding: 107 107 92
Width: 1073
VWidth: 0
Flags: HW
LayerCount: 2
Fore
SplineSet
8 1508 m 0
 8 1543 147 1663 226 1663 c 0
 368 1663 356 1419 357 1027 c 2
 358 736 l 1
 472 822 625 895 726 895 c 0
 882 895 962 773 940 666 c 0
 925 590 863 526 744 463 c 2
 720 451 l 1
 895 306 946 129 1020 142 c 0
 1032 144 1038 141 1038 135 c 0
 1038 117 896 -34 808 9 c 0
 719 53 635 267 471 370 c 0
 461 376 458 378 458 383 c 0
 458 400 538 465 669 489 c 1
 707 528 724 564 724 614 c 0
 724 759 560 795 527 779 c 0
 527 779 418 719 358 620 c 1
 358 460 l 2
 358 120 374 128 371 120 c 0
 349 67 143 8 143 8 c 0
 105 -8 69 -21 44 -21 c 0
 -16 -21 102 47 111 57 c 0
 134 81 148 111 152 142 c 0
 155 163 155 1036 155 1041 c 0
 155 1178 174 1560 41 1507 c 0
 29 1502 22 1500 17 1500 c 0
 11 1500 8 1503 8 1508 c 0
EndSplineSet
EndChar

StartChar: k.conl
Encoding: 65557 -1 93
Width: 1176
VWidth: 0
Flags: HW
LayerCount: 2
Fore
SplineSet
827 895 m 0
 963 895 1047 802 1047 703 c 0
 1047 607 972 530 846 463 c 2
 822 451 l 1
 997 306 1048 129 1122 142 c 0
 1134 144 1140 141 1140 135 c 0
 1140 117 999 -34 911 9 c 0
 822 53 738 266 574 370 c 0
 564 376 561 378 561 383 c 0
 561 404 658 468 756 486 c 0
 806 495 870 622 786 722 c 0
 741 776 656 793 629 779 c 0
 592 759 509 700 459 616 c 1
 460 444 l 2
 461 259 462 196 473 136 c 0
 484 73 244 8 242 7 c 0
 224 -3 173 -21 147 -21 c 0
 136 -21 129 -19 129 -13 c 0
 129 21 231 31 253 130 c 0
 255 141 256 359 258 942 c 2
 259 1334 l 1
 288 1392 411 1466 444 1466 c 0
 452 1466 454 1464 457 1462 c 1
 457 1366 l 2
 457 1313 458 1149 458 1002 c 2
 459 735 l 1
 621 853 753 895 827 895 c 0
EndSplineSet
EndChar

StartChar: l
Encoding: 108 108 94
Width: 512
VWidth: 0
Flags: HW
LayerCount: 2
Fore
SplineSet
5 1498 m 0
 5 1530 132 1663 223 1663 c 0
 299 1663 341 1592 351 1341 c 0
 354 1261 357 884 357 588 c 0
 357 275 365 161 402 161 c 0
 408 161 411 158 411 153 c 0
 411 115 277 0 236 -0 c 0
 147 0 155 357 155 456 c 0
 155 650 158 843 158 1101 c 0
 158 1223 165 1503 62 1503 c 0
 37 1503 5 1478 5 1498 c 0
EndSplineSet
EndChar

StartChar: l.conl
Encoding: 65558 -1 95
Width: 615
VWidth: 0
Flags: HW
LayerCount: 2
Fore
SplineSet
344 -0 m 0
 274 0 256 233 256 863 c 0
 256 1027 257 1223 258 1284 c 2
 259 1334 l 1
 288 1391 411 1466 444 1466 c 0
 461 1466 460 1466 460 996 c 0
 460 781 459 652 459 566 c 0
 459 227 487 166 514 160 c 0
 517 159 519 156 519 152 c 0
 519 117 386 0 344 -0 c 0
EndSplineSet
EndChar

StartChar: m
Encoding: 109 109 96
Width: 1663
VWidth: 0
Flags: HW
LayerCount: 2
Fore
SplineSet
8 740 m 0
 8 775 147 895 226 895 c 0
 308 895 328 815 344 725 c 1
 418 788 557 895 725 895 c 2
 727 895 l 2
 904 894 935 730 939 725 c 0
 944 720 1104 895 1322 895 c 2
 1324 895 l 2
 1442 895 1530 809 1544 672 c 0
 1546 651 1548 515 1548 431 c 0
 1548 390 1547 348 1547 293 c 0
 1547 219 1552 165 1582 161 c 0
 1590 160 1593 158 1593 153 c 0
 1593 127 1457 -26 1397 6 c 0
 1344 34 1346 182 1346 315 c 0
 1346 415 1347 474 1347 514 c 0
 1347 761 1100 812 965 671 c 2
 950 656 l 1
 950 560 l 2
 951 467 952 307 954 168 c 2
 955 100 l 1
 916 43 799 -16 760 -16 c 0
 752 -16 750 -14 747 -11 c 1
 749 68 l 2
 751 184 752 394 752 476 c 0
 752 493 753 544 750 560 c 0
 711 784 477 801 351 654 c 1
 361 510 351 245 370 139 c 0
 372 126 373 124 371 120 c 0
 349 67 143 8 143 8 c 0
 105 -8 69 -21 44 -21 c 0
 -16 -21 102 47 111 57 c 0
 160 108 156 133 156 390 c 0
 156 487 158 785 41 739 c 0
 29 734 22 732 17 732 c 0
 11 732 8 735 8 740 c 0
EndSplineSet
EndChar

StartChar: m.conl
Encoding: 65559 -1 97
Width: 1663
VWidth: 0
Flags: HW
LayerCount: 2
Fore
SplineSet
-93 745 m 0
 -93 771 21 895 97 895 c 0
 221 895 303 897 341 737 c 0
 345 720 343 722 355 733 c 0
 441 809 578 895 727 895 c 2
 728 895 l 2
 899 895 936 729 939 725 c 0
 944 719 1104 895 1322 895 c 2
 1324 895 l 2
 1442 895 1530 809 1544 672 c 0
 1546 651 1548 515 1548 431 c 0
 1548 390 1547 348 1547 293 c 0
 1547 219 1552 165 1582 161 c 0
 1590 160 1593 158 1593 153 c 0
 1593 127 1457 -26 1397 6 c 0
 1344 34 1346 182 1346 315 c 0
 1346 415 1347 474 1347 514 c 0
 1347 761 1100 812 965 671 c 2
 950 656 l 1
 950 560 l 2
 951 467 952 307 954 168 c 2
 955 100 l 1
 914 40 772 -31 747 -11 c 1
 749 68 l 2
 751 185 752 390 752 474 c 0
 752 569 749 570 742 593 c 0
 677 817 433 762 357 659 c 0
 355 657 352 237 371 136 c 0
 383 74 147 10 143 8 c 0
 92 -13 65 -21 43 -21 c 0
 -13 -21 105 50 111 57 c 0
 160 108 156 121 156 454 c 0
 156 669 100 739 16 739 c 0
 -71 739 -93 732 -93 745 c 0
EndSplineSet
EndChar

StartChar: n
Encoding: 110 110 98
Width: 1108
VWidth: 0
Flags: HW
LayerCount: 2
Fore
SplineSet
8 740 m 0
 8 775 147 895 226 895 c 0
 272 895 317 876 340 744 c 0
 342 732 344 722 344 721 c 0
 344 721 454 820 558 862 c 0
 612 884 668 896 720 896 c 0
 856 896 967 806 986 684 c 0
 990 659 993 531 993 429 c 0
 993 374 991 348 991 293 c 0
 991 272 986 166 1026 161 c 0
 1034 160 1038 158 1038 153 c 0
 1038 119 901 -9 856 1 c 0
 786 16 790 161 790 336 c 0
 790 446 791 483 791 520 c 0
 791 645 687 748 548 748 c 0
 435 748 397 694 382 675 c 0
 342 624 354 667 357 414 c 0
 360 120 375 129 371 120 c 0
 349 67 143 8 143 8 c 0
 105 -8 69 -21 44 -21 c 0
 -16 -21 102 47 111 57 c 0
 160 108 156 133 156 390 c 0
 156 487 158 785 41 739 c 0
 29 734 22 732 17 732 c 0
 11 732 8 735 8 740 c 0
EndSplineSet
EndChar

StartChar: n.conl
Encoding: 65560 -1 99
Width: 1108
VWidth: 0
Flags: HW
LayerCount: 2
Fore
SplineSet
-93 745 m 0
 -93 771 21 895 97 895 c 0
 256 895 308 879 345 719 c 1
 415 783 552 895 722 895 c 0
 860 895 967 803 986 684 c 0
 990 659 993 531 993 429 c 0
 993 374 991 348 991 293 c 0
 991 272 986 166 1026 161 c 0
 1034 160 1038 158 1038 153 c 0
 1038 119 901 -9 856 1 c 0
 786 16 790 161 790 336 c 0
 790 446 791 483 791 520 c 0
 791 738 512 804 410 704 c 0
 385 679 370 654 355 632 c 1
 356 570 l 2
 362 238 355 219 371 136 c 0
 383 74 147 10 143 8 c 0
 92 -13 65 -21 43 -21 c 0
 -13 -21 105 50 111 57 c 0
 160 108 156 121 156 454 c 0
 156 669 100 739 16 739 c 0
 -71 739 -93 732 -93 745 c 0
EndSplineSet
EndChar

StartChar: o
Encoding: 111 111 100
Width: 1112
VWidth: 0
Flags: HW
LayerCount: 2
Fore
SplineSet
81 389 m 0
 81 708 446 926 635 926 c 0
 887 926 1031 725 1031 506 c 0
 1031 393 988 221 754 68 c 0
 652 1 560 -31 469 -31 c 0
 265 -31 81 135 81 389 c 0
834 384 m 0
 834 567 706 782 461 782 c 0
 361 782 351 746 351 746 c 0
 305 684 278 598 278 512 c 0
 278 292 441 112 645 112 c 0
 754 112 761 149 761 149 c 0
 807 211 834 298 834 384 c 0
EndSplineSet
EndChar

StartChar: p
Encoding: 112 112 101
Width: 1205
VWidth: 0
Flags: HW
LayerCount: 2
Fore
SplineSet
1124 507 m 0
 1124 197 763 -31 550 -31 c 0
 435 -31 359 19 358 18 c 0
 358 18 357 10 357 -3 c 0
 357 -438 359 -448 385 -493 c 0
 388 -498 390 -502 390 -503 c 0
 390 -526 325 -552 283 -590 c 0
 177 -686 61 -738 6 -738 c 0
 -5 -738 -9 -736 -9 -730 c 0
 -9 -694 121 -678 150 -511 c 0
 157 -472 155 169 155 322 c 0
 155 345 181 795 41 739 c 0
 29 734 22 732 17 732 c 0
 11 732 8 735 8 740 c 0
 8 779 171 917 254 892 c 0
 309 876 337 800 346 705 c 0
 347 690 347 690 362 705 c 0
 476 815 638 926 821 926 c 0
 1025 926 1124 724 1124 507 c 0
926 387 m 0
 926 518 871 778 648 778 c 0
 472 778 399 665 355 589 c 1
 356 449 l 2
 357 372 357 272 357 227 c 2
 357 146 l 1
 544 274 449 145 683 115 c 0
 691 114 706 113 722 113 c 0
 787 113 835 130 841 136 c 0
 886 188 926 277 926 387 c 0
EndSplineSet
EndChar

StartChar: p.conl
Encoding: 65561 -1 102
Width: 1205
VWidth: 0
Flags: HW
LayerCount: 2
Fore
SplineSet
16 739 m 0
 -87 739 -93 732 -93 745 c 0
 -93 776 22 883 77 895 c 0
 77 895 210 905 262 870 c 0
 328 826 342 730 349 695 c 0
 350 692 351 693 365 706 c 0
 480 818 642 926 821 926 c 0
 1023 926 1123 724 1123 513 c 0
 1123 186 758 -31 551 -31 c 0
 474 -31 419 -12 358 19 c 1
 358 -144 l 2
 358 -378 355 -442 385 -494 c 0
 403 -525 330 -548 284 -590 c 0
 194 -672 72 -738 6 -738 c 0
 -5 -738 -9 -736 -9 -730 c 0
 -9 -694 121 -678 150 -511 c 0
 155 -481 155 348 155 366 c 0
 155 463 179 739 16 739 c 0
926 388 m 0
 926 516 871 778 648 778 c 0
 471 778 400 663 356 588 c 1
 358 145 l 1
 544 270 451 151 669 117 c 0
 687 114 706 112 724 112 c 0
 843 112 853 152 853 152 c 0
 894 206 926 287 926 388 c 0
EndSplineSet
EndChar

StartChar: q
Encoding: 113 113 103
Width: 1188
VWidth: 0
Flags: HW
LayerCount: 2
Fore
SplineSet
81 342 m 0
 81 676 438 895 631 895 c 0
 737 895 803 862 866 822 c 1
 957 873 1028 889 1069 889 c 0
 1079 889 1089 888 1089 880 c 0
 1089 850 1045 878 1037 757 c 0
 1036 742 1035 459 1035 183 c 0
 1035 -388 1030 -407 1062 -461 c 0
 1078 -488 1010 -522 995 -530 c 0
 933 -564 913 -626 764 -699 c 0
 695 -733 666 -738 641 -738 c 0
 631 -738 625 -732 632 -721 c 0
 666 -668 824 -643 829 -427 c 0
 830 -402 831 -257 831 -106 c 2
 831 169 l 1
 749 93 587 -31 426 -31 c 0
 241 -31 81 122 81 342 c 0
725 647 m 0
 707 647 636 752 453 752 c 0
 365 752 358 722 358 722 c 0
 307 654 279 563 279 466 c 0
 279 286 405 117 596 117 c 0
 689 117 763 158 831 265 c 1
 830 460 l 2
 829 643 829 680 826 688 c 0
 825 691 756 647 725 647 c 0
EndSplineSet
EndChar

StartChar: r
Encoding: 114 114 104
Width: 928
VWidth: 0
Flags: HW
LayerCount: 2
Fore
SplineSet
578 748 m 0
 488 748 408 694 354 591 c 1
 355 564 l 2
 362 317 350 207 379 135 c 0
 393 101 299 49 167 14 c 0
 118 1 81 -21 44 -21 c 0
 -16 -21 102 47 111 57 c 0
 160 108 156 133 156 390 c 0
 156 487 158 785 41 739 c 0
 29 734 22 732 17 732 c 0
 11 732 8 735 8 740 c 0
 8 775 167 918 255 892 c 0
 309 876 337 799 346 705 c 0
 348 689 347 689 359 700 c 0
 427 764 592 895 748 895 c 0
 851 895 887 787 962 787 c 0
 975 787 989 791 989 780 c 0
 989 751 860 643 789 643 c 0
 698 643 662 748 578 748 c 0
EndSplineSet
EndChar

StartChar: r.conl
Encoding: 65562 -1 105
Width: 928
VWidth: 0
Flags: HW
LayerCount: 2
Fore
SplineSet
-93 745 m 0
 -93 771 21 895 97 895 c 0
 231 895 312 893 346 709 c 0
 350 685 347 688 365 705 c 0
 432 767 594 895 747 895 c 0
 852 895 886 787 962 787 c 0
 975 787 989 791 989 780 c 0
 989 751 860 643 789 643 c 0
 698 643 661 748 578 748 c 0
 489 748 412 696 356 590 c 1
 357 446 l 2
 358 259 357 190 379 135 c 0
 390 108 325 56 178 17 c 0
 98 -4 84 -21 43 -21 c 0
 -13 -21 105 50 111 57 c 0
 160 108 156 121 156 454 c 0
 156 669 100 739 16 739 c 0
 -71 739 -93 732 -93 745 c 0
EndSplineSet
EndChar

StartChar: r.round
Encoding: 65563 -1 106
Width: 680
VWidth: 0
Flags: HW
LayerCount: 2
Fore
SplineSet
-92 663 m 0
 -92 696 120 933 326 933 c 0
 482 933 593 836 593 693 c 0
 593 433 315 232 191 154 c 1
 217 154 345 152 447 145 c 2
 499 141 l 2
 508 140 519 141 530 141 c 0
 655 141 670 195 689 176 c 0
 691 174 692 172 692 170 c 0
 692 142 616 71 550 31 c 0
 491 -4 442 -18 365 -18 c 0
 280 -18 254 -6 -5 -6 c 0
 -144 -6 -144 -13 -144 1 c 0
 -144 27 -55 118 20 149 c 0
 182 217 408 299 408 553 c 0
 408 672 307 775 166 775 c 0
 65 775 44 738 44 738 c 0
 -6 689 -63 655 -84 655 c 0
 -90 655 -92 658 -92 663 c 0
EndSplineSet
EndChar

StartChar: s
Encoding: 115 115 107
Width: 955
VWidth: 0
Flags: HW
LayerCount: 2
Fore
SplineSet
355 -30 m 0
 134 -30 55 144 55 149 c 0
 55 180 233 316 254 275 c 0
 275 233 365 113 531 113 c 0
 581 113 672 122 679 140 c 0
 686 157 690 176 690 196 c 0
 690 480 121 294 120 595 c 0
 120 737 357 926 602 926 c 0
 771 926 862 805 858 792 c 0
 846 753 715 661 673 661 c 0
 655 661 589 783 428 783 c 0
 396 783 353 778 329 772 c 0
 316 769 316 724 316 722 c 0
 316 438 887 628 887 323 c 0
 887 286 883 200 718 86 c 0
 601 5 489 -30 355 -30 c 0
EndSplineSet
EndChar

StartChar: t
Encoding: 116 116 108
Width: 853
VWidth: 0
Flags: HW
LayerCount: 2
Fore
SplineSet
-3 723 m 0
 -8 723 -9 727 -9 731 c 0
 -9 757 64 853 148 895 c 1
 220 896 l 1
 209 1046 187 1052 170 1056 c 0
 133 1064 287 1202 348 1202 c 0
 433 1202 410 944 420 896 c 1
 632 896 l 2
 850 896 850 898 850 888 c 0
 850 857 739 774 681 756 c 0
 654 747 464 745 422 740 c 1
 421 593 l 2
 420 349 416 376 416 322 c 0
 416 188 510 121 591 121 c 0
 730 121 774 237 828 237 c 0
 835 237 838 236 838 229 c 0
 838 192 654 -31 442 -31 c 0
 280 -31 214 97 214 201 c 0
 214 222 225 424 225 670 c 0
 225 684 225 695 225 701 c 2
 224 732 l 1
 111 727 l 2
 54 725 6 723 -3 723 c 0
EndSplineSet
EndChar

StartChar: t.conl
Encoding: 65564 -1 109
Width: 853
VWidth: 0
Flags: HW
LayerCount: 2
Fore
SplineSet
214 201 m 0
 214 237 225 463 225 653 c 0
 225 672 225 688 225 702 c 2
 224 743 l 1
 198 743 l 2
 -93 734 -93 736 -93 746 c 0
 -93 771 -6 861 75 895 c 1
 220 896 l 1
 209 1046 187 1052 170 1056 c 0
 133 1064 287 1202 348 1202 c 0
 433 1202 410 944 420 896 c 1
 632 896 l 2
 850 896 850 898 850 888 c 0
 850 861 754 778 671 752 c 1
 579 750 l 2
 529 749 473 748 455 748 c 2
 422 747 l 1
 421 596 l 2
 420 350 416 377 416 322 c 0
 416 188 510 121 591 121 c 0
 730 121 774 237 828 237 c 0
 835 237 838 236 838 229 c 0
 838 192 654 -31 442 -31 c 0
 280 -31 214 97 214 201 c 0
EndSplineSet
EndChar

StartChar: t.conr
Encoding: 65565 -1 110
Width: 828
VWidth: 0
Flags: HW
LayerCount: 2
Fore
SplineSet
225 672 m 0
 225 698 225 700 224 727 c 1
 69 724 l 2
 -7 722 -9 720 -9 731 c 0
 -9 757 64 853 148 895 c 1
 220 896 l 1
 209 1046 187 1052 170 1056 c 0
 133 1064 287 1202 348 1202 c 0
 433 1202 410 944 420 896 c 1
 668 896 l 2
 921 896 920 898 920 887 c 0
 920 857 828 769 753 738 c 1
 721 737 l 2
 649 735 497 733 422 730 c 1
 421 588 l 2
 420 376 416 375 416 322 c 0
 416 188 510 121 591 121 c 0
 730 121 774 237 828 237 c 0
 835 237 838 236 838 229 c 0
 838 192 654 -31 442 -31 c 0
 280 -31 214 97 214 201 c 0
 214 222 225 425 225 672 c 0
EndSplineSet
EndChar

StartChar: t.conb
Encoding: 65566 -1 111
Width: 828
VWidth: 0
Flags: HW
LayerCount: 2
Fore
SplineSet
69 737 m 2
 -82 737 -92 734 -92 745 c 0
 -92 775 1 864 70 893 c 0
 74 895 84 895 147 896 c 2
 220 896 l 1
 209 1046 187 1052 170 1056 c 0
 133 1064 287 1202 348 1202 c 0
 433 1202 410 944 420 896 c 1
 667 896 l 2
 921 896 920 899 920 888 c 0
 920 851 802 751 753 738 c 0
 749 737 699 737 585 737 c 2
 422 737 l 1
 421 591 l 2
 420 349 416 376 416 322 c 0
 416 188 510 121 591 121 c 0
 730 121 774 237 828 237 c 0
 835 237 838 236 838 229 c 0
 838 192 654 -31 442 -31 c 0
 280 -31 214 97 214 201 c 0
 214 235 225 466 225 654 c 0
 225 673 225 689 225 701 c 2
 224 737 l 1
 69 737 l 2
EndSplineSet
EndChar

StartChar: uniFB06
Encoding: 64262 64262 112
Width: 1782
VWidth: 0
Flags: HW
LayerCount: 2
Fore
SplineSet
543 923 m 1
 541 935 540 942 540 986 c 0
 540 1248 878 1464 1092 1464 c 0
 1293 1464 1441 1319 1464 1065 c 0
 1466 1039 1471 931 1471 898 c 2
 1471 896 l 1
 1670 896 l 2
 1872 896 1885 904 1873 877 c 0
 1851 829 1741 742 1704 737 c 0
 1688 735 1557 734 1498 732 c 2
 1471 731 l 1
 1470 679 l 2
 1469 593 1466 458 1466 362 c 0
 1466 306 1466 232 1533 165 c 0
 1604 93 1717 97 1780 161 c 0
 1810 192 1895 263 1895 230 c 0
 1895 198 1727 -31 1485 -31 c 0
 1377 -31 1293 41 1272 158 c 0
 1270 171 1269 199 1269 247 c 0
 1269 331 1273 539 1273 664 c 0
 1273 671 1273 676 1273 681 c 2
 1273 727 l 1
 1169 725 l 2
 1122 724 1081 723 1067 723 c 0
 1054 723 1053 732 1065 754 c 0
 1079 779 1136 856 1214 895 c 1
 1269 896 l 1
 1252 1238 1055 1320 913 1320 c 0
 865 1320 825 1310 806 1301 c 0
 787 1293 736 1212 736 1110 c 0
 736 942 859 805 859 796 c 0
 859 762 717 661 673 661 c 0
 655 661 589 783 428 783 c 0
 396 783 353 778 329 772 c 0
 316 769 316 724 316 722 c 0
 316 453 830 609 883 364 c 0
 903 271 851 177 718 86 c 0
 601 5 489 -30 355 -30 c 0
 134 -30 55 144 55 149 c 0
 55 180 233 316 254 275 c 0
 275 233 365 113 531 113 c 0
 581 113 672 122 679 140 c 0
 686 157 690 176 690 196 c 0
 690 480 121 294 120 595 c 0
 120 726 310 890 543 923 c 1
EndSplineSet
EndChar

StartChar: v
Encoding: 118 118 113
Width: 1136
VWidth: 0
Flags: HW
LayerCount: 2
Fore
SplineSet
18 722 m 0
 18 756 126 894 202 895 c 2
 203 895 l 2
 258 895 310 840 384 707 c 0
 563 384 604 171 608 171 c 0
 608 171 845 483 845 693 c 0
 845 749 825 791 777 775 c 0
 760 769 740 768 750 789 c 0
 764 821 878 926 963 926 c 0
 997 926 1048 910 1048 804 c 0
 1048 484 599 -32 468 -32 c 0
 435 -32 446 110 273 440 c 0
 189 600 110 737 33 717 c 0
 22 714 18 717 18 722 c 0
EndSplineSet
EndChar

StartChar: v.conl
Encoding: 65567 -1 114
Width: 1136
VWidth: 0
Flags: HW
LayerCount: 2
Fore
SplineSet
-92 745 m 0
 -92 765 12 897 109 897 c 0
 223 897 266 893 346 771 c 0
 511 519 608 171 608 171 c 0
 608 171 845 483 845 693 c 0
 845 749 825 791 777 775 c 0
 760 769 740 768 750 789 c 0
 764 821 878 926 963 926 c 0
 997 926 1048 910 1048 804 c 0
 1048 484 599 -32 468 -32 c 0
 437 -32 425 195 204 564 c 0
 108 724 90 708 -72 735 c 0
 -88 738 -92 737 -92 745 c 0
EndSplineSet
EndChar

StartChar: w
Encoding: 119 119 115
Width: 1723
VWidth: 0
Flags: HW
LayerCount: 2
Fore
SplineSet
682 726 m 0
 682 762 799 895 857 895 c 0
 917 895 970 775 1006 691 c 0
 1181 283 1189 160 1198 161 c 0
 1201 161 1437 468 1437 690 c 0
 1437 739 1423 793 1368 775 c 0
 1342 766 1333 772 1342 790 c 0
 1357 819 1469 926 1553 926 c 0
 1624 926 1641 866 1641 802 c 0
 1641 451 1180 -32 1052 -32 c 0
 1041 -32 1041 -14 997 119 c 0
 975 186 936 292 934 293 c 0
 934 293 613 -33 513 -33 c 0
 499 -33 506 -33 469 62 c 0
 412 210 166 756 36 717 c 0
 25 714 19 716 19 724 c 0
 19 750 143 935 247 885 c 0
 369 826 573 400 653 168 c 0
 659 151 659 152 676 137 c 1
 704 165 l 2
 813 276 892 401 892 401 c 0
 892 401 787 687 715 717 c 0
 701 723 682 710 682 726 c 0
EndSplineSet
EndChar

StartChar: w.conl
Encoding: 65568 -1 116
Width: 1723
VWidth: 0
Flags: HW
LayerCount: 2
Fore
SplineSet
682 726 m 0
 682 762 799 895 857 895 c 0
 917 895 970 775 1006 691 c 0
 1181 283 1189 160 1198 161 c 0
 1201 161 1437 468 1437 690 c 0
 1437 739 1423 793 1368 775 c 0
 1342 766 1333 772 1342 790 c 0
 1357 819 1469 926 1553 926 c 0
 1624 926 1641 866 1641 802 c 0
 1641 451 1180 -32 1052 -32 c 0
 1041 -32 1041 -14 997 119 c 0
 975 186 936 292 934 293 c 0
 934 293 613 -33 513 -33 c 0
 489 -33 485 72 342 345 c 0
 121 766 72 707 -34 728 c 0
 -92 739 -92 737 -92 745 c 0
 -92 767 16 897 105 897 c 0
 260 897 307 894 496 532 c 0
 572 386 625 249 658 152 c 1
 676 137 l 1
 704 165 l 2
 813 276 892 401 892 401 c 0
 892 401 787 687 715 717 c 0
 701 723 682 710 682 726 c 0
EndSplineSet
EndChar

StartChar: y
Encoding: 121 121 117
Width: 1136
VWidth: 0
Flags: HW
LayerCount: 2
Fore
SplineSet
874 683 m 0
 874 729 863 777 817 777 c 0
 794 777 750 755 763 785 c 0
 776 817 895 926 983 926 c 0
 1038 926 1075 894 1075 792 c 0
 1075 543 831 -22 423 -453 c 0
 258 -628 59 -717 -32 -717 c 0
 -86 -717 -131 -686 -131 -676 c 0
 -131 -644 8 -542 55 -542 c 0
 75 -542 85 -578 163 -584 c 1
 190 -558 l 2
 343 -404 581 -62 581 -48 c 0
 581 -48 494 202 280 508 c 0
 234 574 135 719 55 719 c 0
 36 719 16 706 24 733 c 0
 30 754 136 917 233 892 c 0
 293 877 356 813 482 623 c 0
 591 459 657 323 715 187 c 1
 837 429 874 584 874 683 c 0
EndSplineSet
EndChar

StartChar: y.conl
Encoding: 65569 -1 118
Width: 1136
VWidth: 0
Flags: HW
LayerCount: 2
Fore
SplineSet
874 683 m 0
 874 729 863 777 817 777 c 0
 794 777 750 755 763 785 c 0
 776 817 895 926 983 926 c 0
 1038 926 1075 894 1075 792 c 0
 1075 543 831 -22 423 -453 c 0
 258 -628 59 -717 -32 -717 c 0
 -86 -717 -131 -686 -131 -676 c 0
 -131 -644 8 -542 55 -542 c 0
 75 -542 85 -578 163 -584 c 1
 190 -558 l 2
 343 -404 581 -62 581 -48 c 0
 581 -18 290 604 94 702 c 0
 35 731 -92 726 -92 745 c 0
 -92 764 9 897 110 897 c 0
 244 897 295 893 440 684 c 0
 550 525 631 382 703 215 c 2
 715 188 l 1
 837 429 874 584 874 683 c 0
EndSplineSet
EndChar

StartChar: z
Encoding: 122 122 119
Width: 1088
VWidth: 0
Flags: HW
LayerCount: 2
Fore
SplineSet
732 895 m 2
 970 895 921 903 969 903 c 0
 1007 903 1016 900 1016 887 c 0
 1016 873 988 840 946 807 c 0
 938 801 870 725 656 486 c 2
 354 149 l 1
 870 169 914 139 984 186 c 0
 1026 214 1053 223 1053 206 c 0
 1053 174 898 14 750 1 c 0
 744 0 729 0 700 -0 c 0
 625 0 512 1 324 1 c 0
 313 1 303 1 293 1 c 2
 150 1 l 1
 127 -3 102 -8 74 -8 c 0
 45 -8 29 -5 29 7 c 0
 29 19 52 46 86 73 c 0
 86 73 689 740 687 742 c 0
 687 742 685 742 682 742 c 0
 681 742 101 735 101 735 c 0
 87 733 35 699 35 722 c 0
 35 753 161 875 253 893 c 0
 263 895 267 896 319 896 c 0
 397 896 474 895 709 895 c 2
 732 895 l 2
EndSplineSet
EndChar

StartChar: z.conl
Encoding: 65570 -1 120
Width: 1088
VWidth: 0
Flags: HW
LayerCount: 2
Fore
SplineSet
-74 737 m 0
 -86 737 -93 736 -93 746 c 0
 -93 771 -6 861 75 895 c 1
 492 896 l 2
 984 897 931 903 970 903 c 0
 1007 903 1016 900 1016 887 c 0
 1016 873 988 840 946 807 c 0
 938 801 870 725 656 486 c 2
 354 149 l 1
 870 169 914 139 984 186 c 0
 1026 214 1053 223 1053 206 c 0
 1053 174 898 14 750 1 c 0
 744 0 729 0 700 -0 c 0
 625 0 512 1 324 1 c 0
 313 1 303 1 293 1 c 2
 150 1 l 1
 127 -3 102 -8 74 -8 c 0
 45 -8 29 -5 29 7 c 0
 29 19 52 46 86 73 c 0
 95 80 158 150 390 409 c 2
 691 745 l 1
 629 744 l 2
 595 744 508 743 434 742 c 2
 108 739 l 2
 26 738 -45 737 -74 737 c 0
EndSplineSet
EndChar

StartChar: interpunctdot
Encoding: 65571 -1 121
Width: 0
VWidth: 0
Flags: HW
LayerCount: 2
Fore
SplineSet
-1 140 m 0
 18 140 19 137 79 77 c 0
 141 15 140 17 140 -0 c 0
 140 -17 141 -16 79 -78 c 0
 16 -141 17 -141 0 -141 c 0
 -17 -141 -16 -141 -79 -78 c 0
 -141 -16 -140 -17 -140 -0 c 0
 -140 17 -141 15 -80 76 c 0
 -17 139 -17 140 -1 140 c 0
EndSplineSet
EndChar

StartChar: interpunctcomma
Encoding: 65572 -1 122
Width: 0
VWidth: 0
Flags: HW
LayerCount: 2
Fore
SplineSet
-145 116 m 0
 -145 148 -7 250 40 250 c 0
 57 250 145 185 145 62 c 0
 145 -125 -99 -251 -135 -251 c 0
 -140 -251 -145 -250 -145 -244 c 0
 -145 -203 -53 -197 -53 -63 c 0
 -53 56 -145 106 -145 116 c 0
EndSplineSet
EndChar

StartChar: interpunctinvcomma
Encoding: 65573 -1 123
Width: 0
VWidth: 0
Flags: HW
LayerCount: 2
Fore
SplineSet
-145 -64 m 0
 -145 126 99 250 134 250 c 0
 141 250 145 247 145 242 c 0
 145 201 53 196 53 62 c 0
 53 -57 145 -107 145 -117 c 0
 145 -148 9 -251 -41 -251 c 0
 -58 -251 -145 -183 -145 -64 c 0
EndSplineSet
EndChar

StartChar: parenleft
Encoding: 40 40 124
Width: 635
VWidth: 0
Flags: HW
LayerCount: 2
Fore
SplineSet
467 -430 m 0
 432 -430 160 -198 160 551 c 0
 160 756 186 1258 430 1509 c 0
 497 1578 602 1652 642 1652 c 0
 648 1652 654 1650 654 1644 c 0
 654 1595 425 1549 367 901 c 0
 360 824 357 747 357 672 c 0
 357 350 430 -131 647 -286 c 0
 652 -289 653 -292 653 -295 c 0
 653 -329 512 -430 467 -430 c 0
EndSplineSet
EndChar

StartChar: parenright
Encoding: 41 41 125
Width: 635
VWidth: 0
Flags: HW
LayerCount: 2
Fore
SplineSet
-19 1517 m 0
 -19 1551 123 1652 166 1652 c 0
 173 1652 180 1648 192 1638 c 0
 446 1428 475 865 475 685 c 0
 475 457 449 -43 198 -294 c 0
 116 -376 26 -431 -9 -431 c 0
 -17 -431 -19 -426 -19 -423 c 0
 -19 -373 209 -327 267 321 c 0
 274 398 278 475 278 550 c 0
 278 872 205 1352 -12 1507 c 0
 -17 1510 -19 1514 -19 1517 c 0
EndSplineSet
EndChar

StartChar: less
Encoding: 60 60 126
Width: 1018
VWidth: 0
Flags: HW
LayerCount: 2
Fore
SplineSet
883 994 m 0
 888 994 891 991 891 984 c 0
 891 949 830 852 780 810 c 0
 765 797 359 539 350 531 c 0
 348 529 364 498 366 494 c 0
 369 487 889 44 890 40 c 0
 896 19 766 -48 688 -48 c 0
 681 -48 675 -47 673 -46 c 0
 669 -44 149 401 144 407 c 0
 142 409 141 411 141 414 c 0
 141 458 216 561 252 590 c 0
 252 590 871 994 883 994 c 0
EndSplineSet
EndChar

StartChar: greater
Encoding: 62 62 127
Width: 1018
VWidth: 0
Flags: HW
LayerCount: 2
Fore
SplineSet
330 943 m 0
 337 943 344 942 346 941 c 0
 352 939 822 552 825 548 c 0
 827 545 827 543 827 539 c 0
 827 501 772 399 731 359 c 0
 731 359 148 -104 136 -104 c 0
 131 -104 128 -99 128 -91 c 0
 128 -56 174 35 217 81 c 0
 225 90 271 126 429 250 c 2
 631 408 l 1
 616 430 612 436 599 467 c 1
 364 660 l 2
 225 774 129 853 129 855 c 0
 123 878 254 943 330 943 c 0
EndSplineSet
EndChar

StartChar: hyphen
Encoding: 45 45 128
Width: 760
VWidth: 0
Flags: HW
LayerCount: 2
Fore
SplineSet
485 527 m 2
 750 527 750 530 750 519 c 0
 750 482 632 383 583 370 c 0
 580 369 373 368 210 368 c 0
 10 368 10 364 10 376 c 0
 10 406 115 504 174 524 c 0
 181 526 194 527 462 527 c 2
 485 527 l 2
EndSplineSet
EndChar

StartChar: endash
Encoding: 8211 8211 129
Width: 896
VWidth: 0
Flags: HW
LayerCount: 2
Fore
SplineSet
567 527 m 2
 988 527 988 530 988 519 c 0
 988 482 870 383 821 370 c 0
 818 369 484 368 222 368 c 0
 -92 368 -92 363 -92 376 c 0
 -92 406 13 504 72 524 c 0
 79 526 97 527 530 527 c 2
 567 527 l 2
EndSplineSet
EndChar

StartChar: emdash
Encoding: 8212 8212 130
Width: 1343
VWidth: 0
Flags: HW
LayerCount: 2
Fore
SplineSet
375 368 m 0
 -92 368 -92 364 -92 376 c 0
 -92 406 13 504 72 524 c 0
 79 526 104 527 754 527 c 2
 810 527 l 2
 1156 527 1431 526 1432 526 c 0
 1435 525 1436 523 1436 519 c 0
 1436 482 1318 383 1269 370 c 0
 1266 369 767 368 375 368 c 0
EndSplineSet
EndChar

StartChar: quotesingle
Encoding: 39 39 131
Width: 476
VWidth: 0
Flags: HW
LayerCount: 2
Fore
SplineSet
134 1406 m 1
 166 1460 292 1523 329 1523 c 0
 342 1523 342 1517 342 1511 c 0
 342 1483 305 1195 299 1172 c 0
 280 1103 209 997 182 997 c 0
 172 997 151 1164 134 1406 c 1
EndSplineSet
EndChar

StartChar: quotedbl
Encoding: 34 34 132
Width: 713
VWidth: 0
Flags: HW
LayerCount: 2
Fore
SplineSet
597 1530 m 0
 605 1530 607 1529 610 1526 c 1
 601 1421 576 1187 571 1169 c 0
 552 1102 481 997 455 997 c 0
 449 997 447 1000 445 1019 c 0
 400 1421 412 1403 428 1422 c 0
 465 1466 564 1530 597 1530 c 0
105 1398 m 1
 135 1457 258 1530 289 1530 c 0
 300 1530 302 1527 302 1522 c 0
 302 1495 269 1189 265 1173 c 0
 248 1107 175 997 148 997 c 2
 146 997 l 2
 138 997 127 1099 107 1368 c 2
 105 1398 l 1
EndSplineSet
EndChar

StartChar: exclam
Encoding: 33 33 133
Width: 635
VWidth: 0
Flags: HW
LayerCount: 2
Fore
SplineSet
438 119 m 0
 438 94 432 90 390 48 c 0
 348 6 342 -2 317 -2 c 0
 294 -2 290 2 245 48 c 0
 201 92 196 95 196 119 c 0
 196 144 204 147 245 189 c 0
 316 261 322 258 390 189 c 0
 434 145 438 143 438 119 c 0
231 1531 m 1
 261 1591 385 1663 417 1663 c 0
 424 1663 426 1661 429 1659 c 1
 428 1631 l 2
 401 727 396 536 390 516 c 0
 371 452 302 344 274 344 c 0
 262 344 266 356 259 570 c 2
 256 647 l 2
 249 847 234 1355 232 1486 c 2
 231 1531 l 1
EndSplineSet
EndChar

StartChar: question
Encoding: 63 63 134
Width: 1061
VWidth: 0
Flags: HW
LayerCount: 2
Fore
SplineSet
652 119 m 0
 652 96 647 92 602 47 c 0
 565 11 555 -3 531 -3 c 0
 501 -3 409 82 409 119 c 0
 409 142 414 145 459 190 c 0
 529 259 534 257 602 190 c 0
 644 149 652 144 652 119 c 0
809 1227 m 0
 809 1376 676 1519 477 1519 c 0
 393 1519 315 1495 304 1485 c 0
 290 1473 252 1411 252 1335 c 0
 252 1243 311 1172 387 1146 c 0
 402 1141 402 1140 401 1132 c 0
 396 1103 255 985 200 1004 c 0
 119 1032 55 1105 55 1207 c 0
 55 1439 390 1663 653 1663 c 0
 845 1663 1006 1538 1006 1350 c 0
 1006 1051 597 911 577 637 c 0
 566 492 709 476 712 470 c 0
 723 446 582 331 525 331 c 0
 489 331 379 369 379 495 c 0
 379 802 809 940 809 1227 c 0
EndSplineSet
EndChar

StartChar: uni204A
Encoding: 8266 8266 135
Width: 941
VWidth: 0
Flags: HW
LayerCount: 2
Fore
SplineSet
-6 435 m 0
 -21 435 -20 441 -20 465 c 0
 -20 682 275 857 396 878 c 0
 435 885 504 884 598 884 c 0
 844 884 852 884 850 873 c 0
 848 860 844 323 844 319 c 0
 844 53 858 83 858 54 c 0
 858 25 789 14 719 -66 c 0
 616 -184 459 -246 411 -246 c 0
 401 -246 394 -245 394 -238 c 0
 394 -227 416 -207 451 -187 c 0
 475 -173 566 -79 577 -61 c 0
 647 56 637 113 644 398 c 0
 648 575 652 694 652 707 c 2
 652 716 l 1
 515 719 l 2
 400 721 331 724 285 724 c 0
 226 724 220 719 215 719 c 0
 215 719 186 670 186 588 c 0
 186 576 187 565 188 549 c 1
 150 494 31 435 -6 435 c 0
EndSplineSet
EndChar

StartChar: uni200C
Encoding: 8204 8204 206
Width: 0
VWidth: 0
Flags: HW
LayerCount: 2
Fore
SplineSet
-42 -0 m 1
 -42 1980 l 1
 44 1980 l 1
 44 -0 l 1
 -42 -0 l 1
EndSplineSet
EndChar

StartChar: uni200D
Encoding: 8205 8205 207
Width: 0
VWidth: 0
Flags: HW
LayerCount: 2
Fore
SplineSet
-128 2146 m 0
 -128 2146 -99 2117 -64 2082 c 2
 0 2019 l 1
 128 2147 l 1
 189 2086 l 1
 61 1958 l 1
 189 1830 l 1
 128 1769 l 1
 44 1854 l 1
 44 -0 l 1
 -42 -0 l 1
 -42 1855 l 1
 -128 1769 l 1
 -189 1830 l 1
 -61 1958 l 1
 -189 2086 l 1
 -159 2116 l 2
 -142 2133 -128 2146 -128 2146 c 0
EndSplineSet
EndChar

StartChar: uniE02C
Encoding: 57388 57388 214
Width: 615
VWidth: 0
Flags: HW
LayerCount: 2
Fore
SplineSet
309 882 m 0
 393 882 424 773 431 583 c 0
 437 437 433 -433 439 -471 c 0
 447 -518 462 -530 462 -536 c 0
 462 -564 372 -607 315 -657 c 0
 200 -757 93 -820 45 -820 c 0
 37 -820 32 -817 32 -812 c 0
 32 -770 192 -730 224 -562 c 0
 231 -526 233 390 233 403 c 0
 233 435 239 771 125 728 c 0
 3 683 197 882 309 882 c 0
EndSplineSet
EndChar

StartChar: uniE02C.conl
Encoding: 65594 -1 215
Width: 615
VWidth: 0
Flags: HW
LayerCount: 2
Fore
SplineSet
84 -820 m 0
 73 -820 72 -815 72 -812 c 0
 72 -773 201 -746 226 -583 c 0
 230 -560 233 412 233 421 c 0
 233 679 182 725 85 730 c 0
 -99 739 -99 739 -99 747 c 0
 -99 775 16 868 80 882 c 0
 86 883 103 883 207 883 c 0
 317 883 419 899 431 583 c 0
 437 432 433 -461 440 -505 c 0
 445 -537 453 -549 463 -569 c 1
 438 -617 383 -633 326 -681 c 0
 235 -757 132 -820 84 -820 c 0
EndSplineSet
EndChar

StartChar: uniE02D
Encoding: 57389 57389 216
Width: 615
VWidth: 0
Flags: HW
LayerCount: 2
Fore
SplineSet
86 1546 m 0
 86 1577 220 1701 311 1701 c 0
 383 1701 419 1622 430 1435 c 0
 440 1275 431 259 444 154 c 0
 445 143 447 132 447 130 c 0
 447 89 171 -27 122 -27 c 0
 88 -27 118 4 158 28 c 0
 198 52 214 102 224 142 c 1
 225 261 l 2
 233 1127 234 1175 234 1223 c 0
 234 1323 232 1589 118 1544 c 0
 97 1536 86 1537 86 1546 c 0
EndSplineSet
EndChar

StartChar: uniE02E
Encoding: 57390 57390 217
Width: 615
VWidth: 0
Flags: HW
LayerCount: 2
Fore
SplineSet
85 729 m 0
 85 760 217 882 301 882 c 0
 376 882 412 789 426 692 c 0
 443 575 425 270 447 135 c 1
 409 69 160 -23 124 -23 c 0
 86 -23 122 10 163 35 c 0
 238 80 233 170 233 479 c 0
 233 603 197 756 113 726 c 0
 95 719 85 720 85 729 c 0
EndSplineSet
EndChar

StartChar: uniE02E.conl
Encoding: 65595 -1 218
Width: 615
VWidth: 0
Flags: HW
LayerCount: 2
Fore
SplineSet
447 135 m 1
 409 69 160 -23 124 -23 c 0
 86 -23 122 10 163 35 c 0
 236 79 232 165 232 455 c 0
 232 482 240 645 161 707 c 0
 101 755 -99 722 -99 747 c 0
 -99 774 13 866 80 882 c 0
 81 882 108 882 145 882 c 0
 157 882 170 882 184 882 c 2
 286 882 l 1
 448 837 432 656 435 372 c 0
 437 183 440 182 447 135 c 1
EndSplineSet
EndChar

StartChar: uniE02E.conr
Encoding: 65596 -1 219
Width: 615
VWidth: 0
Flags: HW
LayerCount: 2
Fore
SplineSet
85 729 m 0
 85 760 217 882 301 882 c 0
 376 882 412 789 426 692 c 0
 443 575 427 246 445 147 c 0
 447 133 447 131 437 121 c 0
 432 115 431 114 434 115 c 0
 472 124 644 143 696 143 c 0
 709 143 713 141 713 135 c 0
 713 114 602 0 509 -0 c 0
 491 0 464 1 435 1 c 0
 247 1 153 -23 122 -23 c 0
 88 -23 126 13 161 34 c 0
 238 80 233 165 233 479 c 0
 233 603 197 756 113 726 c 0
 95 719 85 720 85 729 c 0
EndSplineSet
EndChar

StartChar: uniE02E.conb
Encoding: 65597 -1 220
Width: 615
VWidth: 0
Flags: HW
LayerCount: 2
Fore
SplineSet
435 1 m 0
 247 1 153 -23 122 -23 c 0
 88 -23 126 13 161 34 c 0
 239 81 232 172 232 455 c 0
 232 482 240 645 161 707 c 0
 101 755 -99 722 -99 747 c 0
 -99 774 13 866 80 882 c 0
 81 882 108 882 145 882 c 0
 157 882 170 882 184 882 c 2
 286 882 l 1
 448 837 432 656 435 372 c 0
 438 121 452 137 437 121 c 0
 432 115 431 114 434 115 c 0
 472 124 644 143 696 143 c 0
 709 143 713 141 713 135 c 0
 713 114 602 0 509 -0 c 0
 491 0 464 1 435 1 c 0
EndSplineSet
EndChar

StartChar: uniE02F
Encoding: 57391 57391 221
Width: 615
VWidth: 0
Flags: HW
LayerCount: 2
Fore
SplineSet
86 1546 m 0
 86 1579 224 1702 309 1702 c 0
 455 1702 434 1371 435 991 c 0
 439 -573 428 -519 461 -573 c 0
 464 -578 465 -579 465 -581 c 0
 465 -601 402 -639 358 -658 c 0
 318 -676 151 -832 86 -832 c 0
 77 -832 76 -827 76 -824 c 0
 76 -778 194 -758 222 -603 c 0
 227 -575 234 1177 234 1181 c 0
 234 1201 247 1592 126 1547 c 0
 116 1543 86 1531 86 1546 c 0
EndSplineSet
EndChar

StartChar: uniE036
Encoding: 57398 57398 286
Width: 1212
VWidth: 0
Flags: HW
LayerCount: 2
Fore
SplineSet
67 723 m 0
 67 753 188 882 267 882 c 0
 319 882 386 836 382 720 c 0
 377 579 249 378 425 209 c 0
 470 166 527 143 588 143 c 0
 732 143 803 223 881 374 c 1
 879 600 882 669 866 733 c 0
 864 742 863 747 863 751 c 0
 863 785 1035 876 1119 876 c 0
 1166 876 1107 839 1100 821 c 0
 1085 784 1083 784 1083 321 c 0
 1083 229 1084 147 1144 147 c 0
 1152 147 1155 143 1155 138 c 0
 1155 107 1025 -6 970 -6 c 0
 891 -6 884 94 882 243 c 1
 780 133 607 0 423 -0 c 0
 239 0 129 156 129 310 c 0
 129 419 212 568 179 660 c 0
 166 697 136 723 109 723 c 0
 94 723 67 706 67 723 c 0
EndSplineSet
EndChar

StartChar: uniE036.conl
Encoding: 65662 -1 287
Width: 1212
VWidth: 0
Flags: HW
LayerCount: 2
Fore
SplineSet
-99 747 m 0
 -99 766 10 886 124 886 c 0
 232 886 387 895 382 722 c 0
 379 615 332 537 332 429 c 0
 332 282 439 143 588 143 c 0
 732 143 803 223 881 374 c 1
 879 600 882 669 866 733 c 0
 864 742 863 747 863 751 c 0
 863 785 1035 876 1119 876 c 0
 1166 876 1107 839 1100 821 c 0
 1085 784 1083 784 1083 321 c 0
 1083 229 1084 147 1144 147 c 0
 1152 147 1155 143 1155 138 c 0
 1155 107 1025 -6 970 -6 c 0
 891 -6 884 94 882 243 c 1
 780 133 607 0 423 -0 c 0
 240 0 130 155 130 310 c 0
 130 455 294 717 62 721 c 0
 9 722 -99 736 -99 747 c 0
EndSplineSet
EndChar

StartChar: uniE036.dec
Encoding: 65663 -1 288
Width: 1515
VWidth: 0
Flags: HW
LayerCount: 2
Fore
SplineSet
62 856 m 0
 62 884 183 1015 263 1015 c 0
 335 1015 384 926 384 831 c 0
 384 673 288 532 357 340 c 0
 402 217 491 143 597 143 c 0
 634 143 716 152 761 194 c 0
 800 232 856 307 906 436 c 1
 906 466 906 497 906 528 c 0
 906 533 907 786 913 803 c 0
 923 831 980 889 1033 924 c 0
 1048 934 1058 939 1155 987 c 2
 1335 1077 l 1
 1420 1122 1445 1119 1445 1107 c 0
 1445 1084 1413 1085 1400 1034 c 0
 1383 967 1376 851 1376 518 c 0
 1376 233 1385 160 1424 160 c 0
 1434 160 1435 151 1427 135 c 0
 1400 82 1298 -7 1261 -7 c 0
 1200 -7 1193 143 1191 170 c 1
 1125 104 l 2
 1050 29 1013 -6 985 -6 c 0
 924 -6 914 151 910 263 c 1
 800 134 621 0 429 0 c 0
 230 0 129 196 129 364 c 0
 129 477 188 603 188 712 c 0
 188 785 146 874 84 851 c 0
 73 847 62 846 62 856 c 0
1096 881 m 1
 1098 859 1099 699 1099 654 c 0
 1099 536 1096 453 1096 382 c 0
 1096 260 1106 213 1123 179 c 1
 1188 244 l 1
 1187 310 l 2
 1186 370 1184 515 1184 627 c 0
 1184 716 1183 883 1204 939 c 0
 1205 941 1205 943 1205 943 c 2
 1205 943 1187 932 1164 919 c 2
 1096 881 l 1
EndSplineSet
EndChar

StartChar: uniE03E
Encoding: 57406 57406 289
Width: 1312
VWidth: 0
Flags: HW
LayerCount: 2
Fore
SplineSet
900 374 m 1
 897 634 901 669 884 738 c 1
 846 736 791 734 730 732 c 1
 727 651 l 2
 723 531 749 501 619 406 c 0
 588 383 559 369 546 369 c 0
 534 369 531 370 526 726 c 1
 504 726 471 725 431 725 c 1
 424 717 200 545 308 323 c 0
 349 239 445 144 567 144 c 2
 569 144 l 2
 738 145 821 248 900 374 c 1
19 799 m 0
 19 880 172 986 207 986 c 0
 228 986 205 962 205 940 c 0
 205 911 231 888 252 884 c 0
 265 882 477 876 612 876 c 0
 1184 876 1156 889 1190 906 c 0
 1219 920 1252 933 1252 916 c 0
 1252 892 1181 830 1111 795 c 1
 1106 771 1102 790 1102 321 c 0
 1102 229 1102 147 1162 147 c 0
 1170 147 1174 143 1174 138 c 0
 1174 107 1044 -6 989 -6 c 0
 900 -6 903 126 901 262 c 1
 811 165 618 -1 392 -1 c 0
 238 -1 81 149 81 317 c 0
 81 480 241 651 349 725 c 1
 335 725 320 725 306 725 c 0
 112 725 19 708 19 799 c 0
EndSplineSet
EndChar

StartChar: uniE024.lig_harma
Encoding: 65664 -1 290
Width: 817
VWidth: 0
Flags: HW
LayerCount: 2
Fore
SplineSet
479 -31 m 0
 303 -31 107 100 107 337 c 0
 107 489 191 668 359 866 c 0
 591 1140 1222 1676 1810 1691 c 0
 1824 1691 1825 1691 1827 1691 c 0
 1831 1691 1838 1689 1838 1683 c 0
 1838 1657 1755 1564 1671 1530 c 1
 1631 1529 l 2
 955 1514 304 844 304 461 c 0
 304 185 597 62 732 130 c 0
 777 153 908 303 918 448 c 0
 923 516 1092 630 1104 603 c 0
 1108 595 1109 463 981 293 c 0
 871 146 646 -31 479 -31 c 0
EndSplineSet
EndChar

StartChar: uniE067
Encoding: 57447 57447 291
Width: 767
VWidth: 0
Flags: HW
LayerCount: 2
Fore
SplineSet
215 1463 m 0
 265 1463 314 1432 341 1258 c 1
 537 1384 596 1476 633 1452 c 1
 632 1007 l 2
 632 921 632 824 632 729 c 0
 632 553 632 380 632 279 c 2
 633 -5 l 1
 582 -110 467 -146 385 -214 c 0
 269 -310 174 -472 161 -486 c 0
 121 -529 21 -584 -17 -584 c 0
 -26 -584 -29 -582 -29 -576 c 0
 -29 -574 0 -492 102 -387 c 2
 124 -365 l 1
 156 -266 174 -107 174 574 c 0
 174 1102 153 1257 82 1291 c 0
 45 1309 -10 1263 7 1305 c 0
 25 1348 135 1463 215 1463 c 0
365 470 m 0
 365 -47 344 -176 344 -176 c 0
 344 -176 358 -165 374 -153 c 2
 450 -97 l 1
 451 91 l 2
 451 168 452 360 452 564 c 0
 452 633 452 703 452 771 c 2
 451 1263 l 1
 397 1220 348 1189 349 1184 c 0
 361 1074 365 713 365 470 c 0
EndSplineSet
EndChar

StartChar: uniE037
Encoding: 57399 57399 292
Width: 1247
VWidth: 0
Flags: HW
LayerCount: 2
Fore
SplineSet
207 115 m 1
 172 164 117 247 117 376 c 0
 117 400 113 501 200 619 c 0
 294 745 533 913 756 913 c 0
 1001 913 1113 685 1137 407 c 0
 1143 342 1143 -416 1147 -459 c 0
 1153 -514 1170 -528 1170 -536 c 0
 1170 -564 1087 -601 1011 -667 c 0
 863 -796 775 -820 753 -820 c 0
 698 -820 832 -730 839 -723 c 0
 957 -614 936 -524 941 -239 c 2
 944 -85 l 2
 945 -56 944 -30 944 -15 c 0
 944 -6 944 -1 944 -1 c 0
 944 -1 813 0 629 -0 c 0
 445 0 259 0 154 -0 c 0
 -48 0 -57 0 -57 4 c 0
 -57 28 50 115 202 115 c 2
 207 115 l 1
946 205 m 0
 946 437 856 770 571 770 c 0
 412 770 386 713 367 681 c 0
 334 625 319 567 319 501 c 0
 319 428 342 246 535 134 c 1
 653 139 l 2
 788 145 846 147 904 149 c 2
 946 151 l 1
 946 184 l 2
 946 191 946 198 946 205 c 0
EndSplineSet
EndChar

StartChar: uniE037.var
Encoding: 65665 -1 293
Width: 1222
VWidth: 0
Flags: HW
LayerCount: 2
Fore
SplineSet
117 384 m 0
 117 691 504 913 711 913 c 0
 967 913 1138 676 1138 327 c 0
 1138 -536 450 -884 374 -884 c 0
 343 -884 375 -843 456 -794 c 0
 871 -546 934 -4 931 -1 c 0
 931 -1 796 0 610 -0 c 0
 426 0 290 0 152 -0 c 0
 -48 0 -57 0 -57 4 c 0
 -57 32 57 115 202 115 c 2
 207 115 l 1
 162 178 117 254 117 384 c 0
946 198 m 2
 946 518 781 769 534 769 c 0
 402 769 388 720 388 720 c 0
 343 660 319 583 319 502 c 0
 319 430 342 247 535 134 c 1
 635 138 l 2
 830 147 896 149 946 152 c 1
 946 198 l 2
EndSplineSet
EndChar

StartChar: uniE06A
Encoding: 57450 57450 294
Width: 793
VWidth: 0
Flags: HW
LayerCount: 2
Fore
SplineSet
445 1570 m 1
 474 1627 598 1702 631 1702 c 0
 638 1702 640 1700 643 1698 c 1
 643 984 l 1
 615 929 495 852 455 852 c 0
 450 852 449 854 445 856 c 1
 445 1570 l 1
151 1570 m 1
 180 1627 303 1702 336 1702 c 0
 343 1702 345 1700 348 1698 c 1
 348 984 l 1
 320 929 201 852 161 852 c 0
 156 852 155 854 151 856 c 1
 151 1570 l 1
EndSplineSet
EndChar

StartChar: uniE06C
Encoding: 57452 57452 295
Width: 2098
VWidth: 0
Flags: HW
LayerCount: 2
Fore
SplineSet
1050 602 m 0
 1070 602 1209 450 1209 450 c 0
 1212 444 1211 438 1208 432 c 0
 1208 432 1069 280 1050 280 c 0
 1035 280 888 425 888 441 c 0
 888 455 1033 602 1050 602 c 0
2136 635 m 0
 2136 606 1956 438 1828 438 c 2
 1824 438 l 2
 1693 438 1573 554 1498 634 c 0
 1183 968 1031 1201 1022 1204 c 0
 1022 1204 750 754 378 531 c 0
 136 386 32 443 -13 510 c 0
 -20 520 -22 522 -22 526 c 0
 -22 566 141 676 170 661 c 0
 178 657 202 591 290 591 c 0
 481 591 786 932 948 1282 c 0
 996 1385 1110 1449 1132 1449 c 0
 1147 1449 1174 1384 1368 1140 c 0
 1710 711 1852 624 1985 609 c 0
 2072 600 2136 669 2136 635 c 0
EndSplineSet
EndChar

StartChar: uniE039.var1
Encoding: 65666 -1 296
Width: 1165
VWidth: 0
Flags: HW
LayerCount: 2
Fore
SplineSet
291 -15 m 0
 153 -15 81 105 81 243 c 0
 81 557 564 824 721 1223 c 0
 740 1270 750 1312 750 1343 c 0
 750 1421 641 1539 525 1498 c 0
 466 1478 354 1337 336 1373 c 0
 320 1405 539 1651 744 1651 c 0
 843 1651 946 1565 946 1470 c 0
 946 1283 680 964 680 963 c 0
 680 943 922 296 1018 205 c 0
 1094 133 1148 187 1148 164 c 0
 1148 130 988 0 924 -1 c 0
 873 -2 839 26 737 263 c 1
 658 162 491 -15 291 -15 c 0
278 370 m 0
 278 264 338 128 456 128 c 0
 558 128 606 186 710 323 c 1
 694 360 l 2
 653 453 599 583 563 679 c 2
 521 791 l 1
 498 765 l 2
 397 654 278 512 278 370 c 0
EndSplineSet
EndChar

StartChar: uniE039.var2
Encoding: 65667 -1 297
Width: 1138
VWidth: 0
Flags: HW
LayerCount: 2
Fore
SplineSet
-12 -2 m 0
 -93 -2 -123 60 -123 66 c 0
 -123 99 50 232 76 192 c 0
 115 131 190 155 199 162 c 0
 199 162 590 757 591 1283 c 0
 591 1453 458 1559 361 1481 c 0
 361 1481 216 1342 221 1392 c 0
 227 1445 426 1650 604 1650 c 0
 701 1650 789 1553 789 1416 c 0
 789 1244 750 1040 671 842 c 2
 661 815 l 1
 676 780 l 2
 754 601 848 419 948 256 c 0
 956 243 987 180 1059 170 c 0
 1100 164 1127 187 1127 169 c 0
 1127 135 962 -1 890 -1 c 0
 835 -1 811 49 798 72 c 0
 660 307 541 554 541 559 c 0
 541 563 538 558 526 536 c 2
 406 323 l 1
 297 135 101 -2 -12 -2 c 0
EndSplineSet
EndChar

StartChar: uniE039
Encoding: 57401 57401 298
Width: 1152
VWidth: 0
Flags: HW
LayerCount: 2
Fore
SplineSet
704 1259 m 0
 704 1411 566 1507 466 1507 c 0
 288 1507 238 1285 166 1243 c 0
 155 1237 151 1240 151 1255 c 0
 152 1341 357 1651 621 1651 c 0
 768 1651 901 1545 901 1386 c 0
 901 1188 836 860 498 452 c 0
 498 452 652 538 774 410 c 0
 858 322 887 190 1020 190 c 0
 1093 190 1140 220 1140 199 c 0
 1140 168 945 0 871 -0 c 0
 700 0 694 256 499 295 c 0
 457 303 366 303 264 208 c 0
 94 50 24 0 -7 -0 c 0
 -13 0 -16 3 -16 8 c 0
 -16 63 170 156 388 444 c 0
 581 698 704 1001 704 1259 c 0
EndSplineSet
EndChar

StartChar: uniE028
Encoding: 57384 57384 299
Width: 1126
VWidth: 0
Flags: HW
LayerCount: 2
Fore
SplineSet
-1 -1 m 0
 -89 -1 -120 65 -120 69 c 0
 -120 102 55 236 79 196 c 0
 89 180 114 150 166 150 c 0
 215 150 219 168 222 173 c 0
 390 429 501 707 521 737 c 1
 497 791 l 2
 333 1159 196 1516 11 1516 c 0
 -25 1516 -86 1465 -70 1511 c 0
 -52 1562 74 1703 161 1703 c 0
 322 1703 419 1455 637 976 c 0
 932 328 1020 129 1110 162 c 0
 1130 169 1139 167 1139 159 c 0
 1139 124 983 -1 916 -1 c 0
 848 -1 793 127 747 229 c 2
 594 573 l 2
 576 615 584 615 561 572 c 0
 392 248 322 160 181 67 c 0
 112 22 52 -1 -1 -1 c 0
EndSplineSet
EndChar

StartChar: uniE028.conr
Encoding: 65668 -1 300
Width: 1228
VWidth: 0
Flags: HW
LayerCount: 2
Fore
SplineSet
-1 -1 m 0
 -89 -1 -120 65 -120 69 c 0
 -120 102 55 236 79 196 c 0
 89 180 114 150 166 150 c 0
 215 150 219 168 222 173 c 0
 378 411 521 739 521 739 c 0
 514 757 308 1216 254 1310 c 0
 204 1398 109 1516 12 1516 c 0
 -26 1516 -86 1465 -70 1511 c 0
 -52 1563 74 1703 161 1703 c 0
 323 1703 412 1471 678 888 c 2
 753 724 l 2
 815 589 985 165 1309 143 c 0
 1321 142 1327 142 1327 135 c 0
 1327 118 1222 0 1121 0 c 0
 837 1 705 323 649 449 c 0
 600 559 579 606 579 606 c 0
 579 606 421 314 373 247 c 0
 293 135 123 -1 -1 -1 c 0
EndSplineSet
EndChar

StartChar: uniE028.dec
Encoding: 65669 -1 301
Width: 1510
VWidth: 0
Flags: HW
LayerCount: 2
Fore
SplineSet
120 1788 m 0
 222 1788 303 1663 337 1604 c 1
 409 1675 l 2
 470 1736 523 1788 551 1788 c 0
 559 1788 557 1791 626 1651 c 2
 1018 865 l 2
 1219 462 1363 127 1459 168 c 0
 1480 177 1490 175 1490 167 c 0
 1490 129 1324 -16 1260 -0 c 0
 1220 10 1185 54 1133 156 c 2
 1121 180 l 1
 1059 118 l 2
 1026 85 940 -4 907 -4 c 0
 902 -4 891 19 856 92 c 2
 569 679 l 2
 563 691 558 701 558 701 c 1
 554 697 421 350 333 232 c 0
 258 132 96 -1 -19 -1 c 0
 -92 -1 -125 54 -125 64 c 0
 -125 91 -17 180 46 197 c 0
 87 208 71 154 142 150 c 0
 183 148 188 163 209 202 c 0
 362 490 465 829 478 847 c 0
 480 850 483 854 483 854 c 0
 483 854 247 1348 196 1425 c 0
 101 1569 21 1597 -23 1597 c 0
 -75 1597 -92 1559 -106 1573 c 0
 -129 1596 21 1788 120 1788 c 0
433 1584 m 1
 405 1603 415 1605 387 1577 c 2
 365 1555 l 1
 633 1007 l 1
 934 407 l 2
 1046 185 1039 194 1051 187 c 1
 1096 232 l 1
 433 1584 l 1
EndSplineSet
EndChar

StartChar: uniE02A
Encoding: 57386 57386 302
Width: 1126
VWidth: 0
Flags: HW
LayerCount: 2
Fore
SplineSet
25 -1 m 0
 -71 -1 -113 70 -113 78 c 0
 -113 108 13 207 68 214 c 0
 94 218 93 161 175 152 c 0
 228 146 226 162 259 214 c 0
 323 314 382 419 450 562 c 1
 428 592 l 2
 413 613 343 729 238 729 c 0
 206 729 193 720 195 736 c 0
 200 771 306 914 396 914 c 0
 476 914 508 863 596 739 c 2
 788 463 l 2
 849 375 998 126 1093 164 c 0
 1114 172 1126 173 1126 163 c 0
 1126 126 963 -2 896 -2 c 0
 817 -2 778 76 620 312 c 0
 561 400 520 462 518 464 c 0
 517 465 389 250 351 201 c 0
 299 134 156 -1 25 -1 c 0
EndSplineSet
EndChar

StartChar: uniE02A.conr
Encoding: 65670 -1 303
Width: 1203
VWidth: 0
Flags: HW
LayerCount: 2
Fore
SplineSet
25 -1 m 0
 -71 -1 -113 70 -113 78 c 0
 -113 108 13 207 68 214 c 0
 94 218 93 161 175 152 c 0
 228 146 226 162 259 214 c 0
 323 314 382 419 450 562 c 1
 428 592 l 2
 378 661 319 743 205 726 c 0
 159 719 296 914 395 914 c 0
 482 914 511 863 657 652 c 0
 823 412 1015 165 1277 144 c 0
 1299 142 1302 141 1302 135 c 0
 1302 111 1213 31 1126 0 c 1
 1092 0 l 2
 880 0 730 148 561 400 c 0
 538 435 519 463 518 464 c 0
 517 465 390 251 351 201 c 0
 299 134 156 -1 25 -1 c 0
EndSplineSet
EndChar

StartChar: uniE02A.dec
Encoding: 65671 -1 304
Width: 1510
VWidth: 0
Flags: HW
LayerCount: 2
Fore
SplineSet
9 -1 m 0
 -77 -1 -118 62 -118 73 c 0
 -118 107 56 240 81 199 c 0
 119 135 207 150 215 157 c 0
 215 157 337 331 472 631 c 0
 483 655 485 657 487 660 c 1
 458 707 l 2
 438 740 375 857 278 857 c 0
 243 857 230 846 246 883 c 0
 260 915 347 1047 432 1047 c 0
 509 1047 558 953 590 899 c 2
 612 861 l 1
 681 929 l 2
 756 1003 800 1047 830 1047 c 0
 834 1047 835 1046 867 995 c 2
 1215 446 l 2
 1270 360 1372 167 1469 167 c 0
 1485 167 1518 186 1518 169 c 0
 1518 132 1361 -2 1294 -2 c 0
 1228 -2 1185 78 1149 136 c 2
 1122 181 l 1
 1059 119 l 2
 1053 113 942 -4 908 -4 c 0
 907 -4 l 0
 903 -4 903 -3 872 44 c 2
 552 551 l 1
 395 250 307 124 139 36 c 0
 92 11 48 -1 9 -1 c 0
1042 193 m 0
 1044 193 1050 188 1051 187 c 2
 1071 208 l 2
 1082 219 1092 229 1092 229 c 0
 1092 230 980 411 898 542 c 2
 851 618 l 2
 756 771 708 857 688 857 c 0
 686 857 681 853 664 836 c 2
 641 813 l 1
 658 785 l 2
 817 522 1037 193 1042 193 c 0
EndSplineSet
EndChar

StartChar: uniE040.norm
Encoding: 65672 -1 305
Width: 0
VWidth: 0
Flags: HW
LayerCount: 2
Fore
SplineSet
292 1164 m 0
 292 1126 186 1044 185 1043 c 0
 179 1041 174 1040 166 1040 c 0
 143 1040 138 1047 96 1089 c 0
 57 1128 25 1152 49 1190 c 0
 49 1190 129 1280 152 1287 c 0
 186 1298 209 1267 237 1239 c 0
 280 1196 292 1186 292 1164 c 0
-166 1040 m 0
 -189 1040 -195 1047 -237 1089 c 0
 -287 1139 -292 1143 -292 1164 c 0
 -292 1173 -289 1182 -284 1190 c 0
 -284 1190 -203 1280 -180 1287 c 0
 -146 1298 -124 1267 -96 1239 c 0
 -19 1162 -22 1162 -96 1089 c 0
 -143 1042 -143 1040 -166 1040 c 0
-1 1571 m 0
 23 1571 28 1563 70 1521 c 0
 113 1478 125 1468 125 1446 c 0
 125 1408 20 1325 19 1324 c 0
 13 1322 8 1321 0 1321 c 0
 -23 1321 -28 1329 -70 1371 c 0
 -120 1421 -125 1425 -125 1446 c 0
 -125 1455 -123 1464 -118 1472 c 0
 -118 1472 -34 1571 -1 1571 c 0
EndSplineSet
EndChar

StartChar: uniE041.norm
Encoding: 65673 -1 306
Width: 0
VWidth: 0
Flags: HW
LayerCount: 2
Fore
SplineSet
125 -564 m 0
 125 -602 20 -684 19 -685 c 0
 13 -687 8 -688 0 -688 c 0
 -23 -688 -28 -681 -70 -639 c 0
 -109 -600 -142 -576 -118 -538 c 0
 -118 -538 -37 -448 -14 -441 c 0
 20 -430 42 -461 70 -489 c 0
 113 -532 125 -542 125 -564 c 0
165 -157 m 0
 189 -157 195 -165 237 -207 c 0
 280 -250 292 -260 292 -282 c 0
 292 -320 186 -403 185 -404 c 0
 179 -406 174 -407 166 -407 c 0
 143 -407 138 -399 96 -357 c 0
 57 -318 25 -294 49 -256 c 0
 49 -256 132 -157 165 -157 c 0
-167 -157 m 0
 -143 -157 -138 -165 -96 -207 c 0
 -46 -257 -41 -261 -41 -282 c 0
 -41 -321 -147 -404 -148 -404 c 0
 -154 -406 -158 -407 -166 -407 c 0
 -189 -407 -195 -399 -237 -357 c 0
 -287 -307 -292 -303 -292 -282 c 0
 -292 -273 -289 -264 -284 -256 c 0
 -284 -256 -200 -157 -167 -157 c 0
EndSplineSet
EndChar

StartChar: uniE056.norm
Encoding: 65674 -1 307
Width: 0
VWidth: 0
Flags: HW
LayerCount: 2
Fore
SplineSet
125 1164 m 0
 125 1126 20 1044 19 1043 c 0
 13 1041 8 1040 0 1040 c 0
 -23 1040 -28 1047 -70 1089 c 0
 -109 1128 -142 1152 -118 1190 c 0
 -118 1190 -37 1280 -14 1287 c 0
 20 1298 42 1267 70 1239 c 0
 113 1196 125 1186 125 1164 c 0
165 1571 m 0
 189 1571 195 1563 237 1521 c 0
 280 1478 292 1468 292 1446 c 0
 292 1408 186 1325 185 1324 c 0
 179 1322 174 1321 166 1321 c 0
 143 1321 138 1329 96 1371 c 0
 57 1410 25 1434 49 1472 c 0
 49 1472 132 1571 165 1571 c 0
-167 1571 m 0
 -143 1571 -138 1563 -96 1521 c 0
 -46 1471 -41 1467 -41 1446 c 0
 -41 1407 -147 1324 -148 1324 c 0
 -154 1322 -158 1321 -166 1321 c 0
 -189 1321 -195 1329 -237 1371 c 0
 -287 1421 -292 1425 -292 1446 c 0
 -292 1455 -289 1464 -284 1472 c 0
 -284 1472 -200 1571 -167 1571 c 0
EndSplineSet
EndChar

StartChar: uniE042.norm
Encoding: 65675 -1 308
Width: 0
VWidth: 0
Flags: HW
LayerCount: 2
Fore
SplineSet
198 1293 m 0
 218 1293 221 1290 273 1238 c 0
 327 1184 327 1183 327 1164 c 0
 327 1145 327 1145 273 1091 c 0
 218 1036 217 1036 198 1036 c 0
 179 1036 179 1036 124 1091 c 0
 70 1145 70 1145 70 1164 c 0
 70 1183 70 1183 123 1237 c 0
 175 1289 178 1293 198 1293 c 0
-199 1293 m 0
 -179 1293 -176 1290 -124 1238 c 0
 -70 1184 -70 1183 -70 1164 c 0
 -70 1145 -70 1145 -124 1091 c 0
 -179 1036 -179 1036 -198 1036 c 0
 -217 1036 -218 1036 -273 1091 c 0
 -327 1145 -327 1145 -327 1164 c 0
 -327 1183 -327 1183 -274 1237 c 0
 -222 1289 -219 1293 -199 1293 c 0
EndSplineSet
EndChar

StartChar: uniE043.norm
Encoding: 65676 -1 309
Width: 0
VWidth: 0
Flags: HW
LayerCount: 2
Fore
SplineSet
198 -153 m 0
 218 -153 221 -157 273 -209 c 0
 327 -263 327 -263 327 -282 c 0
 327 -301 327 -301 273 -355 c 0
 218 -410 217 -411 198 -411 c 0
 179 -411 179 -410 124 -355 c 0
 70 -301 70 -301 70 -282 c 0
 70 -263 70 -263 123 -209 c 0
 175 -157 178 -153 198 -153 c 0
-199 -153 m 0
 -179 -153 -176 -157 -124 -209 c 0
 -70 -263 -70 -263 -70 -282 c 0
 -70 -301 -70 -301 -124 -355 c 0
 -179 -410 -179 -411 -198 -411 c 0
 -217 -411 -218 -410 -273 -355 c 0
 -327 -301 -327 -301 -327 -282 c 0
 -327 -263 -327 -263 -274 -209 c 0
 -222 -157 -219 -153 -199 -153 c 0
EndSplineSet
EndChar

StartChar: uniE044.norm
Encoding: 65677 -1 310
Width: 0
VWidth: 0
Flags: HW
LayerCount: 2
Fore
SplineSet
-1 1303 m 0
 21 1303 24 1297 79 1241 c 0
 140 1180 139 1182 139 1164 c 0
 139 1146 140 1148 79 1087 c 0
 18 1026 18 1025 1 1025 c 2
 0 1025 l 1
 -1 1025 l 2
 -18 1025 -18 1026 -79 1087 c 0
 -140 1148 -139 1146 -139 1164 c 0
 -139 1182 -140 1180 -80 1241 c 0
 -18 1304 -19 1303 -1 1303 c 0
EndSplineSet
EndChar

StartChar: uniE045.norm
Encoding: 65678 -1 311
Width: 0
VWidth: 0
Flags: HW
LayerCount: 2
Fore
SplineSet
-1 -143 m 0
 21 -143 24 -149 79 -205 c 0
 140 -266 139 -264 139 -282 c 0
 139 -300 140 -298 79 -359 c 0
 18 -420 18 -421 1 -421 c 2
 0 -421 l 1
 -1 -421 l 2
 -18 -421 -18 -420 -79 -359 c 0
 -140 -298 -139 -300 -139 -282 c 0
 -139 -264 -140 -267 -80 -206 c 0
 -18 -143 -19 -143 -1 -143 c 0
EndSplineSet
EndChar

StartChar: uniE046.norm
Encoding: 65679 -1 312
Width: 0
VWidth: 0
Flags: HW
LayerCount: 2
Fore
SplineSet
-117 1093 m 0
 -124 1093 -125 1099 -125 1100 c 0
 -125 1105 -123 1109 -86 1165 c 2
 73 1406 l 2
 138 1504 139 1507 148 1515 c 0
 195 1557 293 1601 329 1601 c 0
 339 1601 344 1598 344 1594 c 0
 344 1588 343 1585 320 1555 c 2
 74 1224 l 2
 20 1152 -79 1093 -117 1093 c 0
EndSplineSet
EndChar

StartChar: uniE046.double_norm
Encoding: 65680 -1 313
Width: 0
VWidth: 0
Flags: HW
LayerCount: 2
Fore
SplineSet
482 1601 m 0
 495 1601 498 1597 498 1591 c 0
 498 1587 491 1578 392 1445 c 2
 268 1278 l 2
 220 1213 210 1200 198 1188 c 0
 164 1154 79 1093 37 1093 c 0
 17 1093 33 1114 67 1165 c 2
 268 1470 l 2
 285 1496 293 1506 300 1513 c 0
 342 1554 446 1601 482 1601 c 0
-270 1093 m 0
 -277 1093 -279 1099 -279 1100 c 0
 -279 1105 -277 1109 -240 1165 c 2
 -81 1406 l 2
 -16 1504 -14 1507 -5 1515 c 0
 42 1557 139 1601 175 1601 c 0
 185 1601 191 1598 191 1594 c 0
 191 1588 189 1585 166 1555 c 2
 -79 1224 l 2
 -133 1152 -232 1093 -270 1093 c 0
EndSplineSet
EndChar

StartChar: uniE047.norm
Encoding: 65681 -1 314
Width: 0
VWidth: 0
Flags: HW
LayerCount: 2
Fore
SplineSet
113 -210 m 0
 120 -210 125 -213 125 -218 c 0
 125 -222 126 -222 86 -283 c 2
 -73 -524 l 2
 -138 -622 -139 -625 -148 -633 c 0
 -192 -673 -289 -719 -329 -719 c 0
 -339 -719 -344 -716 -344 -711 c 0
 -344 -705 -336 -693 -320 -672 c 2
 -74 -342 l 2
 -15 -263 86 -210 113 -210 c 0
EndSplineSet
EndChar

StartChar: uniE047.double_norm
Encoding: 65682 -1 315
Width: 0
VWidth: 0
Flags: HW
LayerCount: 2
Fore
SplineSet
267 -210 m 0
 274 -210 279 -213 279 -218 c 0
 279 -222 280 -222 240 -283 c 2
 81 -524 l 2
 16 -622 14 -625 5 -633 c 0
 -39 -673 -135 -719 -175 -719 c 0
 -204 -719 -186 -699 -166 -672 c 2
 79 -342 l 2
 138 -263 240 -210 267 -210 c 0
-40 -210 m 0
 -33 -210 -29 -213 -29 -218 c 0
 -29 -222 -27 -222 -67 -283 c 2
 -268 -587 l 2
 -338 -694 -466 -718 -483 -718 c 0
 -492 -718 -498 -717 -498 -712 c 0
 -498 -705 -509 -719 -392 -562 c 2
 -268 -396 l 2
 -207 -314 -200 -305 -172 -282 c 0
 -131 -249 -66 -210 -40 -210 c 0
EndSplineSet
EndChar

StartChar: uniE054.norm
Encoding: 65683 -1 316
Width: 0
VWidth: 0
Flags: HW
LayerCount: 2
Fore
SplineSet
-362 1578 m 0
 -362 1581 -360 1587 -349 1587 c 0
 -302 1587 -203 1535 -164 1499 c 0
 -160 1495 -146 1479 -134 1462 c 2
 94 1153 l 2
 121 1117 127 1110 127 1099 c 0
 127 1094 121 1093 116 1093 c 0
 93 1093 36 1123 -12 1161 c 0
 -42 1185 -34 1175 -217 1397 c 2
 -303 1501 l 2
 -357 1566 -362 1573 -362 1578 c 0
EndSplineSet
EndChar

StartChar: uniE050.norm
Encoding: 65684 -1 317
Width: 0
VWidth: 0
Flags: HW
LayerCount: 2
Fore
SplineSet
-521 1048 m 0
 -521 1081 -382 1186 -338 1186 c 0
 -287 1186 -341 1150 170 1150 c 0
 505 1150 504 1193 518 1179 c 0
 519 1178 520 1176 520 1174 c 0
 520 1150 421 1050 327 1029 c 0
 227 1006 147 1009 69 1009 c 0
 -1 1009 -521 1010 -521 1048 c 0
EndSplineSet
EndChar

StartChar: uniE050.lambe
Encoding: 65685 -1 318
Width: 0
VWidth: 0
Flags: HW
LayerCount: 2
Fore
SplineSet
-702 1047 m 0
 -702 1081 -565 1186 -519 1186 c 0
 -458 1186 -481 1148 175 1148 c 0
 637 1148 636 1181 692 1181 c 0
 698 1181 701 1179 701 1174 c 0
 701 1148 619 1076 557 1045 c 0
 471 1002 88 1007 61 1007 c 0
 -85 1007 -702 1015 -702 1047 c 0
EndSplineSet
EndChar

StartChar: uniE050.wide
Encoding: 65686 -1 319
Width: 0
VWidth: 0
Flags: HW
LayerCount: 2
Fore
SplineSet
-863 1047 m 0
 -863 1082 -725 1186 -681 1186 c 0
 -612 1186 -595 1147 197 1147 c 0
 723 1147 811 1181 853 1181 c 0
 860 1181 863 1178 863 1173 c 0
 863 1145 746 1044 684 1033 c 0
 587 1016 352 1005 95 1005 c 0
 -21 1005 -154 1007 -230 1009 c 2
 -326 1011 l 2
 -746 1022 -863 1033 -863 1047 c 0
EndSplineSet
EndChar

StartChar: uniE050.silme
Encoding: 65687 -1 320
Width: 0
VWidth: 0
Flags: HW
LayerCount: 2
Fore
SplineSet
-420 1047 m 0
 -420 1085 -275 1186 -240 1186 c 0
 -197 1186 -244 1151 136 1151 c 0
 311 1151 321 1154 377 1173 c 0
 405 1183 419 1184 419 1173 c 0
 419 1151 330 1053 216 1024 c 0
 166 1011 124 1008 37 1008 c 0
 28 1008 -420 1009 -420 1047 c 0
EndSplineSet
EndChar

StartChar: uniE051.roomen
Encoding: 65688 -1 321
Width: 0
VWidth: 0
Flags: HW
LayerCount: 2
Fore
SplineSet
-229 -157 m 0
 -212 -157 -180 -162 108 -162 c 0
 166 -162 214 -161 226 -161 c 2
 292 -159 l 2
 342 -157 358 -156 375 -156 c 0
 414 -156 419 -155 419 -164 c 0
 419 -192 322 -278 243 -305 c 1
 193 -304 l 2
 172 -303 145 -303 113 -303 c 0
 69 -303 46 -304 2 -304 c 0
 -104 -304 -183 -300 -262 -300 c 0
 -412 -300 -420 -311 -420 -295 c 0
 -420 -264 -289 -157 -229 -157 c 0
EndSplineSet
EndChar

StartChar: uniE051.lambe
Encoding: 65689 -1 322
Width: 0
VWidth: 0
Flags: HW
LayerCount: 2
Fore
SplineSet
96 -163 m 0
 312 -163 308 -156 413 -156 c 0
 450 -156 459 -155 459 -164 c 0
 459 -189 367 -277 282 -306 c 1
 239 -304 l 2
 220 -303 194 -303 157 -303 c 0
 99 -303 84 -304 11 -304 c 0
 -107 -304 -196 -300 -284 -300 c 0
 -430 -300 -460 -311 -460 -295 c 0
 -460 -267 -332 -158 -269 -158 c 0
 -196 -158 -196 -163 96 -163 c 0
EndSplineSet
EndChar

StartChar: uniE051.norm
Encoding: 65690 -1 323
Width: 0
VWidth: 0
Flags: HW
LayerCount: 2
Fore
SplineSet
108 -163 m 2
 325 -163 362 -156 470 -156 c 0
 517 -156 520 -158 520 -164 c 0
 520 -194 393 -305 330 -305 c 0
 304 -305 305 -303 201 -303 c 0
 122 -303 81 -304 2 -304 c 0
 -158 -304 -189 -300 -317 -300 c 0
 -413 -300 -471 -303 -509 -303 c 0
 -515 -303 -521 -304 -521 -296 c 0
 -521 -263 -400 -172 -347 -159 c 0
 -332 -155 -236 -163 103 -163 c 2
 108 -163 l 2
EndSplineSet
EndChar

StartChar: uniE051.wide
Encoding: 65691 -1 324
Width: 0
VWidth: 0
Flags: HW
LayerCount: 2
Fore
SplineSet
191 -165 m 0
 503 -165 558 -155 743 -155 c 0
 855 -155 863 -154 863 -164 c 0
 863 -190 767 -280 684 -306 c 1
 642 -304 l 2
 600 -302 542 -302 484 -302 c 0
 334 -302 333 -306 108 -306 c 0
 -117 -306 -328 -300 -514 -300 c 0
 -675 -300 -772 -303 -836 -303 c 0
 -855 -303 -863 -304 -863 -295 c 0
 -863 -268 -751 -173 -689 -158 c 0
 -677 -155 -631 -160 -46 -164 c 2
 131 -165 l 2
 150 -165 170 -165 191 -165 c 0
EndSplineSet
EndChar

StartChar: uniE051.silme
Encoding: 65692 -1 325
Width: 0
VWidth: 0
Flags: HW
LayerCount: 2
Fore
SplineSet
-229 -157 m 0
 -212 -157 -180 -162 108 -162 c 0
 166 -162 214 -161 226 -161 c 2
 292 -159 l 2
 342 -157 358 -156 375 -156 c 0
 414 -156 419 -155 419 -164 c 0
 419 -192 322 -278 243 -305 c 1
 193 -304 l 2
 172 -303 145 -303 113 -303 c 0
 69 -303 46 -304 2 -304 c 0
 -104 -304 -183 -300 -262 -300 c 0
 -412 -300 -420 -311 -420 -295 c 0
 -420 -264 -289 -157 -229 -157 c 0
EndSplineSet
EndChar

StartChar: uniE049.norm
Encoding: 65693 -1 326
Width: 0
VWidth: 0
Flags: HW
LayerCount: 2
Fore
SplineSet
385 -230 m 0
 385 -255 321 -316 268 -352 c 0
 214 -389 -158 -629 -169 -634 c 0
 -182 -641 -192 -644 -199 -644 c 0
 -234 -644 -156 -559 -104 -522 c 0
 -104 -522 335 -231 367 -223 c 0
 380 -220 385 -224 385 -230 c 0
-376 -496 m 0
 -381 -496 -385 -494 -385 -489 c 0
 -385 -464 -323 -402 -268 -365 c 0
 -260 -359 168 -74 199 -74 c 0
 206 -74 209 -78 209 -81 c 0
 209 -104 147 -164 104 -195 c 0
 96 -201 -212 -402 -325 -475 c 0
 -345 -488 -366 -496 -376 -496 c 0
EndSplineSet
EndChar

StartChar: uniE053.norm
Encoding: 65694 -1 327
Width: 0
VWidth: 0
Flags: HW
LayerCount: 2
Fore
SplineSet
320 1369 m 0
 320 1341 121 1067 -58 1067 c 0
 -117 1067 -236 1098 -275 1229 c 1
 -249 1287 -131 1360 -92 1364 c 0
 -70 1366 -82 1348 -50 1300 c 0
 12 1208 98 1211 118 1210 c 1
 149 1243 l 2
 212 1311 279 1378 311 1378 c 0
 317 1378 320 1375 320 1369 c 0
EndSplineSet
EndChar

StartChar: uniE053.wide
Encoding: 65695 -1 328
Width: 0
VWidth: 0
Flags: HW
LayerCount: 2
Fore
SplineSet
-45 1067 m 0
 -232 1067 -340 1211 -340 1228 c 0
 -340 1266 -180 1376 -148 1363 c 0
 -142 1361 -59 1211 119 1211 c 2
 120 1211 l 2
 258 1211 279 1323 382 1373 c 0
 390 1377 394 1378 398 1378 c 0
 405 1378 407 1377 407 1371 c 0
 407 1325 173 1067 -45 1067 c 0
EndSplineSet
EndChar

StartChar: uniE055.norm
Encoding: 65696 -1 329
Width: 0
VWidth: 0
Flags: HW
LayerCount: 2
Fore
SplineSet
-174 1445 m 0
 -174 1479 -56 1608 -5 1608 c 0
 203 1608 197 1243 386 1226 c 0
 401 1225 410 1226 410 1216 c 0
 410 1187 331 1097 274 1063 c 0
 255 1052 246 1050 220 1054 c 0
 90 1073 46 1239 16 1279 c 0
 14 1282 -145 1095 -315 1051 c 0
 -333 1046 -343 1044 -349 1044 c 0
 -353 1044 -357 1046 -357 1052 c 0
 -357 1080 -253 1187 -177 1204 c 0
 -126 1215 -117 1227 -108 1238 c 0
 -83 1267 -26 1344 -26 1350 c 0
 -26 1350 -71 1428 -150 1435 c 0
 -165 1436 -174 1435 -174 1445 c 0
EndSplineSet
EndChar

StartChar: uniE052.narrow
Encoding: 65697 -1 330
Width: 0
VWidth: 0
Flags: HW
LayerCount: 2
Fore
SplineSet
-359 1231 m 0
 -359 1367 -139 1498 -107 1498 c 0
 -101 1498 -99 1496 -99 1490 c 0
 -99 1449 -167 1442 -167 1368 c 0
 -167 1285 -98 1213 -14 1213 c 0
 36 1213 189 1227 239 1227 c 0
 314 1227 333 1169 333 1125 c 0
 333 1007 154 849 115 849 c 0
 78 849 152 906 152 970 c 0
 152 1016 135 1078 40 1078 c 0
 -26 1078 -93 1073 -181 1073 c 0
 -333 1073 -359 1177 -359 1231 c 0
EndSplineSet
EndChar

StartChar: uniE052.norm
Encoding: 65698 -1 331
Width: 0
VWidth: 0
Flags: HW
LayerCount: 2
Fore
SplineSet
-509 1253 m 0
 -509 1376 -303 1498 -274 1498 c 0
 -253 1498 -269 1469 -314 1423 c 1
 -330 1331 -269 1213 -81 1214 c 0
 7 1214 271 1227 359 1227 c 0
 392 1227 448 1229 478 1165 c 0
 486 1149 490 1129 490 1109 c 0
 490 999 319 849 281 849 c 0
 260 849 280 881 296 903 c 0
 330 948 306 1051 221 1075 c 0
 211 1078 209 1078 150 1078 c 0
 -13 1078 -54 1073 -257 1073 c 0
 -317 1073 -439 1074 -493 1185 c 0
 -504 1208 -509 1231 -509 1253 c 0
EndSplineSet
EndChar

StartChar: uniE052.wide
Encoding: 65699 -1 332
Width: 0
VWidth: 0
Flags: HW
LayerCount: 2
Fore
SplineSet
-630 1267 m 0
 -630 1380 -431 1498 -402 1498 c 0
 -379 1498 -402 1465 -438 1427 c 1
 -450 1312 -329 1213 -170 1213 c 0
 -133 1213 -44 1215 24 1217 c 2
 157 1221 l 2
 310 1225 403 1227 464 1227 c 0
 593 1227 612 1145 612 1099 c 0
 612 989 444 849 409 849 c 0
 373 849 444 897 431 966 c 0
 421 1016 380 1061 333 1073 c 0
 318 1077 309 1078 258 1078 c 0
 56 1078 -47 1073 -312 1073 c 0
 -364 1073 -488 1064 -577 1153 c 0
 -611 1187 -630 1225 -630 1267 c 0
EndSplineSet
EndChar

StartChar: uniE020
Encoding: 57376 57376 333
Width: 1165
VWidth: 0
Flags: HW
LayerCount: 2
Fore
SplineSet
208 882 m 0
 297 882 363 767 431 631 c 1
 448 651 l 2
 611 846 779 898 862 898 c 0
 1039 898 1083 748 1083 635 c 0
 1083 331 599 53 444 -340 c 0
 425 -387 415 -430 415 -461 c 0
 415 -539 523 -657 640 -616 c 0
 699 -596 811 -455 829 -491 c 0
 845 -523 627 -768 418 -768 c 0
 328 -768 218 -687 218 -588 c 0
 218 -401 485 -82 485 -81 c 0
 485 -52 300 454 168 629 c 0
 130 680 92 706 55 706 c 0
 25 706 1 684 1 704 c 0
 1 733 109 882 208 882 c 0
887 511 m 0
 887 625 820 754 709 754 c 0
 609 754 560 696 510 638 c 0
 508 636 459 576 459 575 c 0
 459 566 561 369 639 107 c 0
 641 99 644 93 644 93 c 0
 644 93 887 323 887 511 c 0
EndSplineSet
EndChar

StartChar: uniE020.conl
Encoding: 65700 -1 334
Width: 1165
VWidth: 0
Flags: HW
LayerCount: 2
Fore
SplineSet
437 641 m 1
 612 849 777 898 862 898 c 0
 1039 898 1083 747 1083 641 c 2
 1083 633 l 2
 1083 334 598 50 444 -340 c 0
 425 -387 415 -430 415 -461 c 0
 415 -539 523 -657 640 -616 c 0
 699 -596 811 -455 829 -491 c 0
 845 -523 627 -768 418 -768 c 0
 328 -768 218 -687 218 -588 c 0
 218 -400 485 -83 485 -80 c 0
 485 -33 288 518 127 679 c 0
 74 732 48 740 -36 740 c 0
 -86 740 -99 737 -99 747 c 0
 -99 774 11 863 74 880 c 0
 74 880 202 889 246 872 c 0
 307 849 357 791 422 668 c 2
 437 641 l 1
887 512 m 0
 887 616 826 754 707 754 c 0
 611 754 561 696 533 666 c 0
 533 666 466 590 466 587 c 0
 466 571 556 427 635 126 c 0
 640 108 644 93 644 93 c 0
 644 93 849 294 881 456 c 0
 885 475 887 493 887 512 c 0
EndSplineSet
EndChar

StartChar: uniE021
Encoding: 57377 57377 335
Width: 1165
VWidth: 0
Flags: HW
LayerCount: 2
Fore
SplineSet
208 882 m 0
 297 882 363 767 431 631 c 1
 448 651 l 2
 611 846 779 898 862 898 c 0
 1039 898 1083 748 1083 635 c 0
 1083 331 599 53 444 -340 c 0
 425 -387 415 -430 415 -461 c 0
 415 -539 523 -657 640 -616 c 0
 699 -596 811 -455 829 -491 c 0
 845 -523 627 -768 418 -768 c 0
 328 -768 218 -687 218 -588 c 0
 218 -401 485 -82 485 -81 c 0
 485 -66 389 202 384 202 c 0
 376 202 196 14 196 -34 c 0
 196 -99 265 -130 265 -136 c 0
 265 -169 58 -349 29 -228 c 0
 28 -222 27 -216 27 -210 c 0
 27 -121 246 144 332 234 c 2
 360 263 l 1
 345 295 l 2
 182 662 113 706 55 706 c 0
 25 706 1 684 1 704 c 0
 1 733 109 882 208 882 c 0
887 511 m 0
 887 625 820 754 709 754 c 0
 609 754 560 696 510 638 c 0
 508 636 459 576 459 575 c 0
 459 566 561 369 639 107 c 0
 641 99 644 93 644 93 c 0
 644 93 887 323 887 511 c 0
EndSplineSet
EndChar

StartChar: uniE021.conl
Encoding: 65701 -1 336
Width: 1165
VWidth: 0
Flags: HW
LayerCount: 2
Fore
SplineSet
437 641 m 1
 612 849 777 898 862 898 c 0
 1039 898 1083 747 1083 641 c 2
 1083 633 l 2
 1083 334 598 50 444 -340 c 0
 425 -387 415 -430 415 -461 c 0
 415 -539 523 -657 640 -616 c 0
 699 -596 811 -455 829 -491 c 0
 845 -523 627 -768 418 -768 c 0
 328 -768 218 -687 218 -588 c 0
 218 -400 485 -84 485 -81 c 0
 485 -71 444 65 394 195 c 1
 325 132 253 50 209 -27 c 1
 205 -81 242 -117 278 -135 c 1
 274 -176 127 -295 73 -271 c 0
 52 -261 40 -240 40 -214 c 0
 40 -126 258 139 340 225 c 2
 369 255 l 1
 356 284 l 2
 212 610 114 719 34 736 c 0
 22 739 -6 740 -36 740 c 0
 -86 740 -99 737 -99 747 c 0
 -99 774 11 863 74 880 c 0
 74 880 202 889 246 872 c 0
 307 849 357 791 422 668 c 2
 437 641 l 1
887 512 m 0
 887 616 826 754 707 754 c 0
 611 754 561 696 533 666 c 0
 533 666 466 590 466 587 c 0
 466 571 556 427 635 126 c 0
 640 108 644 93 644 93 c 0
 644 93 849 294 881 456 c 0
 885 475 887 493 887 512 c 0
EndSplineSet
EndChar

StartChar: uniE020.open
Encoding: 65702 -1 337
Width: 1165
VWidth: 0
Flags: HW
LayerCount: 2
Fore
SplineSet
208 882 m 0
 297 882 363 767 431 631 c 1
 448 651 l 2
 611 846 779 898 862 898 c 0
 1044 898 1084 736 1084 641 c 0
 1084 389 798 107 607 -43 c 0
 467 -153 278 -321 278 -465 c 0
 278 -525 331 -613 384 -624 c 0
 450 -638 524 -545 524 -584 c 0
 524 -609 469 -673 426 -709 c 0
 372 -754 331 -770 264 -770 c 2
 263 -770 l 2
 219 -770 170 -773 123 -710 c 0
 95 -672 81 -632 81 -590 c 0
 81 -389 435 -110 462 -88 c 2
 482 -71 l 1
 389 229 240 533 168 629 c 0
 130 680 92 706 55 706 c 0
 25 706 1 684 1 704 c 0
 1 733 109 882 208 882 c 0
887 511 m 0
 887 630 817 754 709 754 c 0
 609 754 560 696 510 638 c 0
 508 636 459 576 459 575 c 0
 459 564 558 381 640 106 c 0
 646 86 644 90 656 79 c 1
 717 144 887 329 887 511 c 0
EndSplineSet
EndChar

StartChar: uniE020.conl_open
Encoding: 65703 -1 338
Width: 1165
VWidth: 0
Flags: HW
LayerCount: 2
Fore
SplineSet
437 641 m 1
 612 849 777 898 862 898 c 0
 1039 898 1083 750 1083 635 c 0
 1083 499 973 245 607 -43 c 0
 467 -153 278 -321 278 -465 c 0
 278 -525 331 -613 384 -624 c 0
 450 -638 524 -545 524 -584 c 0
 524 -609 469 -673 426 -709 c 0
 372 -754 331 -770 264 -770 c 2
 263 -770 l 2
 219 -770 170 -773 123 -710 c 0
 95 -672 81 -632 81 -590 c 0
 81 -373 483 -76 483 -70 c 0
 483 -29 288 518 127 679 c 0
 74 732 48 740 -36 740 c 0
 -86 740 -99 737 -99 747 c 0
 -99 774 11 863 74 880 c 0
 74 880 202 889 246 872 c 0
 307 849 357 791 422 668 c 2
 437 641 l 1
887 511 m 0
 887 612 830 754 707 754 c 0
 611 754 561 696 533 666 c 0
 533 666 466 590 466 587 c 0
 466 571 556 426 635 125 c 0
 640 107 644 93 644 92 c 0
 644 89 654 81 656 79 c 1
 717 144 887 329 887 511 c 0
EndSplineSet
EndChar

StartChar: uniE021.open
Encoding: 65704 -1 339
Width: 1165
VWidth: 0
Flags: HW
LayerCount: 2
Fore
SplineSet
208 882 m 0
 297 882 363 767 431 631 c 1
 448 651 l 2
 611 846 779 898 862 898 c 0
 1044 898 1084 736 1084 641 c 0
 1084 389 798 107 607 -43 c 0
 467 -153 278 -321 278 -465 c 0
 278 -525 331 -613 384 -624 c 0
 450 -638 524 -545 524 -584 c 0
 524 -609 469 -673 426 -709 c 0
 372 -754 331 -770 264 -770 c 2
 263 -770 l 2
 219 -770 170 -773 123 -710 c 0
 95 -672 81 -632 81 -590 c 0
 81 -389 435 -110 462 -88 c 2
 482 -71 l 1
 443 53 407 149 378 219 c 1
 356 241 l 1
 189 141 117 48 117 48 c 0
 110 29 120 -22 163 -35 c 0
 175 -38 179 -39 179 -46 c 0
 179 -67 38 -209 -38 -172 c 0
 -62 -160 -78 -134 -78 -106 c 0
 -78 14 340 301 341 302 c 0
 344 305 231 546 168 629 c 0
 130 680 92 706 55 706 c 0
 24 706 0 683 2 707 c 0
 5 738 111 882 208 882 c 0
887 511 m 0
 887 630 817 754 709 754 c 0
 609 754 560 696 510 638 c 0
 508 636 459 576 459 575 c 0
 459 564 558 381 640 106 c 0
 646 86 644 90 656 79 c 1
 717 144 887 329 887 511 c 0
EndSplineSet
EndChar

StartChar: uniE021.conl_open
Encoding: 65705 -1 340
Width: 1165
VWidth: 0
Flags: HW
LayerCount: 2
Fore
SplineSet
437 641 m 1
 612 849 777 898 862 898 c 0
 1039 898 1083 750 1083 635 c 0
 1083 499 973 245 607 -43 c 0
 467 -153 278 -321 278 -465 c 0
 278 -525 331 -613 384 -624 c 0
 450 -638 524 -545 524 -584 c 0
 524 -609 469 -673 426 -709 c 0
 372 -754 331 -770 264 -770 c 2
 263 -770 l 2
 219 -770 170 -773 123 -710 c 0
 95 -672 81 -632 81 -590 c 0
 81 -373 483 -76 483 -70 c 0
 483 -67 405 198 369 237 c 1
 213 142 150 67 129 45 c 1
 127 34 127 32 127 27 c 0
 127 -32 192 -41 192 -49 c 0
 192 -79 48 -198 -9 -183 c 0
 -43 -174 -111 -121 -17 -17 c 0
 160 177 339 285 350 295 c 0
 352 297 225 581 127 679 c 0
 73 733 42 740 -36 740 c 0
 -86 740 -99 737 -99 747 c 0
 -99 774 11 863 74 880 c 0
 74 880 202 889 246 872 c 0
 307 849 357 791 422 668 c 2
 437 641 l 1
887 511 m 0
 887 612 830 754 707 754 c 0
 611 754 561 696 533 666 c 0
 533 666 466 590 466 587 c 0
 466 571 556 426 635 125 c 0
 640 107 644 93 644 92 c 0
 644 89 654 81 656 79 c 1
 717 144 887 329 887 511 c 0
EndSplineSet
EndChar

StartChar: uniE022
Encoding: 57378 57378 341
Width: 1618
VWidth: 0
Flags: HW
LayerCount: 2
Fore
SplineSet
106 8 m 0
 106 447 599 730 590 739 c 0
 587 742 405 749 348 749 c 0
 76 749 31 707 31 732 c 0
 31 758 137 857 223 872 c 0
 276 881 386 895 494 895 c 0
 808 895 1007 859 1255 859 c 0
 1294 859 1444 858 1565 881 c 0
 1582 884 1588 883 1588 875 c 0
 1588 847 1487 763 1426 741 c 0
 1397 731 1246 711 1099 711 c 0
 1004 711 891 717 723 730 c 2
 678 733 l 1
 366 524 304 287 304 135 c 0
 304 -130 570 -297 859 -297 c 0
 1022 -297 1198 -230 1248 -180 c 0
 1285 -143 1316 -85 1316 -21 c 0
 1316 57 1261 126 1187 145 c 0
 1167 150 1151 153 1198 198 c 0
 1243 242 1323 291 1354 291 c 0
 1379 291 1512 253 1512 104 c 0
 1511 -137 1054 -440 683 -440 c 0
 367 -440 106 -261 106 8 c 0
EndSplineSet
EndChar

StartChar: uniE022.conr
Encoding: 65706 -1 342
Width: 1618
VWidth: 0
Flags: HW
LayerCount: 2
Fore
SplineSet
681 -441 m 0
 427 -441 106 -300 106 11 c 0
 106 304 325 543 561 721 c 2
 588 741 l 1
 537 740 l 2
 364 737 218 733 94 727 c 0
 29 724 31 724 31 732 c 0
 31 761 142 853 204 869 c 0
 224 874 514 886 868 886 c 0
 1684 886 1718 882 1718 877 c 0
 1718 852 1629 768 1538 739 c 1
 1258 740 l 2
 1126 741 966 741 872 741 c 0
 856 741 842 741 830 741 c 2
 682 741 l 1
 361 525 304 289 304 135 c 0
 304 -149 602 -297 859 -297 c 0
 1020 -297 1188 -230 1238 -189 c 0
 1271 -162 1340 -66 1307 34 c 0
 1288 92 1238 137 1180 149 c 0
 1167 152 1165 156 1170 167 c 0
 1189 207 1300 285 1350 293 c 0
 1368 296 1483 267 1509 147 c 0
 1561 -93 1081 -441 681 -441 c 0
EndSplineSet
EndChar

StartChar: uniE022.conl
Encoding: 65707 -1 343
Width: 1618
VWidth: 0
Flags: HW
LayerCount: 2
Fore
SplineSet
-99 747 m 0
 -99 773 -2 857 81 883 c 1
 175 882 l 2
 540 879 722 863 1087 863 c 0
 1438 863 1578 886 1585 881 c 0
 1587 880 1589 878 1589 875 c 0
 1589 848 1489 762 1422 740 c 0
 1390 729 1126 718 924 718 c 0
 642 718 700 740 608 671 c 0
 334 467 304 230 304 129 c 0
 304 -157 605 -297 859 -297 c 0
 1017 -297 1200 -232 1250 -181 c 0
 1371 -58 1310 115 1182 142 c 0
 1168 145 1165 147 1169 157 c 0
 1179 184 1307 300 1372 283 c 0
 1508 248 1573 85 1440 -81 c 0
 1312 -241 996 -441 680 -441 c 0
 403 -441 106 -287 106 3 c 0
 106 424 581 708 586 723 c 0
 586 723 227 737 -12 739 c 0
 -100 740 -99 739 -99 747 c 0
EndSplineSet
EndChar

StartChar: uniE022.conb
Encoding: 65708 -1 344
Width: 1618
VWidth: 0
Flags: HW
LayerCount: 2
Fore
SplineSet
681 -441 m 0
 400 -441 106 -283 106 9 c 0
 106 292 313 531 562 718 c 2
 590 739 l 1
 248 739 l 2
 -125 740 -99 739 -99 747 c 0
 -99 772 -1 858 81 883 c 1
 897 883 l 1
 1088 883 l 2
 1647 883 1713 883 1715 881 c 0
 1717 880 1718 877 1718 875 c 0
 1718 848 1609 759 1546 742 c 0
 1537 739 1533 739 1111 739 c 2
 686 739 l 1
 662 723 l 2
 506 618 305 420 304 135 c 0
 303 -123 560 -297 859 -297 c 2
 860 -297 l 2
 1038 -297 1195 -223 1236 -191 c 0
 1271 -164 1316 -96 1316 -20 c 0
 1316 69 1249 132 1184 147 c 0
 1166 151 1164 153 1170 165 c 0
 1188 204 1298 282 1347 291 c 0
 1376 296 1512 253 1512 105 c 0
 1512 -150 1035 -441 681 -441 c 0
EndSplineSet
EndChar

StartChar: uniE022.dec
Encoding: 65709 -1 345
Width: 1933
VWidth: 0
Flags: HW
LayerCount: 2
Fore
SplineSet
107 32 m 0
 107 560 718 873 718 885 c 0
 718 885 713 887 707 888 c 2
 655 894 l 2
 510 912 436 912 412 912 c 0
 279 912 185 899 80 865 c 0
 40 852 31 851 31 862 c 0
 31 886 102 949 168 984 c 0
 236 1020 407 1059 566 1059 c 0
 907 1059 1215 957 1522 957 c 0
 1635 957 1738 965 1868 1009 c 0
 1892 1017 1903 1016 1903 1007 c 0
 1903 969 1749 810 1357 810 c 0
 1133 810 854 869 812 872 c 0
 804 872 703 814 616 749 c 1
 616 -257 l 1
 709 -295 836 -335 1009 -335 c 0
 1227 -335 1484 -246 1554 -176 c 0
 1618 -112 1630 -37 1630 3 c 0
 1630 84 1577 152 1500 171 c 0
 1482 176 1479 178 1485 190 c 0
 1491 202 1613 338 1698 309 c 0
 1853 257 1910 45 1636 -183 c 0
 1449 -339 1149 -477 825 -477 c 0
 511 -477 107 -330 107 32 c 0
472 609 m 1
 384 495 304 356 304 161 c 0
 304 -61 471 -171 472 -170 c 0
 472 -170 472 -82 472 46 c 0
 472 98 472 158 472 220 c 2
 472 609 l 1
EndSplineSet
EndChar

StartChar: uniE022.conrbot
Encoding: 65710 -1 346
Width: 1618
VWidth: 0
Flags: HW
LayerCount: 2
Fore
SplineSet
685 -530 m 0
 414 -530 106 -367 106 -47 c 0
 106 415 612 729 601 738 c 0
 597 741 408 748 344 748 c 0
 76 748 31 707 31 732 c 0
 31 758 137 857 223 872 c 0
 276 881 386 895 494 895 c 0
 808 895 1007 859 1255 859 c 0
 1294 859 1444 858 1565 881 c 0
 1582 884 1588 883 1588 875 c 0
 1588 847 1487 763 1426 741 c 0
 1391 728 1234 711 1098 711 c 0
 1002 711 889 718 726 730 c 2
 686 733 l 1
 494 583 304 370 304 77 c 0
 304 -210 584 -387 861 -387 c 0
 1016 -387 1184 -322 1238 -278 c 0
 1258 -262 1316 -197 1316 -110 c 0
 1316 -64 1284 0 1205 -0 c 0
 1181 0 1179 0 1179 8 c 0
 1179 32 1273 116 1359 143 c 1
 1535 143 l 2
 1729 143 1718 143 1718 135 c 0
 1718 105 1586 0 1524 -0 c 2
 1512 -0 l 1
 1512 -5 l 2
 1512 -196 1077 -530 685 -530 c 0
EndSplineSet
EndChar

StartChar: uniE022.conbbot
Encoding: 65711 -1 347
Width: 1618
VWidth: 0
Flags: HW
LayerCount: 2
Fore
SplineSet
-99 747 m 0
 -99 773 -2 857 81 883 c 1
 175 882 l 2
 540 879 722 863 1087 863 c 0
 1438 863 1578 886 1585 881 c 0
 1587 880 1589 878 1589 875 c 0
 1589 848 1489 762 1422 740 c 0
 1407 735 1245 718 915 718 c 0
 860 718 805 718 764 719 c 2
 688 720 l 1
 493 573 304 363 304 71 c 0
 304 -214 584 -387 860 -387 c 0
 1015 -387 1184 -322 1238 -278 c 0
 1267 -254 1315 -186 1315 -111 c 0
 1315 -59 1281 0 1205 -0 c 0
 1181 0 1179 0 1179 8 c 0
 1179 32 1273 116 1359 143 c 1
 1535 143 l 2
 1729 143 1718 143 1718 135 c 0
 1718 105 1586 0 1524 -0 c 2
 1512 -0 l 1
 1512 -5 l 2
 1512 -201 1067 -530 689 -530 c 0
 407 -530 106 -367 106 -52 c 0
 106 251 325 508 579 706 c 1
 600 723 l 2
 600 723 175 737 -12 739 c 0
 -100 740 -99 739 -99 747 c 0
EndSplineSet
EndChar

StartChar: uniE023
Encoding: 57379 57379 348
Width: 1618
VWidth: 0
Flags: HW
LayerCount: 2
Fore
SplineSet
597 -18 m 0
 386 -18 106 43 106 273 c 0
 106 365 141 543 472 733 c 0
 483 739 491 745 490 745 c 0
 486 746 398 748 348 748 c 0
 68 748 31 707 31 732 c 0
 31 758 137 857 223 872 c 0
 276 881 386 895 494 895 c 0
 808 895 1007 859 1255 859 c 0
 1294 859 1444 858 1565 881 c 0
 1582 884 1588 883 1588 875 c 0
 1588 847 1487 763 1426 741 c 0
 1397 731 1246 711 1100 711 c 0
 1006 711 892 718 714 731 c 2
 657 735 l 1
 400 656 356 597 323 508 c 0
 311 475 304 434 304 398 c 0
 304 198 550 125 776 125 c 0
 921 125 1128 163 1261 163 c 0
 1480 163 1512 65 1512 -34 c 0
 1513 -307 1170 -522 952 -522 c 0
 800 -522 737 -407 739 -397 c 0
 747 -356 905 -251 932 -265 c 0
 939 -269 993 -379 1128 -379 c 0
 1258 -379 1266 -332 1266 -332 c 0
 1294 -290 1316 -230 1316 -162 c 0
 1316 -17 1220 20 1084 20 c 0
 938 20 767 -18 597 -18 c 0
EndSplineSet
EndChar

StartChar: uniE023.conr
Encoding: 65712 -1 349
Width: 1618
VWidth: 0
Flags: HW
LayerCount: 2
Fore
SplineSet
598 -16 m 0
 391 -16 107 43 107 276 c 0
 107 455 246 602 451 725 c 2
 476 740 l 1
 438 739 246 734 94 727 c 0
 29 724 31 724 31 732 c 0
 31 761 142 853 204 869 c 0
 224 874 514 886 868 886 c 0
 1684 886 1718 882 1718 877 c 0
 1718 852 1629 768 1538 739 c 1
 1258 740 l 2
 1131 740 975 741 875 741 c 0
 853 741 835 741 819 741 c 2
 659 741 l 1
 631 731 l 2
 472 678 305 623 304 402 c 0
 304 183 582 128 774 128 c 0
 942 128 1098 164 1254 164 c 2
 1256 164 l 2
 1382 164 1513 144 1513 -36 c 0
 1513 -300 1175 -522 952 -522 c 0
 801 -522 737 -407 739 -397 c 0
 747 -356 905 -251 932 -265 c 0
 937 -268 992 -379 1128 -379 c 0
 1250 -379 1259 -343 1273 -320 c 0
 1300 -276 1316 -215 1316 -161 c 0
 1316 7 1182 20 1081 20 c 0
 936 20 767 -16 598 -16 c 0
EndSplineSet
EndChar

StartChar: uniE023.conl
Encoding: 65713 -1 350
Width: 1618
VWidth: 0
Flags: HW
LayerCount: 2
Fore
SplineSet
-99 747 m 0
 -99 773 -2 857 81 883 c 1
 175 882 l 2
 540 879 722 863 1087 863 c 0
 1438 863 1578 886 1585 881 c 0
 1587 880 1589 878 1589 875 c 0
 1589 848 1489 762 1422 740 c 0
 1406 735 1238 718 922 718 c 0
 842 718 760 719 720 720 c 2
 661 721 l 1
 633 713 l 2
 391 637 369 584 348 550 c 0
 319 504 304 445 304 391 c 0
 304 173 580 119 776 119 c 0
 926 119 1118 158 1264 158 c 0
 1463 158 1512 79 1512 -41 c 0
 1512 -300 1175 -522 952 -522 c 0
 800 -522 737 -407 739 -397 c 0
 747 -356 905 -251 932 -265 c 0
 939 -269 992 -379 1128 -379 c 0
 1255 -379 1266 -334 1266 -334 c 0
 1303 -278 1316 -215 1316 -164 c 0
 1316 1 1182 14 1087 14 c 0
 929 14 771 -25 600 -25 c 0
 403 -25 107 26 107 263 c 0
 107 325 111 486 405 679 c 0
 433 697 481 726 481 726 c 0
 480 727 142 737 -12 739 c 0
 -100 740 -99 739 -99 747 c 0
EndSplineSet
EndChar

StartChar: uniE023.conb
Encoding: 65714 -1 351
Width: 1618
VWidth: 0
Flags: HW
LayerCount: 2
Fore
SplineSet
599 -18 m 0
 393 -18 107 40 107 273 c 0
 107 453 247 599 454 723 c 2
 482 739 l 1
 194 739 l 1
 87 739 l 2
 -116 739 -99 740 -99 747 c 0
 -99 772 -1 858 81 883 c 1
 897 883 l 1
 1088 883 l 2
 1647 883 1713 883 1715 881 c 0
 1717 880 1718 877 1718 875 c 0
 1718 848 1609 759 1546 742 c 0
 1537 739 1533 739 1102 739 c 2
 668 739 l 1
 484 681 304 624 304 400 c 0
 304 180 585 125 777 125 c 0
 927 125 1115 163 1261 163 c 0
 1462 163 1512 85 1512 -34 c 0
 1513 -300 1179 -522 949 -522 c 0
 803 -522 737 -407 739 -397 c 0
 747 -356 905 -251 932 -265 c 0
 939 -269 993 -379 1128 -379 c 0
 1258 -379 1266 -332 1266 -332 c 0
 1295 -289 1316 -229 1316 -160 c 0
 1316 -16 1216 20 1083 20 c 0
 938 20 768 -18 599 -18 c 0
EndSplineSet
EndChar

StartChar: uniE023.dec
Encoding: 65715 -1 352
Width: 1933
VWidth: 0
Flags: HW
LayerCount: 2
Fore
SplineSet
716 10 m 0
 470 10 106 62 106 341 c 0
 106 676 553 878 603 899 c 0
 605 900 602 900 586 902 c 0
 532 908 476 912 413 912 c 0
 279 912 185 899 80 865 c 0
 40 852 31 851 31 862 c 0
 31 886 102 949 168 984 c 0
 236 1020 407 1059 566 1059 c 0
 907 1059 1215 957 1522 957 c 0
 1635 957 1738 965 1868 1009 c 0
 1892 1017 1904 1016 1904 1007 c 0
 1904 982 1780 810 1355 810 c 0
 1235 810 1124 822 911 856 c 2
 795 874 l 1
 766 867 l 2
 729 858 686 845 647 833 c 2
 616 823 l 1
 616 180 l 1
 725 157 840 153 896 153 c 0
 1119 153 1334 211 1533 211 c 0
 1658 211 1828 195 1828 -28 c 0
 1828 -203 1708 -340 1540 -447 c 0
 1444 -508 1318 -567 1169 -567 c 0
 1024 -567 950 -457 957 -439 c 0
 973 -396 1102 -309 1142 -309 c 0
 1161 -309 1194 -423 1348 -423 c 0
 1430 -423 1528 -398 1550 -373 c 0
 1601 -317 1630 -240 1630 -151 c 0
 1630 25 1512 69 1356 69 c 0
 1183 69 946 10 716 10 c 0
304 466 m 0
 304 291 471 227 471 227 c 0
 472 227 472 348 472 495 c 0
 472 642 472 762 471 762 c 0
 457 762 304 674 304 466 c 0
EndSplineSet
EndChar

StartChar: uniE024
Encoding: 57380 57380 353
Width: 1165
VWidth: 0
Flags: HW
LayerCount: 2
Fore
SplineSet
530 1566 m 0
 530 1597 664 1701 719 1701 c 0
 759 1701 818 1677 818 1598 c 0
 818 1401 636 1161 540 1026 c 2
 467 924 l 1
 332 729 278 605 278 484 c 0
 278 280 437 113 631 113 c 0
 705 113 774 137 797 161 c 0
 847 214 887 293 887 377 c 0
 887 444 851 519 749 556 c 1
 749 601 901 710 949 693 c 0
 1003 674 1084 618 1084 501 c 0
 1084 246 703 -31 454 -31 c 0
 259 -31 81 129 81 359 c 0
 81 497 152 642 297 848 c 1
 370 952 l 2
 508 1146 608 1295 620 1449 c 0
 624 1499 607 1559 541 1559 c 0
 534 1559 530 1562 530 1566 c 0
EndSplineSet
EndChar

StartChar: uniE024.flat
Encoding: 65716 -1 354
Width: 1165
VWidth: 0
Flags: HW
LayerCount: 2
Fore
SplineSet
795 1573 m 0
 795 1604 933 1702 987 1702 c 0
 1018 1702 1090 1676 1090 1590 c 0
 1090 1397 928 1216 777 1077 c 1
 660 973 l 1
 443 784 278 649 278 466 c 0
 278 297 414 113 632 113 c 0
 704 113 774 136 797 161 c 0
 847 214 887 293 887 377 c 0
 887 444 851 519 749 556 c 1
 749 601 901 710 949 693 c 0
 1003 674 1084 618 1084 501 c 0
 1084 246 703 -31 454 -31 c 0
 258 -31 81 119 81 345 c 0
 81 538 259 706 483 904 c 2
 564 977 l 1
 714 1113 881 1280 881 1483 c 0
 881 1555 823 1565 806 1565 c 0
 797 1565 795 1567 795 1573 c 0
EndSplineSet
EndChar

StartChar: uniE024.open
Encoding: 65717 -1 355
Width: 1165
VWidth: 0
Flags: HW
LayerCount: 2
Fore
SplineSet
359 1552 m 0
 359 1583 486 1701 538 1701 c 0
 665 1701 661 1531 556 1274 c 0
 448 1010 278 743 278 515 c 0
 278 306 425 113 631 113 c 0
 705 113 774 137 797 161 c 0
 847 214 887 293 887 377 c 0
 887 444 851 519 749 556 c 1
 749 601 901 710 949 693 c 0
 1003 674 1084 618 1084 501 c 0
 1084 246 702 -31 455 -31 c 0
 230 -31 81 170 81 386 c 0
 81 559 188 774 269 940 c 1
 346 1102 l 1
 469 1378 483 1534 375 1543 c 0
 363 1544 359 1545 359 1552 c 0
EndSplineSet
EndChar

StartChar: uniE024.lig
Encoding: 65718 -1 356
Width: 745
VWidth: 0
Flags: HW
LayerCount: 2
Fore
SplineSet
466 -31 m 0
 267 -31 81 132 81 359 c 0
 81 492 152 631 273 801 c 1
 472 1069 l 1
 701 1390 676 1549 573 1558 c 0
 559 1559 557 1561 558 1568 c 0
 562 1600 695 1701 744 1701 c 0
 886 1701 896 1506 667 1179 c 0
 641 1142 614 1105 556 1029 c 2
 450 886 l 1
 357 756 278 622 278 484 c 0
 278 293 429 121 636 113 c 0
 745 109 793 177 821 212 c 0
 885 292 923 378 927 455 c 0
 931 516 1080 601 1114 601 c 0
 1125 601 1125 595 1125 587 c 0
 1125 335 720 -31 466 -31 c 0
EndSplineSet
EndChar

StartChar: uniE024.lig_flat
Encoding: 65719 -1 357
Width: 745
VWidth: 0
Flags: HW
LayerCount: 2
Fore
SplineSet
836 1573 m 0
 836 1604 974 1702 1028 1702 c 0
 1055 1702 1131 1679 1131 1589 c 0
 1131 1327 832 1094 635 934 c 2
 549 863 l 1
 359 704 278 599 278 467 c 0
 278 294 421 122 636 113 c 0
 743 109 789 172 821 212 c 0
 885 292 923 378 927 455 c 0
 931 516 1080 601 1114 601 c 0
 1147 601 1103 464 1060 389 c 0
 945 190 661 -31 465 -31 c 0
 270 -31 81 121 81 343 c 0
 81 770 922 1025 922 1483 c 0
 922 1555 863 1565 847 1565 c 0
 838 1565 836 1567 836 1573 c 0
EndSplineSet
EndChar

StartChar: uniE024.lig_open
Encoding: 65720 -1 358
Width: 745
VWidth: 0
Flags: HW
LayerCount: 2
Fore
SplineSet
81 388 m 0
 81 708 466 1155 466 1456 c 0
 466 1555 378 1535 378 1552 c 0
 378 1587 510 1702 554 1702 c 0
 581 1702 654 1691 654 1589 c 0
 654 1273 278 841 278 516 c 0
 278 240 510 96 669 113 c 0
 736 120 770 149 821 212 c 0
 885 292 923 378 927 455 c 0
 931 516 1080 601 1114 601 c 0
 1125 601 1125 595 1125 587 c 0
 1125 333 716 -31 469 -31 c 0
 251 -31 81 155 81 388 c 0
EndSplineSet
EndChar

StartChar: uniE025
Encoding: 57381 57381 359
Width: 1165
VWidth: 0
Flags: HW
LayerCount: 2
Fore
SplineSet
81 376 m 0
 81 660 463 913 668 913 c 0
 880 913 1083 735 1083 417 c 0
 1083 -10 846 -495 388 -768 c 0
 334 -800 288 -820 265 -820 c 0
 232 -820 265 -779 348 -729 c 0
 664 -539 886 -101 886 299 c 0
 886 577 697 770 497 770 c 0
 465 770 396 763 371 736 c 0
 169 519 327 207 541 207 c 0
 604 207 597 225 649 243 c 0
 677 253 687 248 677 229 c 0
 657 192 503 64 365 64 c 0
 226 64 81 188 81 376 c 0
EndSplineSet
EndChar

StartChar: uniE026
Encoding: 57382 57382 360
Width: 1177
VWidth: 0
Flags: HW
LayerCount: 2
Fore
SplineSet
330 312 m 0
 330 315 218 384 218 543 c 0
 218 853 680 1167 693 1466 c 0
 696 1537 640 1558 615 1558 c 0
 605 1558 601 1566 606 1576 c 0
 625 1614 742 1701 792 1701 c 0
 836 1701 906 1673 888 1557 c 0
 873 1461 822 1359 716 1213 c 1
 663 1142 l 1
 492 916 415 801 415 668 c 0
 415 525 520 417 645 417 c 0
 775 417 829 505 897 550 c 0
 935 575 955 577 947 554 c 0
 929 500 694 265 482 265 c 0
 437 265 413 272 385 282 c 1
 308 197 278 87 278 -7 c 0
 278 -176 428 -325 633 -325 c 0
 733 -325 835 -289 847 -278 c 0
 858 -268 887 -221 887 -166 c 0
 887 -90 838 -18 763 7 c 0
 750 11 749 13 749 18 c 0
 749 53 892 153 934 153 c 0
 950 153 1083 110 1083 -39 c 0
 1083 -234 739 -468 460 -468 c 0
 245 -468 81 -330 81 -131 c 0
 81 156 330 303 330 312 c 0
EndSplineSet
EndChar

StartChar: uniE026.flat
Encoding: 65721 -1 361
Width: 1177
VWidth: 0
Flags: HW
LayerCount: 2
Fore
SplineSet
218 532 m 0
 218 882 901 1107 901 1485 c 0
 901 1574 815 1559 815 1573 c 0
 815 1604 954 1702 1008 1702 c 0
 1047 1702 1111 1669 1111 1592 c 0
 1111 1247 538 992 436 752 c 0
 422 719 415 687 415 654 c 0
 415 535 509 417 645 417 c 0
 775 417 830 508 901 553 c 0
 926 569 944 574 948 566 c 0
 964 532 706 265 482 265 c 0
 444 265 426 269 385 282 c 1
 309 196 278 91 278 -6 c 0
 278 -184 435 -326 633 -326 c 0
 733 -326 835 -289 847 -278 c 0
 858 -267 887 -221 887 -166 c 0
 887 -90 838 -18 763 7 c 0
 750 11 749 13 749 18 c 0
 749 53 892 153 934 153 c 0
 950 153 1083 110 1083 -39 c 0
 1083 -234 739 -468 460 -468 c 0
 245 -468 81 -332 81 -127 c 0
 81 -43 104 128 312 296 c 0
 340 318 331 304 292 345 c 0
 244 395 218 460 218 532 c 0
EndSplineSet
EndChar

StartChar: uniE026.open
Encoding: 65722 -1 362
Width: 1177
VWidth: 0
Flags: HW
LayerCount: 2
Fore
SplineSet
218 564 m 0
 218 833 534 1202 534 1461 c 0
 534 1542 447 1544 446 1545 c 0
 428 1563 563 1701 625 1701 c 0
 656 1701 722 1680 722 1594 c 0
 722 1325 415 961 415 694 c 0
 415 528 522 417 645 417 c 0
 773 417 831 506 897 550 c 0
 935 575 955 577 947 554 c 0
 932 510 707 265 476 265 c 0
 434 265 413 273 384 284 c 1
 250 135 211 -162 461 -286 c 0
 514 -312 572 -325 634 -325 c 0
 734 -325 835 -289 847 -278 c 0
 858 -267 887 -221 887 -166 c 0
 887 -90 838 -18 763 7 c 0
 750 11 749 13 749 18 c 0
 749 53 892 153 934 153 c 0
 950 153 1083 110 1083 -39 c 0
 1083 -235 741 -469 453 -469 c 0
 258 -469 81 -336 81 -132 c 0
 81 -47 100 132 316 303 c 0
 329 314 332 317 329 317 c 0
 327 317 218 401 218 564 c 0
EndSplineSet
EndChar

StartChar: uniE027
Encoding: 57383 57383 363
Width: 1177
VWidth: 0
Flags: HW
LayerCount: 2
Fore
SplineSet
81 482 m 0
 81 698 462 913 692 913 c 0
 983 913 1084 723 1084 582 c 0
 1084 335 866 183 853 171 c 0
 852 170 1044 118 1044 -109 c 0
 1044 -633 491 -900 374 -900 c 0
 359 -900 350 -895 360 -882 c 0
 400 -828 511 -829 651 -689 c 0
 766 -574 846 -411 846 -225 c 0
 846 -50 686 73 525 9 c 0
 440 -24 373 -121 324 -126 c 0
 312 -127 309 -121 315 -107 c 0
 337 -54 551 158 750 177 c 0
 776 180 781 183 792 196 c 0
 861 273 887 380 887 459 c 0
 887 621 741 769 532 769 c 0
 420 769 327 731 318 723 c 0
 307 712 278 665 278 610 c 0
 278 538 317 467 415 431 c 1
 415 382 276 296 234 291 c 0
 211 288 81 342 81 482 c 0
EndSplineSet
EndChar

StartChar: uniE02B
Encoding: 57387 57387 364
Width: 1123
VWidth: 0
Flags: HW
LayerCount: 2
Fore
SplineSet
466 -31 m 0
 238 -31 81 151 81 348 c 0
 81 710 476 913 644 913 c 0
 911 913 1043 712 1043 534 c 0
 1043 195 684 -31 466 -31 c 0
846 403 m 0
 846 583 706 769 474 769 c 0
 389 769 352 753 309 643 c 0
 288 590 278 534 278 480 c 0
 278 276 444 112 643 112 c 0
 756 112 766 151 766 151 c 0
 817 218 846 312 846 403 c 0
EndSplineSet
EndChar

StartChar: uniE02B.conr
Encoding: 65723 -1 365
Width: 1175
VWidth: 0
Flags: HW
LayerCount: 2
Fore
SplineSet
466 -31 m 0
 238 -31 81 151 81 348 c 0
 81 701 461 913 653 913 c 0
 719 913 843 887 1200 883 c 0
 1276 882 1274 882 1274 875 c 0
 1274 850 1188 780 1124 751 c 0
 1102 741 1104 740 1058 740 c 2
 1040 740 l 2
 1008 740 982 740 982 740 c 0
 982 737 1062 636 1040 471 c 0
 1002 190 689 -31 466 -31 c 0
846 403 m 0
 846 594 696 770 471 770 c 0
 435 770 381 757 372 748 c 0
 337 710 278 613 278 480 c 0
 278 269 451 112 643 112 c 0
 756 112 766 151 766 151 c 0
 816 217 846 310 846 403 c 0
EndSplineSet
EndChar

StartChar: uniE032
Encoding: 57394 57394 366
Width: 1026
VWidth: 0
Flags: HW
LayerCount: 2
Fore
SplineSet
81 318 m 0
 81 630 480 882 662 882 c 0
 791 882 854 792 858 776 c 0
 865 748 732 647 676 639 c 0
 654 636 585 791 405 723 c 0
 374 711 278 586 278 443 c 0
 278 281 424 53 709 127 c 0
 855 165 899 239 980 293 c 0
 1024 322 1057 336 1073 336 c 0
 1080 336 1084 333 1084 328 c 0
 1084 298 732 -31 416 -31 c 0
 242 -31 81 124 81 318 c 0
EndSplineSet
EndChar

StartChar: uniE032.desc
Encoding: 65724 -1 367
Width: 1087
VWidth: 0
Flags: HW
LayerCount: 2
Fore
SplineSet
81 318 m 0
 81 630 480 882 662 882 c 0
 791 882 854 792 858 776 c 0
 865 748 732 647 676 639 c 0
 654 636 585 791 405 723 c 0
 374 711 278 586 278 443 c 0
 278 281 424 53 709 127 c 0
 855 165 899 239 980 293 c 0
 1021 320 1056 336 1073 336 c 0
 1080 336 1084 333 1084 328 c 0
 1084 307 981 200 765 -125 c 0
 723 -188 678 -255 652 -255 c 0
 642 -255 633 -232 696 -132 c 1
 721 -90 l 2
 756 -30 837 113 837 116 c 0
 837 116 677 19 562 -11 c 0
 512 -24 459 -31 416 -31 c 0
 241 -31 81 124 81 318 c 0
EndSplineSet
EndChar

StartChar: uniE032.dec
Encoding: 65725 -1 368
Width: 1171
VWidth: 0
Flags: HW
LayerCount: 2
Fore
SplineSet
80 373 m 0
 80 709 508 1014 761 1014 c 0
 906 1014 989 897 989 884 c 0
 989 851 815 718 790 757 c 0
 776 779 706 878 553 870 c 1
 553 121 l 1
 631 103 806 95 1025 265 c 0
 1106 328 1167 350 1167 329 c 0
 1167 289 779 -31 453 -31 c 0
 230 -31 80 179 80 373 c 0
409 812 m 0
 406 812 278 680 278 498 c 0
 278 377 331 282 409 202 c 1
 410 507 l 1
 410 558 l 2
 410 702 409 812 409 812 c 0
EndSplineSet
EndChar

StartChar: uniE031
Encoding: 57393 57393 369
Width: 1077
VWidth: 0
Flags: HW
LayerCount: 2
Fore
SplineSet
97 400 m 0
 81 400 56 442 56 496 c 0
 56 701 372 913 653 913 c 0
 833 913 971 812 971 661 c 0
 971 328 567 167 567 156 c 0
 567 155 603 155 675 155 c 0
 929 155 929 150 982 185 c 0
 1057 235 1100 247 1100 229 c 0
 1100 187 821 -4 715 -4 c 0
 692 -4 609 -2 532 1 c 2
 406 5 l 2
 370 6 326 7 282 7 c 0
 53 7 50 -6 50 8 c 0
 50 13 124 148 328 148 c 0
 351 148 569 209 654 271 c 0
 679 289 774 376 774 534 c 0
 774 686 622 770 478 770 c 0
 404 770 297 749 284 731 c 0
 264 703 229 611 277 546 c 0
 306 506 135 400 97 400 c 0
EndSplineSet
EndChar

StartChar: uniE031.desc
Encoding: 65726 -1 370
Width: 1065
VWidth: 0
Flags: HW
LayerCount: 2
Fore
SplineSet
55 453 m 0
 55 692 410 913 641 913 c 0
 879 913 971 737 971 602 c 0
 971 249 621 -107 259 -355 c 1
 759 -327 885 -380 984 -315 c 0
 1064 -262 1101 -259 1101 -274 c 0
 1101 -308 842 -506 702 -506 c 0
 609 -506 423 -496 237 -496 c 0
 -16 -496 -16 -510 -16 -494 c 0
 -16 -477 35 -402 156 -342 c 0
 469 -186 774 146 774 471 c 0
 774 627 655 770 476 770 c 0
 415 770 324 750 307 735 c 0
 282 714 195 544 311 465 c 0
 324 456 325 455 319 444 c 0
 297 402 176 318 136 318 c 0
 125 318 55 357 55 453 c 0
EndSplineSet
EndChar

StartChar: uniE029
Encoding: 57385 57385 371
Width: 1440
VWidth: 0
Flags: HW
LayerCount: 2
Fore
SplineSet
630 913 m 0
 721 913 780 892 846 860 c 1
 846 912 l 2
 846 985 848 1082 848 1149 c 0
 848 1278 855 1589 723 1535 c 0
 710 1530 688 1524 694 1544 c 0
 708 1589 831 1702 911 1702 c 0
 1002 1702 1034 1586 1041 1347 c 0
 1059 717 1019 237 1085 162 c 0
 1089 158 1092 153 1092 153 c 0
 1092 152 1305 127 1318 127 c 0
 1400 127 1400 169 1470 184 c 0
 1479 186 1487 185 1487 177 c 0
 1487 152 1316 -15 1140 -15 c 0
 1057 -15 986 8 903 8 c 0
 771 8 590 -31 459 -31 c 0
 232 -31 81 140 81 358 c 0
 81 685 415 913 630 913 c 0
279 476 m 0
 279 283 428 112 631 112 c 0
 720 112 857 132 858 133 c 0
 862 138 847 151 845 362 c 0
 844 447 850 552 742 656 c 0
 665 730 563 770 440 770 c 0
 361 770 356 740 356 740 c 0
 296 655 279 555 279 476 c 0
EndSplineSet
EndChar

StartChar: uniE03D
Encoding: 57405 57405 372
Width: 1358
VWidth: 0
Flags: HW
LayerCount: 2
Fore
SplineSet
463 -31 m 0
 224 -31 81 146 81 358 c 0
 81 699 435 913 626 913 c 0
 829 913 1041 783 1041 545 c 0
 1041 378 964 244 823 126 c 1
 826 126 966 146 1069 146 c 0
 1173 146 1200 128 1270 128 c 0
 1324 128 1353 173 1396 173 c 0
 1403 173 1407 171 1407 166 c 0
 1407 142 1245 -15 1089 -15 c 0
 1014 -15 976 3 901 3 c 0
 752 3 594 -31 463 -31 c 0
844 420 m 0
 844 593 699 770 440 770 c 0
 361 770 356 740 356 740 c 0
 296 655 279 555 279 476 c 0
 279 282 430 113 628 113 c 0
 751 113 760 156 760 156 c 0
 813 225 844 324 844 420 c 0
EndSplineSet
EndChar

StartChar: uniE03C
Encoding: 57404 57404 373
Width: 1285
VWidth: 0
Flags: HW
LayerCount: 2
Fore
SplineSet
275 -768 m 0
 181 -768 81 -694 81 -584 c 0
 81 -384 221 -200 388 -84 c 0
 392 -81 402 393 402 633 c 0
 402 1193 400 1593 257 1536 c 0
 235 1527 225 1528 227 1540 c 0
 232 1573 353 1702 441 1702 c 0
 568 1702 594 1485 600 817 c 2
 601 711 l 1
 679 781 818 897 989 897 c 2
 990 897 l 2
 1162 897 1204 730 1204 630 c 0
 1204 211 605 61 392 -193 c 0
 280 -327 271 -455 280 -491 c 0
 296 -557 382 -625 450 -625 c 0
 535 -625 558 -583 558 -583 c 0
 623 -507 741 -433 670 -538 c 0
 611 -625 461 -768 275 -768 c 0
1007 515 m 0
 1007 642 928 754 821 754 c 0
 733 754 665 711 600 632 c 1
 599 536 l 2
 596 256 586 58 587 42 c 1
 630 67 l 2
 852 199 1007 300 1007 515 c 0
EndSplineSet
EndChar

StartChar: uniE058
Encoding: 57432 57432 374
Width: 1091
VWidth: 0
Flags: HW
LayerCount: 2
Fore
SplineSet
223 4 m 0
 -98 4 -99 -11 -99 7 c 0
 -99 40 26 128 75 140 c 0
 91 144 367 148 409 148 c 0
 608 148 985 130 985 -135 c 0
 985 -405 640 -645 378 -645 c 0
 376 -645 250 -655 174 -538 c 0
 164 -523 165 -521 172 -509 c 0
 197 -466 314 -387 353 -387 c 0
 372 -387 408 -502 558 -502 c 0
 622 -502 700 -484 719 -462 c 0
 770 -404 788 -325 788 -266 c 0
 788 -93 596 -15 412 -1 c 0
 371 2 299 4 223 4 c 0
EndSplineSet
EndChar

StartChar: uniE058.high
Encoding: 65727 -1 375
Width: 1011
VWidth: 0
Flags: HW
LayerCount: 2
Fore
SplineSet
103 883 m 0
 156 883 263 888 370 888 c 0
 824 888 905 708 905 588 c 0
 905 304 550 60 295 60 c 0
 151 60 86 175 86 184 c 0
 86 217 226 319 272 319 c 0
 293 319 325 204 479 204 c 0
 537 204 612 221 629 240 c 0
 686 305 707 394 707 459 c 0
 707 572 618 722 293 742 c 0
 276 743 234 744 187 744 c 0
 -95 744 -99 731 -99 747 c 0
 -99 770 20 883 103 883 c 0
EndSplineSet
EndChar

StartChar: uniE034
Encoding: 57396 57396 376
Width: 846
VWidth: 0
Flags: HW
LayerCount: 2
Fore
SplineSet
181 198 m 0
 181 324 184 451 184 514 c 0
 184 669 128 739 78 718 c 0
 62 711 52 713 52 722 c 0
 52 754 163 868 239 881 c 0
 246 882 256 882 296 882 c 0
 336 882 405 882 530 881 c 2
 984 877 l 2
 1207 875 1227 876 1227 870 c 0
 1227 842 1105 737 1035 732 c 0
 986 729 376 728 373 725 c 0
 373 725 383 711 383 321 c 0
 383 185 384 134 418 130 c 0
 427 129 428 127 428 122 c 0
 428 86 296 -31 253 -31 c 0
 195 -31 181 62 181 198 c 0
EndSplineSet
EndChar

StartChar: uniE034.conr
Encoding: 65728 -1 377
Width: 846
VWidth: 0
Flags: HW
LayerCount: 2
Fore
SplineSet
267 883 m 0
 347 883 516 885 535 885 c 0
 931 885 945 884 945 877 c 0
 945 848 823 745 758 739 c 0
 723 736 614 739 400 732 c 2
 371 731 l 1
 378 693 383 658 383 321 c 0
 383 185 384 134 418 130 c 0
 427 129 428 127 428 122 c 0
 428 86 296 -31 253 -31 c 0
 195 -31 181 62 181 198 c 0
 181 324 184 451 184 514 c 0
 184 669 128 739 78 718 c 0
 62 711 52 713 52 722 c 0
 52 753 176 883 259 883 c 2
 260 883 l 2
 261 883 264 883 267 883 c 0
EndSplineSet
EndChar

StartChar: uniE057.norm
Encoding: 65729 -1 378
Width: 0
VWidth: 0
Flags: HW
LayerCount: 2
Fore
SplineSet
-95 -217 m 1
 -65 -158 50 -77 85 -77 c 0
 96 -77 104 -83 104 -575 c 0
 104 -641 103 -681 62 -721 c 0
 11 -770 -101 -819 -142 -819 c 0
 -152 -819 -157 -816 -157 -811 c 0
 -157 -790 -114 -783 -105 -745 c 0
 -93 -692 -93 -482 -93 -402 c 0
 -93 -349 -93 -298 -94 -267 c 2
 -95 -217 l 1
EndSplineSet
EndChar

StartChar: uniE057.lambe
Encoding: 65730 -1 379
Width: 0
VWidth: 0
Flags: HW
LayerCount: 2
Fore
SplineSet
-95 229 m 1
 -69 288 51 370 85 370 c 0
 98 370 107 317 107 -296 c 0
 107 -580 109 -666 52 -723 c 0
 3 -772 -109 -820 -149 -820 c 0
 -159 -820 -164 -817 -164 -811 c 0
 -164 -795 -130 -780 -123 -762 c 0
 -93 -686 -90 -505 -90 -120 c 0
 -90 44 -91 17 -94 154 c 2
 -95 229 l 1
EndSplineSet
EndChar

StartChar: uniE04C.norm
Encoding: 65731 -1 380
Width: 0
VWidth: 0
Flags: HW
LayerCount: 2
Fore
SplineSet
-228 1332 m 0
 -228 1477 19 1618 156 1618 c 0
 220 1618 326 1590 326 1480 c 0
 326 1359 181 1158 76 1015 c 2
 -9 897 l 2
 -52 836 -88 797 -108 797 c 0
 -162 797 128 1174 128 1350 c 0
 128 1471 -23 1495 -27 1476 c 0
 -42 1413 16 1412 -78 1337 c 0
 -129 1297 -185 1268 -208 1268 c 0
 -224 1268 -228 1303 -228 1332 c 0
EndSplineSet
EndChar

StartChar: uniE04C.double_norm
Encoding: 65732 -1 381
Width: 0
VWidth: 0
Flags: HW
LayerCount: 2
Fore
SplineSet
115 1533 m 1
 175 1569 250 1611 341 1611 c 0
 439 1611 511 1560 511 1472 c 0
 511 1333 303 1079 247 1007 c 2
 169 904 l 2
 123 843 83 798 62 798 c 0
 58 798 55 803 55 810 c 0
 55 863 312 1174 312 1345 c 0
 312 1403 273 1471 165 1474 c 0
 133 1475 133 1474 133 1460 c 0
 133 1363 21 1190 -101 1013 c 2
 -177 902 l 2
 -225 831 -256 796 -276 796 c 0
 -281 796 -283 802 -283 807 c 0
 -283 868 -2 1266 -83 1400 c 0
 -122 1465 -205 1466 -220 1467 c 1
 -228 1422 -214 1389 -217 1382 c 0
 -231 1340 -362 1251 -401 1251 c 0
 -411 1251 -422 1261 -422 1316 c 0
 -422 1457 -182 1602 -36 1602 c 0
 28 1602 84 1580 115 1533 c 1
EndSplineSet
EndChar

StartChar: uniE04B.norm
Encoding: 65733 -1 382
Width: 0
VWidth: 0
Flags: HW
LayerCount: 2
Fore
SplineSet
-217 -686 m 0
 -313 -686 -387 -639 -387 -545 c 0
 -387 -369 -119 -140 -50 -77 c 2
 17 -14 l 2
 76 42 111 72 134 72 c 0
 148 72 144 56 126 29 c 0
 67 -61 -189 -232 -189 -418 c 0
 -189 -549 -35 -548 -34 -547 c 0
 -30 -543 -30 -508 -40 -467 c 1
 -8 -397 141 -321 156 -337 c 0
 162 -343 167 -376 167 -397 c 0
 167 -533 -66 -686 -217 -686 c 0
EndSplineSet
EndChar

StartChar: uniE04A.norm
Encoding: 65734 -1 383
Width: 0
VWidth: 0
Flags: HW
LayerCount: 2
Fore
SplineSet
-201 787 m 0
 -204 787 -209 791 -209 804 c 0
 -209 869 16 1363 202 1533 c 0
 249 1576 319 1624 393 1624 c 0
 498 1624 584 1537 584 1425 c 0
 584 1280 420 1208 345 1184 c 0
 304 1171 278 1171 281 1185 c 0
 290 1227 389 1226 389 1318 c 0
 389 1415 245 1570 34 1212 c 0
 -68 1039 -156 787 -201 787 c 0
EndSplineSet
EndChar

StartChar: uniE04A.wide
Encoding: 65735 -1 384
Width: 0
VWidth: 0
Flags: HW
LayerCount: 2
Fore
SplineSet
428 1278 m 0
 428 1336 389 1393 315 1393 c 0
 194 1393 34 1194 -38 1097 c 1
 -154 934 l 2
 -207 858 -253 797 -278 797 c 0
 -283 797 -285 800 -285 807 c 0
 -285 867 107 1445 356 1540 c 0
 378 1549 416 1559 446 1559 c 0
 583 1559 641 1448 641 1363 c 0
 641 1152 332 1123 305 1133 c 0
 276 1144 332 1173 381 1189 c 0
 407 1197 428 1238 428 1278 c 0
EndSplineSet
EndChar

StartChar: uniE04A.narrow
Encoding: 65736 -1 385
Width: 0
VWidth: 0
Flags: HW
LayerCount: 2
Fore
SplineSet
-122 1430 m 0
 -122 1696 3 1748 87 1748 c 0
 174 1748 286 1683 286 1553 c 0
 286 1440 198 1291 171 1291 c 0
 168 1291 163 1294 163 1308 c 0
 163 1369 205 1387 177 1443 c 0
 148 1501 94 1510 70 1510 c 0
 20 1510 -55 1485 -55 1316 c 0
 -55 1101 86 780 29 780 c 0
 -8 780 -122 1183 -122 1430 c 0
EndSplineSet
EndChar

StartChar: uniE04A.double_norm
Encoding: 65737 -1 386
Width: 0
VWidth: 0
Flags: HW
LayerCount: 2
Fore
SplineSet
364 1497 m 1
 399 1529 482 1604 578 1604 c 0
 681 1604 768 1516 768 1405 c 0
 768 1208 456 1136 456 1167 c 0
 456 1210 568 1199 568 1304 c 0
 568 1374 514 1420 457 1420 c 0
 262 1420 74 928 1 826 c 0
 -42 766 -56 787 -42 835 c 0
 -27 889 96 1131 181 1263 c 2
 198 1290 l 1
 193 1319 176 1405 85 1405 c 0
 -139 1405 -280 785 -350 785 c 0
 -358 785 -358 796 -358 807 c 0
 -358 873 -193 1267 -28 1465 c 0
 36 1541 117 1597 199 1597 c 0
 236 1597 313 1585 364 1497 c 1
EndSplineSet
EndChar

StartChar: uniE04A.double_wide
Encoding: 65738 -1 387
Width: 0
VWidth: 0
Flags: HW
LayerCount: 2
Fore
SplineSet
517 1110 m 0
 430 1110 519 1155 571 1169 c 0
 622 1182 651 1343 532 1372 c 0
 312 1426 -30 800 -105 800 c 0
 -111 800 -113 802 -113 810 c 0
 -113 868 144 1178 208 1248 c 0
 225 1267 224 1264 220 1283 c 0
 204 1350 119 1435 -35 1299 c 0
 -107 1235 -168 1160 -258 1024 c 2
 -322 926 l 2
 -374 846 -412 794 -435 794 c 0
 -440 794 -442 799 -442 806 c 0
 -442 866 -166 1292 41 1457 c 0
 82 1490 162 1542 243 1542 c 0
 365 1542 410 1438 412 1438 c 0
 414 1438 631 1626 774 1482 c 0
 814 1442 833 1389 833 1339 c 0
 833 1152 587 1110 517 1110 c 0
EndSplineSet
EndChar

StartChar: uniE04A.double_narrow
Encoding: 65739 -1 388
Width: 0
VWidth: 0
Flags: HW
LayerCount: 2
Fore
SplineSet
-265 1409 m 0
 -265 1641 -140 1700 -58 1700 c 0
 31 1700 78 1644 81 1648 c 0
 115 1696 162 1744 242 1744 c 0
 335 1744 442 1675 442 1551 c 0
 442 1464 390 1370 365 1333 c 0
 315 1257 290 1276 329 1369 c 0
 334 1381 338 1387 338 1400 c 0
 338 1446 291 1507 221 1507 c 0
 149 1507 108 1445 97 1372 c 0
 94 1353 92 1322 92 1291 c 0
 92 1116 170 909 170 822 c 0
 170 797 168 780 159 780 c 0
 107 780 28 1240 28 1385 c 2
 28 1410 l 1
 -35 1496 -192 1490 -192 1288 c 0
 -192 1089 -46 782 -101 782 c 0
 -139 782 -265 1170 -265 1409 c 0
EndSplineSet
EndChar

StartChar: uniE04D.norm
Encoding: 65740 -1 389
Width: 0
VWidth: 0
Flags: HW
LayerCount: 2
Fore
SplineSet
-584 -771 m 0
 -584 -611 -357 -509 -323 -509 c 0
 -289 -509 -337 -556 -383 -590 c 0
 -431 -627 -386 -800 -259 -763 c 0
 -167 -736 -74 -570 -8 -406 c 0
 93 -157 145 100 190 100 c 0
 194 100 200 95 200 75 c 0
 200 9 10 -621 -194 -858 c 0
 -286 -965 -364 -969 -393 -969 c 0
 -505 -969 -584 -870 -584 -771 c 0
EndSplineSet
EndChar

StartChar: uniE04D.narrow
Encoding: 65741 -1 390
Width: 0
VWidth: 0
Flags: HW
LayerCount: 2
Fore
SplineSet
-73 -941 m 0
 -177 -941 -273 -863 -273 -747 c 0
 -273 -607 -168 -468 -152 -488 c 0
 -136 -508 -179 -580 -172 -612 c 0
 -149 -716 69 -791 69 -502 c 0
 69 -275 -83 102 -29 102 c 0
 18 102 137 -379 137 -623 c 0
 137 -884 11 -941 -73 -941 c 0
EndSplineSet
EndChar

StartChar: uniE04D.wide
Encoding: 65742 -1 391
Width: 0
VWidth: 0
Flags: HW
LayerCount: 2
Fore
SplineSet
-465 -884 m 0
 -564 -884 -653 -804 -653 -683 c 0
 -653 -496 -338 -411 -338 -449 c 0
 -338 -472 -418 -505 -427 -514 c 0
 -480 -569 -447 -702 -340 -702 c 0
 -234 -702 -86 -530 90 -206 c 1
 159 -76 l 2
 217 33 252 93 276 93 c 0
 279 93 284 90 284 78 c 0
 284 8 -93 -715 -347 -851 c 0
 -388 -873 -428 -884 -465 -884 c 0
EndSplineSet
EndChar

StartChar: uniE04D.long
Encoding: 65743 -1 392
Width: 0
VWidth: 0
Flags: HW
LayerCount: 2
Fore
SplineSet
-518 -733 m 0
 -518 -812 -457 -850 -406 -850 c 0
 -342 -850 -293 -803 -258 -769 c 0
 -57 -576 91 -313 217 -93 c 2
 270 0 l 2
 295 43 331 90 349 90 c 0
 354 90 357 86 357 77 c 0
 357 42 313 -44 143 -327 c 0
 -121 -766 -366 -1027 -535 -1027 c 0
 -648 -1027 -723 -931 -723 -829 c 0
 -723 -663 -509 -599 -443 -589 c 0
 -409 -584 -399 -590 -399 -596 c 0
 -399 -621 -483 -646 -499 -669 c 0
 -521 -701 -518 -726 -518 -733 c 0
EndSplineSet
EndChar

StartChar: uniE059.norm
Encoding: 65744 -1 393
Width: 0
VWidth: 0
Flags: HW
LayerCount: 2
Fore
SplineSet
-335 -308 m 0
 -335 -112 -37 71 11 71 c 0
 45 71 -14 13 -58 -20 c 0
 -202 -126 -139 -354 39 -354 c 0
 102 -354 123 -313 165 -313 c 0
 170 -313 175 -315 175 -321 c 0
 175 -354 -1 -498 -137 -498 c 0
 -239 -498 -335 -424 -335 -308 c 0
EndSplineSet
EndChar

StartChar: tenginterpdot
Encoding: 65745 -1 394
Width: 0
VWidth: 0
Flags: HW
LayerCount: 2
Fore
SplineSet
-1 140 m 0
 18 140 19 137 79 77 c 0
 141 15 140 17 140 -0 c 0
 140 -17 141 -16 79 -78 c 0
 16 -141 17 -141 0 -141 c 0
 -17 -141 -16 -141 -79 -78 c 0
 -141 -16 -140 -17 -140 -0 c 0
 -140 17 -141 15 -80 76 c 0
 -17 139 -17 140 -1 140 c 0
EndSplineSet
EndChar

StartChar: uniE065
Encoding: 57445 57445 395
Width: 618
VWidth: 0
Flags: HW
LayerCount: 2
Fore
SplineSet
299 586 m 0
 299 799 134 1052 134 1274 c 0
 134 1389 178 1471 271 1562 c 0
 321 1611 389 1663 418 1663 c 0
 457 1663 359 1569 350 1553 c 0
 324 1505 319 1456 319 1414 c 0
 319 1203 485 944 485 725 c 0
 485 481 227 336 200 336 c 0
 161 336 259 430 268 446 c 0
 294 494 299 544 299 586 c 0
EndSplineSet
EndChar

StartChar: uniE066
Encoding: 57446 57446 396
Width: 962
VWidth: 0
Flags: HW
LayerCount: 2
Fore
SplineSet
8 1128 m 0
 8 1161 126 1299 223 1299 c 0
 327 1299 353 1095 353 985 c 0
 353 975 356 980 376 995 c 0
 440 1044 547 1111 661 1111 c 0
 734 1111 806 1061 806 972 c 0
 806 853 714 749 659 690 c 1
 775 680 794 595 794 560 c 0
 794 368 547 123 377 48 c 0
 356 39 361 47 360 7 c 0
 351 -260 324 -299 232 -360 c 0
 182 -394 127 -418 103 -418 c 0
 80 -418 94 -395 119 -373 c 0
 172 -327 172 171 172 472 c 0
 172 950 157 1133 63 1133 c 0
 38 1133 8 1111 8 1128 c 0
634 818 m 0
 634 878 585 938 503 938 c 0
 444 938 404 922 357 899 c 1
 364 728 362 570 364 567 c 0
 367 563 385 594 507 655 c 0
 596 700 605 712 612 725 c 0
 625 751 634 789 634 818 c 0
621 402 m 0
 621 450 589 516 491 516 c 0
 440 516 399 499 364 482 c 1
 363 346 l 2
 363 241 363 211 362 187 c 1
 369 186 371 185 379 185 c 0
 460 185 552 224 580 269 c 0
 605 309 621 361 621 402 c 0
EndSplineSet
EndChar

StartChar: uniE068
Encoding: 57448 57448 397
Width: 1412
VWidth: 0
Flags: HW
LayerCount: 2
Fore
SplineSet
166 364 m 0
 166 395 348 556 533 556 c 0
 726 556 876 470 1044 470 c 2
 1046 470 l 2
 1174 470 1174 520 1233 525 c 0
 1242 526 1247 524 1247 518 c 0
 1247 491 1075 326 871 326 c 0
 700 326 531 412 369 412 c 2
 367 412 l 2
 239 412 239 363 180 357 c 0
 171 356 166 358 166 364 c 0
EndSplineSet
EndChar

StartChar: uniE000
Encoding: 57344 57344 401
Width: 1388
VWidth: 0
Flags: HW
LayerCount: 2
Fore
SplineSet
404 597 m 1
 525 724 736 882 957 882 c 0
 1156 882 1307 719 1307 564 c 0
 1307 244 960 0 777 -0 c 0
 680 0 618 93 618 123 c 0
 618 163 804 289 816 248 c 0
 830 201 889 143 956 143 c 0
 1012 143 1019 164 1039 197 c 0
 1234 511 982 739 792 739 c 0
 593 739 483 606 407 503 c 1
 421 -495 391 -477 437 -569 c 1
 412 -617 357 -633 300 -681 c 0
 209 -757 106 -820 58 -820 c 0
 47 -820 46 -815 46 -812 c 0
 46 -773 157 -756 195 -608 c 0
 205 -570 207 -271 207 347 c 0
 207 648 146 755 67 725 c 0
 42 715 34 718 34 726 c 0
 34 759 169 882 259 882 c 0
 317 882 385 836 404 597 c 1
EndSplineSet
EndChar

StartChar: uniE000.conr
Encoding: 65748 -1 402
Width: 1388
VWidth: 0
Flags: HW
LayerCount: 2
Fore
SplineSet
404 597 m 1
 520 719 733 882 953 882 c 0
 965 882 1142 893 1259 718 c 0
 1336 602 1355 398 1024 143 c 1
 1127 143 1231 143 1334 143 c 0
 1500 143 1486 142 1486 135 c 0
 1486 110 1394 30 1310 0 c 1
 992 -0 l 2
 911 -0 850 0 804 -0 c 0
 681 0 666 1 666 5 c 0
 666 42 808 143 855 143 c 0
 1042 143 1125 367 1108 471 c 0
 1086 605 947 739 790 739 c 0
 561 739 440 548 407 503 c 1
 421 -495 391 -477 437 -569 c 1
 412 -617 357 -633 300 -681 c 0
 209 -757 106 -820 58 -820 c 0
 47 -820 46 -815 46 -812 c 0
 46 -773 157 -756 195 -608 c 0
 205 -570 207 -271 207 347 c 0
 207 648 146 755 67 725 c 0
 42 715 34 718 34 726 c 0
 34 759 169 882 259 882 c 0
 317 882 385 836 404 597 c 1
EndSplineSet
EndChar

StartChar: uniE000.conl
Encoding: 65749 -1 403
Width: 1388
VWidth: 0
Flags: HW
LayerCount: 2
Fore
SplineSet
405 598 m 1
 526 724 736 882 957 882 c 0
 1156 882 1307 719 1307 564 c 0
 1307 244 960 0 777 -0 c 0
 680 0 618 93 618 123 c 0
 618 163 804 289 816 248 c 0
 830 201 889 143 956 143 c 0
 1012 143 1019 164 1039 197 c 0
 1234 511 982 739 792 739 c 0
 593 739 483 607 407 504 c 1
 417 -561 396 -487 437 -569 c 1
 412 -617 357 -633 300 -681 c 0
 209 -757 106 -820 58 -820 c 0
 47 -820 46 -815 46 -812 c 0
 46 -773 157 -756 195 -608 c 0
 206 -563 208 44 208 427 c 0
 208 746 119 726 15 733 c 2
 -49 737 l 2
 -90 739 -99 739 -99 747 c 0
 -99 775 16 868 80 882 c 0
 81 882 121 883 167 883 c 2
 189 883 l 2
 293 883 390 894 405 598 c 1
EndSplineSet
EndChar

StartChar: uniE000.conb
Encoding: 65750 -1 404
Width: 1388
VWidth: 0
Flags: HW
LayerCount: 2
Fore
SplineSet
405 598 m 1
 521 719 734 882 953 882 c 0
 965 882 1142 893 1259 718 c 0
 1336 602 1355 398 1024 143 c 1
 1127 143 1231 143 1334 143 c 0
 1500 143 1486 142 1486 135 c 0
 1486 110 1394 30 1310 0 c 1
 992 -0 l 2
 911 -0 850 0 804 -0 c 0
 681 0 666 1 666 5 c 0
 666 42 808 143 855 143 c 0
 1042 143 1125 367 1108 471 c 0
 1086 605 947 739 790 739 c 0
 562 739 440 549 407 504 c 1
 417 -561 396 -487 437 -569 c 1
 412 -617 357 -633 300 -681 c 0
 209 -757 106 -820 58 -820 c 0
 47 -820 46 -815 46 -812 c 0
 46 -773 157 -756 195 -608 c 0
 206 -563 208 44 208 427 c 0
 208 746 119 726 15 733 c 2
 -49 737 l 2
 -90 739 -99 739 -99 747 c 0
 -99 775 16 868 80 882 c 0
 81 882 121 883 167 883 c 2
 189 883 l 2
 293 883 390 894 405 598 c 1
EndSplineSet
EndChar

StartChar: uniE000.dec
Encoding: 65751 -1 405
Width: 1656
VWidth: 0
Flags: HW
LayerCount: 2
Fore
SplineSet
632 701 m 1
 761 848 981 1015 1213 1015 c 0
 1405 1015 1576 831 1576 641 c 0
 1576 248 1214 0 1027 -0 c 0
 929 0 862 96 862 129 c 0
 862 162 1002 264 1048 264 c 0
 1069 264 1051 239 1099 192 c 0
 1168 123 1247 142 1260 157 c 0
 1322 232 1378 374 1378 511 c 0
 1378 692 1213 871 1048 871 c 0
 882 871 765 799 632 576 c 1
 632 550 l 2
 632 461 632 362 632 263 c 0
 632 81 632 -98 632 -203 c 2
 633 -496 l 1
 574 -616 463 -624 335 -751 c 0
 251 -835 174 -964 156 -982 c 0
 120 -1017 27 -1076 -21 -1076 c 0
 -30 -1076 -31 -1070 -31 -1068 c 0
 -31 -1064 5 -977 101 -879 c 0
 123 -856 157 -851 168 -423 c 0
 172 -263 173 -156 173 55 c 2
 173 96 l 2
 173 473 181 850 60 856 c 0
 39 857 -21 822 13 878 c 0
 37 917 133 1022 213 1022 c 0
 263 1022 314 990 340 817 c 1
 361 831 l 2
 497 918 605 1036 630 1012 c 0
 631 1011 632 1003 632 867 c 0
 632 825 632 771 632 701 c 1
348 745 m 0
 348 674 365 603 365 33 c 0
 365 -665 340 -664 343 -667 c 0
 343 -667 363 -653 386 -636 c 2
 450 -588 l 1
 451 -441 l 2
 451 -360 452 -43 452 264 c 0
 452 571 451 821 451 821 c 2
 450 821 440 813 427 803 c 2
 376 765 l 2
 361 754 348 745 348 745 c 0
EndSplineSet
EndChar

StartChar: uniE004
Encoding: 57348 57348 406
Width: 2033
VWidth: 0
Flags: HW
LayerCount: 2
Fore
SplineSet
402 618 m 1
 595 829 796 882 894 882 c 0
 1077 882 1165 750 1199 665 c 1
 1228 691 l 2
 1293 751 1457 883 1640 883 c 0
 1817 883 1952 707 1952 551 c 0
 1952 215 1616 0 1456 -0 c 0
 1407 0 1336 33 1312 112 c 1
 1339 172 1501 275 1511 239 c 0
 1527 178 1606 129 1664 146 c 0
 1672 148 1755 274 1755 419 c 0
 1755 570 1623 739 1468 739 c 0
 1317 739 1244 628 1217 596 c 1
 1217 566 l 2
 1215 213 881 0 724 0 c 0
 724 0 647 -8 595 71 c 0
 586 84 573 107 580 120 c 0
 601 161 716 241 761 246 c 0
 788 249 766 209 835 164 c 0
 864 145 888 140 927 146 c 1
 975 218 1019 310 1019 441 c 0
 1019 581 885 739 734 739 c 0
 564 739 484 630 407 507 c 1
 422 -486 391 -476 437 -569 c 1
 412 -617 357 -633 300 -681 c 0
 209 -757 106 -820 58 -820 c 0
 47 -820 46 -815 46 -812 c 0
 46 -773 157 -756 195 -608 c 0
 205 -570 207 -271 207 347 c 0
 207 648 146 755 67 725 c 0
 42 715 34 718 34 726 c 0
 34 759 169 882 259 882 c 0
 316 882 381 837 402 618 c 1
EndSplineSet
EndChar

StartChar: uniE004.conr
Encoding: 65752 -1 407
Width: 2033
VWidth: 0
Flags: HW
LayerCount: 2
Fore
SplineSet
402 618 m 1
 595 829 796 882 894 882 c 0
 1077 882 1165 750 1199 665 c 1
 1228 691 l 2
 1293 751 1457 883 1640 883 c 0
 1821 883 1952 701 1952 550 c 0
 1952 357 1745 196 1676 144 c 1
 1901 143 l 2
 2147 142 2132 143 2132 135 c 0
 2132 110 2040 30 1956 0 c 1
 1637 -0 l 2
 1596 -0 1559 0 1525 -0 c 0
 1315 0 1305 -6 1316 17 c 0
 1332 49 1438 139 1506 143 c 0
 1606 149 1661 182 1717 284 c 0
 1741 328 1755 378 1755 423 c 0
 1755 561 1630 739 1468 739 c 0
 1317 739 1244 628 1217 596 c 1
 1217 566 l 2
 1215 213 881 0 724 0 c 0
 724 0 647 -8 595 71 c 0
 586 84 573 107 580 120 c 0
 601 161 716 241 761 246 c 0
 788 249 766 209 835 164 c 0
 864 145 888 140 927 146 c 1
 975 218 1019 310 1019 441 c 0
 1019 581 885 739 734 739 c 0
 564 739 484 630 407 507 c 1
 422 -486 391 -476 437 -569 c 1
 412 -617 357 -633 300 -681 c 0
 209 -757 106 -820 58 -820 c 0
 47 -820 46 -815 46 -812 c 0
 46 -773 157 -756 195 -608 c 0
 205 -570 207 -271 207 347 c 0
 207 648 146 755 67 725 c 0
 42 715 34 718 34 726 c 0
 34 759 169 882 259 882 c 0
 316 882 381 837 402 618 c 1
EndSplineSet
EndChar

StartChar: uniE004.conl
Encoding: 65753 -1 408
Width: 2033
VWidth: 0
Flags: HW
LayerCount: 2
Fore
SplineSet
404 620 m 1
 597 829 796 882 894 882 c 0
 1077 882 1165 750 1199 665 c 1
 1228 691 l 2
 1293 751 1457 883 1640 883 c 0
 1817 883 1952 706 1952 551 c 0
 1952 215 1616 0 1456 -0 c 0
 1407 0 1336 33 1312 112 c 1
 1339 172 1501 275 1511 239 c 0
 1527 178 1606 129 1664 146 c 0
 1672 148 1755 274 1755 419 c 0
 1755 570 1623 739 1468 739 c 0
 1317 739 1244 628 1217 596 c 1
 1217 566 l 2
 1215 213 881 0 724 0 c 0
 724 0 647 -8 595 71 c 0
 586 84 573 107 580 120 c 0
 601 161 716 241 761 246 c 0
 788 249 766 209 835 164 c 0
 864 145 888 140 927 146 c 1
 975 218 1019 310 1019 441 c 0
 1019 581 885 739 734 739 c 0
 565 739 485 632 407 507 c 1
 418 -560 396 -487 437 -569 c 1
 412 -617 357 -633 300 -681 c 0
 209 -757 106 -820 58 -820 c 0
 47 -820 46 -815 46 -812 c 0
 46 -773 157 -756 195 -608 c 0
 206 -563 208 44 208 427 c 0
 208 746 119 726 15 733 c 2
 -49 737 l 2
 -90 739 -99 739 -99 747 c 0
 -99 775 16 868 80 882 c 0
 81 882 121 883 167 883 c 2
 189 883 l 2
 288 883 386 894 404 620 c 1
EndSplineSet
EndChar

StartChar: uniE004.conb
Encoding: 65754 -1 409
Width: 2033
VWidth: 0
Flags: HW
LayerCount: 2
Fore
SplineSet
404 620 m 1
 597 829 796 882 894 882 c 0
 1077 882 1165 750 1199 665 c 1
 1228 691 l 2
 1293 751 1457 883 1640 883 c 0
 1818 883 1952 705 1952 550 c 0
 1952 357 1745 196 1676 144 c 1
 1901 143 l 2
 2147 142 2132 143 2132 135 c 0
 2132 110 2040 30 1956 0 c 1
 1637 -0 l 2
 1596 -0 1559 0 1525 -0 c 0
 1315 0 1305 -6 1316 17 c 0
 1332 49 1438 139 1506 143 c 0
 1606 149 1661 182 1717 284 c 0
 1741 328 1755 378 1755 423 c 0
 1755 561 1630 739 1468 739 c 0
 1317 739 1244 628 1217 596 c 1
 1217 566 l 2
 1215 213 881 0 724 0 c 0
 724 0 647 -8 595 71 c 0
 586 84 573 107 580 120 c 0
 601 161 716 241 761 246 c 0
 788 249 766 209 835 164 c 0
 864 145 888 140 927 146 c 1
 975 218 1019 310 1019 441 c 0
 1019 581 885 739 734 739 c 0
 565 739 485 632 407 507 c 1
 418 -560 396 -487 437 -569 c 1
 412 -617 357 -633 300 -681 c 0
 209 -757 106 -820 58 -820 c 0
 47 -820 46 -815 46 -812 c 0
 46 -773 157 -756 195 -608 c 0
 206 -563 208 44 208 427 c 0
 208 746 119 726 15 733 c 2
 -49 737 l 2
 -90 739 -99 739 -99 747 c 0
 -99 775 16 868 80 882 c 0
 81 882 121 883 167 883 c 2
 189 883 l 2
 288 883 386 894 404 620 c 1
EndSplineSet
EndChar

StartChar: uniE004.dec
Encoding: 65755 -1 410
Width: 2333
VWidth: 0
Flags: HW
LayerCount: 2
Fore
SplineSet
632 731 m 1
 743 860 944 1015 1152 1015 c 0
 1336 1015 1430 845 1459 768 c 1
 1477 787 l 2
 1577 890 1747 1015 1927 1015 c 0
 2112 1015 2253 812 2253 619 c 0
 2253 220 1904 0 1745 -0 c 0
 1652 0 1570 95 1601 137 c 0
 1634 181 1736 247 1775 251 c 0
 1785 252 1787 251 1792 237 c 0
 1821 156 1931 120 1956 156 c 0
 1995 211 2055 340 2055 491 c 0
 2055 669 1919 901 1711 868 c 0
 1621 854 1571 817 1494 700 c 0
 1469 663 1485 692 1480 608 c 0
 1455 178 1112 0 970 -0 c 0
 896 0 838 57 822 104 c 0
 805 154 1007 284 1018 242 c 0
 1025 213 1074 143 1148 143 c 0
 1174 143 1179 142 1213 210 c 0
 1250 284 1283 391 1283 512 c 0
 1283 684 1147 871 982 871 c 0
 823 871 742 794 632 580 c 1
 632 550 l 2
 632 461 632 362 632 263 c 0
 632 81 632 -98 632 -203 c 2
 633 -496 l 1
 574 -616 463 -624 335 -751 c 0
 251 -835 174 -964 156 -982 c 0
 120 -1017 27 -1076 -21 -1076 c 0
 -30 -1076 -31 -1070 -31 -1068 c 0
 -31 -1064 5 -977 101 -879 c 0
 123 -856 157 -851 168 -423 c 0
 172 -263 173 -156 173 55 c 2
 173 96 l 2
 173 473 181 850 60 856 c 0
 39 857 -21 822 13 878 c 0
 37 917 133 1022 213 1022 c 0
 263 1022 314 990 340 817 c 1
 361 831 l 2
 497 918 605 1036 630 1012 c 0
 631 1011 632 1003 632 867 c 0
 632 831 632 787 632 731 c 1
348 745 m 0
 348 674 365 603 365 33 c 0
 365 -665 340 -664 343 -667 c 0
 343 -667 363 -653 386 -636 c 2
 450 -588 l 1
 451 -441 l 2
 451 -360 452 -43 452 264 c 0
 452 571 451 821 451 821 c 2
 450 821 440 813 427 803 c 2
 376 765 l 2
 361 754 348 745 348 745 c 0
EndSplineSet
EndChar

StartChar: uniE008
Encoding: 57352 57352 411
Width: 1342
VWidth: 0
Flags: HW
LayerCount: 2
Fore
SplineSet
360 600 m 1
 481 726 691 882 911 882 c 0
 1110 882 1261 719 1261 564 c 0
 1261 244 913 0 730 -0 c 0
 633 0 572 93 572 123 c 0
 572 163 758 289 770 248 c 0
 784 201 842 143 909 143 c 0
 965 143 973 164 993 197 c 0
 1188 511 936 739 746 739 c 0
 547 739 436 606 360 503 c 1
 361 129 370 141 370 130 c 0
 370 89 94 -27 45 -27 c 0
 11 -27 41 4 81 28 c 0
 121 52 137 102 147 142 c 1
 149 261 l 2
 157 1127 157 1175 157 1223 c 0
 157 1323 155 1589 41 1544 c 0
 20 1536 9 1537 9 1546 c 0
 9 1577 143 1701 234 1701 c 0
 306 1701 342 1622 353 1435 c 0
 356 1382 358 1131 360 600 c 1
EndSplineSet
EndChar

StartChar: uniE008.conr
Encoding: 65756 -1 412
Width: 1342
VWidth: 0
Flags: HW
LayerCount: 2
Fore
SplineSet
360 600 m 1
 476 721 688 882 907 882 c 0
 919 882 1096 893 1213 718 c 0
 1290 602 1309 398 978 143 c 1
 1081 143 1185 143 1288 143 c 0
 1454 143 1440 142 1440 135 c 0
 1440 110 1348 30 1264 0 c 1
 946 -0 l 2
 865 -0 804 0 758 -0 c 0
 635 0 620 1 620 5 c 0
 620 42 761 143 808 143 c 0
 995 143 1079 367 1062 471 c 0
 1040 605 900 739 743 739 c 0
 515 739 393 548 360 503 c 1
 361 129 370 141 370 130 c 0
 370 89 94 -27 45 -27 c 0
 11 -27 41 4 81 28 c 0
 121 52 137 102 147 142 c 1
 149 261 l 2
 157 1127 157 1175 157 1223 c 0
 157 1323 155 1589 41 1544 c 0
 20 1536 9 1537 9 1546 c 0
 9 1577 143 1701 234 1701 c 0
 306 1701 342 1622 353 1435 c 0
 356 1382 358 1131 360 600 c 1
EndSplineSet
EndChar

StartChar: uniE008.dec
Encoding: 65757 -1 413
Width: 1656
VWidth: 0
Flags: HW
LayerCount: 2
Fore
SplineSet
632 701 m 1
 761 848 981 1015 1213 1015 c 0
 1405 1015 1576 831 1576 641 c 0
 1576 248 1214 0 1027 -0 c 0
 929 0 862 96 862 129 c 0
 862 162 1002 264 1048 264 c 0
 1069 264 1051 239 1099 192 c 0
 1168 123 1247 142 1260 157 c 0
 1322 232 1378 374 1378 511 c 0
 1378 692 1213 871 1048 871 c 0
 882 871 766 801 632 576 c 1
 632 544 632 516 632 491 c 2
 633 179 l 1
 577 65 449 33 376 -31 c 0
 269 -124 260 -198 166 -261 c 0
 116 -294 63 -317 40 -317 c 0
 32 -317 28 -314 28 -309 c 0
 28 -280 120 -184 125 -170 c 0
 156 -85 175 164 175 824 c 0
 175 1211 180 1621 56 1627 c 0
 33 1628 1 1605 1 1625 c 0
 1 1656 120 1794 212 1794 c 0
 320 1794 333 1594 338 1588 c 0
 345 1580 578 1766 580 1768 c 0
 604 1784 624 1790 630 1784 c 0
 631 1783 632 1775 632 1630 c 0
 632 1489 632 1241 632 987 c 0
 632 887 632 789 632 701 c 1
366 774 m 0
 366 16 343 51 343 16 c 0
 343 14 351 20 372 35 c 2
 450 92 l 1
 451 248 l 2
 451 334 452 671 452 998 c 0
 452 1325 451 1593 451 1593 c 2
 450 1593 440 1585 427 1575 c 2
 347 1517 l 1
 361 1369 366 1071 366 774 c 0
EndSplineSet
EndChar

StartChar: uniE00C
Encoding: 57356 57356 414
Width: 1987
VWidth: 0
Flags: HW
LayerCount: 2
Fore
SplineSet
360 623 m 1
 552 830 751 882 848 882 c 0
 1031 882 1119 750 1153 665 c 1
 1181 691 l 2
 1246 751 1411 883 1594 883 c 0
 1771 883 1906 707 1906 551 c 0
 1906 215 1569 0 1409 -0 c 0
 1360 0 1290 33 1266 112 c 1
 1293 172 1455 275 1465 239 c 0
 1481 178 1559 129 1617 146 c 0
 1625 148 1709 274 1709 419 c 0
 1709 570 1577 739 1422 739 c 0
 1271 739 1198 628 1171 596 c 1
 1171 566 l 2
 1169 213 834 0 677 0 c 0
 677 0 600 -8 548 71 c 0
 539 84 527 107 534 120 c 0
 555 161 669 241 714 246 c 0
 741 249 719 209 788 164 c 0
 817 145 841 140 880 146 c 1
 928 218 973 310 973 441 c 0
 973 581 838 739 687 739 c 0
 517 739 437 630 360 507 c 1
 361 130 370 141 370 130 c 0
 370 89 94 -27 45 -27 c 0
 11 -27 41 4 81 28 c 0
 121 52 137 102 147 142 c 1
 149 261 l 2
 157 1127 157 1175 157 1223 c 0
 157 1323 155 1589 41 1544 c 0
 20 1536 9 1537 9 1546 c 0
 9 1577 143 1701 234 1701 c 0
 306 1701 342 1622 353 1435 c 0
 356 1383 358 1138 360 623 c 1
EndSplineSet
EndChar

StartChar: uniE00C.conr
Encoding: 65758 -1 415
Width: 1987
VWidth: 0
Flags: HW
LayerCount: 2
Fore
SplineSet
360 623 m 1
 552 830 751 882 848 882 c 0
 1031 882 1119 750 1153 665 c 1
 1181 691 l 2
 1246 751 1411 883 1594 883 c 0
 1775 883 1906 701 1906 550 c 0
 1906 357 1698 196 1629 144 c 1
 1855 143 l 2
 2101 142 2085 143 2085 135 c 0
 2085 110 1993 30 1909 0 c 1
 1591 -0 l 2
 1550 -0 1512 0 1478 -0 c 0
 1268 0 1259 -6 1270 17 c 0
 1286 49 1392 139 1460 143 c 0
 1560 149 1615 182 1671 284 c 0
 1695 328 1709 378 1709 423 c 0
 1709 561 1584 739 1422 739 c 0
 1271 739 1198 628 1171 596 c 1
 1171 566 l 2
 1169 213 834 0 677 0 c 0
 677 0 600 -8 548 71 c 0
 539 84 527 107 534 120 c 0
 555 161 669 241 714 246 c 0
 741 249 719 209 788 164 c 0
 817 145 841 140 880 146 c 1
 928 218 973 310 973 441 c 0
 973 581 838 739 687 739 c 0
 517 739 437 630 360 507 c 1
 361 130 370 141 370 130 c 0
 370 89 94 -27 45 -27 c 0
 11 -27 41 4 81 28 c 0
 121 52 137 102 147 142 c 1
 149 261 l 2
 157 1127 157 1175 157 1223 c 0
 157 1323 155 1589 41 1544 c 0
 20 1536 9 1537 9 1546 c 0
 9 1577 143 1701 234 1701 c 0
 306 1701 342 1622 353 1435 c 0
 356 1383 358 1138 360 623 c 1
EndSplineSet
EndChar

StartChar: uniE00C.dec
Encoding: 65759 -1 416
Width: 2333
VWidth: 0
Flags: HW
LayerCount: 2
Fore
SplineSet
632 730 m 1
 743 859 944 1015 1152 1015 c 0
 1336 1015 1430 845 1459 768 c 1
 1477 787 l 2
 1577 890 1747 1015 1927 1015 c 0
 2112 1015 2253 812 2253 619 c 0
 2253 220 1904 0 1745 -0 c 0
 1652 0 1570 95 1601 137 c 0
 1634 181 1736 247 1775 251 c 0
 1785 252 1787 251 1792 237 c 0
 1821 156 1931 120 1956 156 c 0
 1995 211 2055 340 2055 491 c 0
 2055 669 1919 901 1711 868 c 0
 1621 854 1571 817 1494 700 c 0
 1469 663 1485 692 1480 608 c 0
 1455 178 1112 0 970 -0 c 0
 896 0 838 57 822 104 c 0
 805 154 1007 284 1018 242 c 0
 1025 213 1074 143 1148 143 c 0
 1174 143 1179 142 1213 210 c 0
 1250 284 1283 391 1283 512 c 0
 1283 684 1147 871 982 871 c 0
 823 871 743 795 632 580 c 1
 632 547 632 517 632 491 c 2
 633 179 l 1
 577 65 449 33 376 -31 c 0
 269 -124 260 -198 166 -261 c 0
 116 -294 63 -317 40 -317 c 0
 32 -317 28 -314 28 -309 c 0
 28 -280 120 -184 125 -170 c 0
 156 -85 175 164 175 824 c 0
 175 1211 180 1621 56 1627 c 0
 33 1628 1 1605 1 1625 c 0
 1 1656 120 1794 212 1794 c 0
 320 1794 333 1594 338 1588 c 0
 345 1580 578 1766 580 1768 c 0
 604 1784 624 1790 630 1784 c 0
 631 1783 632 1775 632 1630 c 0
 632 1489 632 1241 632 987 c 0
 632 898 632 810 632 730 c 1
366 774 m 0
 366 16 343 51 343 16 c 0
 343 14 351 20 372 35 c 2
 450 92 l 1
 451 248 l 2
 451 334 452 671 452 998 c 0
 452 1325 451 1593 451 1593 c 2
 450 1593 440 1585 427 1575 c 2
 347 1517 l 1
 361 1369 366 1071 366 774 c 0
EndSplineSet
EndChar

StartChar: uniE014
Encoding: 57364 57364 417
Width: 1388
VWidth: 0
Flags: HW
LayerCount: 2
Fore
SplineSet
407 599 m 1
 528 725 737 882 958 882 c 0
 1157 882 1308 719 1308 564 c 0
 1308 244 961 0 778 -0 c 0
 681 0 619 93 619 123 c 0
 619 163 806 289 818 248 c 0
 832 201 890 143 957 143 c 0
 1013 143 1021 164 1041 197 c 0
 1236 511 983 739 793 739 c 0
 594 739 484 607 408 504 c 1
 411 209 410 207 421 135 c 1
 383 69 134 -23 100 -23 c 2
 99 -23 l 2
 61 -23 96 10 137 35 c 0
 210 79 207 165 207 452 c 0
 207 654 136 753 64 726 c 0
 44 719 34 720 34 729 c 0
 34 760 166 882 251 882 c 0
 345 882 403 762 407 599 c 1
EndSplineSet
EndChar

StartChar: uniE014.conr
Encoding: 65760 -1 418
Width: 1388
VWidth: 0
Flags: HW
LayerCount: 2
Fore
SplineSet
407 599 m 1
 523 720 735 882 954 882 c 0
 966 882 1143 893 1260 718 c 0
 1337 602 1356 398 1025 143 c 1
 1128 143 1232 143 1335 143 c 0
 1501 143 1488 142 1488 135 c 0
 1488 110 1396 30 1312 0 c 1
 993 -0 l 2
 912 -0 851 0 805 -0 c 0
 682 0 668 1 668 5 c 0
 668 42 809 143 856 143 c 0
 1043 143 1126 367 1109 471 c 0
 1087 605 948 739 791 739 c 0
 563 739 441 549 408 504 c 1
 411 209 410 207 421 135 c 1
 383 69 134 -23 100 -23 c 2
 99 -23 l 2
 61 -23 96 10 137 35 c 0
 210 79 207 165 207 452 c 0
 207 654 136 753 64 726 c 0
 44 719 34 720 34 729 c 0
 34 760 166 882 251 882 c 0
 345 882 403 762 407 599 c 1
EndSplineSet
EndChar

StartChar: uniE014.conl
Encoding: 65761 -1 419
Width: 1388
VWidth: 0
Flags: HW
LayerCount: 2
Fore
SplineSet
407 599 m 1
 528 725 737 882 958 882 c 0
 1157 882 1308 719 1308 564 c 0
 1308 244 961 0 778 -0 c 0
 681 0 619 93 619 123 c 0
 619 163 806 289 818 248 c 0
 832 201 890 143 957 143 c 0
 1013 143 1021 164 1041 197 c 0
 1236 511 983 739 793 739 c 0
 594 739 484 607 408 504 c 1
 412 148 421 149 421 148 c 0
 421 101 122 -22 77 -23 c 2
 75 -23 l 2
 38 -23 76 17 129 44 c 0
 147 53 182 92 195 131 c 0
 204 159 207 286 207 451 c 0
 207 747 98 728 28 732 c 0
 -93 739 -99 738 -99 747 c 0
 -99 774 13 866 80 882 c 0
 81 882 105 882 137 882 c 0
 248 882 306 895 357 815 c 0
 402 745 406 642 407 599 c 1
EndSplineSet
EndChar

StartChar: uniE014.conb
Encoding: 65762 -1 420
Width: 1388
VWidth: 0
Flags: HW
LayerCount: 2
Fore
SplineSet
407 599 m 1
 523 720 735 882 954 882 c 0
 966 882 1143 893 1260 718 c 0
 1337 602 1356 398 1025 143 c 1
 1128 143 1232 143 1335 143 c 0
 1501 143 1488 142 1488 135 c 0
 1488 110 1396 30 1312 0 c 1
 993 -0 l 2
 912 -0 851 0 805 -0 c 0
 682 0 668 1 668 5 c 0
 668 42 809 143 856 143 c 0
 1043 143 1126 367 1109 471 c 0
 1087 605 948 739 791 739 c 0
 563 739 441 549 408 504 c 1
 412 148 421 149 421 148 c 0
 421 101 122 -22 77 -23 c 2
 75 -23 l 2
 38 -23 76 17 129 44 c 0
 147 53 182 92 195 131 c 0
 204 159 207 286 207 451 c 0
 207 747 98 728 28 732 c 0
 -93 739 -99 738 -99 747 c 0
 -99 774 13 866 80 882 c 0
 81 882 105 882 137 882 c 2
 172 882 l 2
 255 882 399 909 407 599 c 1
EndSplineSet
EndChar

StartChar: uniE014.dec
Encoding: 65763 -1 421
Width: 1656
VWidth: 0
Flags: HW
LayerCount: 2
Fore
SplineSet
632 701 m 1
 761 848 981 1015 1213 1015 c 0
 1405 1015 1576 831 1576 641 c 0
 1576 248 1214 0 1027 -0 c 0
 929 0 862 96 862 129 c 0
 862 162 1002 264 1048 264 c 0
 1069 264 1051 239 1099 192 c 0
 1168 123 1247 142 1260 157 c 0
 1322 232 1378 374 1378 511 c 0
 1378 692 1213 871 1048 871 c 0
 882 871 766 801 632 576 c 1
 632 484 632 397 632 343 c 2
 633 179 l 1
 579 70 455 34 388 -25 c 0
 277 -122 269 -198 167 -265 c 0
 120 -296 70 -317 48 -317 c 0
 40 -317 36 -314 36 -309 c 0
 36 -277 135 -175 137 -170 c 0
 160 -128 169 33 169 418 c 0
 169 418 198 910 49 851 c 0
 29 843 20 844 20 854 c 0
 20 884 139 1022 229 1022 c 0
 299 1022 333 940 347 822 c 1
 496 917 606 1036 630 1012 c 0
 631 1011 632 1006 632 931 c 0
 632 867 632 775 632 701 c 1
354 750 m 1
 358 655 361 517 361 358 c 0
 361 32 353 18 353 18 c 0
 353 18 365 26 380 38 c 2
 450 89 l 1
 451 153 l 2
 451 188 452 353 452 519 c 0
 452 685 451 821 451 821 c 2
 450 821 440 814 429 805 c 2
 354 750 l 1
EndSplineSet
EndChar

StartChar: uniE010
Encoding: 57360 57360 422
Width: 2033
VWidth: 0
Flags: HW
LayerCount: 2
Fore
SplineSet
406 621 m 1
 599 830 797 882 895 882 c 0
 1078 882 1166 750 1200 665 c 1
 1229 691 l 2
 1294 751 1458 883 1641 883 c 0
 1818 883 1953 707 1953 551 c 0
 1953 215 1617 0 1457 -0 c 0
 1408 0 1337 33 1313 112 c 1
 1340 172 1502 275 1512 239 c 0
 1528 178 1607 129 1665 146 c 0
 1673 148 1756 274 1756 419 c 0
 1756 570 1624 739 1469 739 c 0
 1318 739 1245 628 1218 596 c 1
 1218 566 l 2
 1216 213 882 0 725 0 c 0
 725 0 648 -8 596 71 c 0
 587 84 575 107 582 120 c 0
 603 161 717 241 762 246 c 0
 789 249 767 209 836 164 c 0
 865 145 889 140 928 146 c 1
 976 218 1020 310 1020 441 c 0
 1020 581 886 739 735 739 c 0
 565 739 485 630 408 507 c 1
 412 209 409 208 421 135 c 1
 383 69 134 -23 100 -23 c 2
 99 -23 l 2
 61 -23 96 10 137 35 c 0
 210 79 207 165 207 452 c 0
 207 654 136 753 64 726 c 0
 44 719 34 720 34 729 c 0
 34 760 166 882 251 882 c 0
 375 882 403 687 406 621 c 1
EndSplineSet
EndChar

StartChar: uniE010.conr
Encoding: 65764 -1 423
Width: 2033
VWidth: 0
Flags: HW
LayerCount: 2
Fore
SplineSet
406 621 m 1
 599 830 797 882 895 882 c 0
 1078 882 1166 750 1200 665 c 1
 1229 691 l 2
 1294 751 1459 883 1642 883 c 0
 1823 883 1954 701 1954 550 c 0
 1954 357 1746 196 1677 144 c 1
 1903 143 l 2
 2149 142 2133 143 2133 135 c 0
 2133 110 2041 30 1957 0 c 1
 1638 -0 l 2
 1597 -0 1560 0 1526 -0 c 0
 1316 0 1306 -6 1317 17 c 0
 1333 49 1440 139 1508 143 c 0
 1608 149 1662 182 1718 284 c 0
 1742 328 1756 378 1756 423 c 0
 1756 561 1631 739 1469 739 c 0
 1318 739 1245 628 1218 596 c 1
 1218 566 l 2
 1216 213 882 0 725 0 c 0
 725 0 648 -8 596 71 c 0
 587 84 575 107 582 120 c 0
 603 161 717 241 762 246 c 0
 789 249 767 209 836 164 c 0
 865 145 889 140 928 146 c 1
 976 218 1020 310 1020 441 c 0
 1020 581 886 739 735 739 c 0
 565 739 485 630 408 507 c 1
 412 209 409 208 421 135 c 1
 383 69 134 -23 100 -23 c 2
 99 -23 l 2
 61 -23 96 10 137 35 c 0
 210 79 207 165 207 452 c 0
 207 654 136 753 64 726 c 0
 44 719 34 720 34 729 c 0
 34 760 166 882 251 882 c 0
 375 882 403 687 406 621 c 1
EndSplineSet
EndChar

StartChar: uniE010.conl
Encoding: 65765 -1 424
Width: 2033
VWidth: 0
Flags: HW
LayerCount: 2
Fore
SplineSet
406 621 m 1
 599 829 797 882 895 882 c 0
 1078 882 1166 750 1200 665 c 1
 1229 691 l 2
 1294 751 1458 883 1641 883 c 0
 1818 883 1953 707 1953 551 c 0
 1953 215 1617 0 1457 -0 c 0
 1408 0 1337 33 1313 112 c 1
 1340 172 1502 275 1512 239 c 0
 1528 178 1607 129 1665 146 c 0
 1673 148 1756 274 1756 419 c 0
 1756 570 1624 739 1469 739 c 0
 1318 739 1245 628 1218 596 c 1
 1218 566 l 2
 1216 213 882 0 725 0 c 0
 725 0 648 -8 596 71 c 0
 587 84 575 107 582 120 c 0
 603 161 717 241 762 246 c 0
 789 249 767 209 836 164 c 0
 865 145 889 140 928 146 c 1
 976 218 1020 310 1020 441 c 0
 1020 581 886 739 735 739 c 0
 567 739 486 632 408 507 c 1
 412 148 421 149 421 148 c 0
 421 101 122 -22 77 -23 c 2
 75 -23 l 2
 38 -23 76 17 129 44 c 0
 147 53 182 92 195 131 c 0
 204 159 207 286 207 451 c 0
 207 747 98 728 28 732 c 0
 -93 739 -99 738 -99 747 c 0
 -99 774 13 866 80 882 c 0
 81 882 105 882 137 882 c 0
 148 882 160 882 172 882 c 0
 252 882 395 910 406 621 c 1
EndSplineSet
EndChar

StartChar: uniE010.conb
Encoding: 65766 -1 425
Width: 2033
VWidth: 0
Flags: HW
LayerCount: 2
Fore
SplineSet
406 621 m 1
 599 829 797 882 895 882 c 0
 1078 882 1166 750 1200 665 c 1
 1229 691 l 2
 1294 751 1459 883 1642 883 c 0
 1823 883 1954 701 1954 550 c 0
 1954 357 1746 196 1677 144 c 1
 1903 143 l 2
 2149 142 2133 143 2133 135 c 0
 2133 110 2041 30 1957 0 c 1
 1638 -0 l 2
 1597 -0 1560 0 1526 -0 c 0
 1316 0 1306 -6 1317 17 c 0
 1333 49 1440 139 1508 143 c 0
 1608 149 1662 182 1718 284 c 0
 1742 328 1756 378 1756 423 c 0
 1756 561 1631 739 1469 739 c 0
 1318 739 1245 628 1218 596 c 1
 1218 566 l 2
 1216 213 882 0 725 0 c 0
 725 0 648 -8 596 71 c 0
 587 84 575 107 582 120 c 0
 603 161 717 241 762 246 c 0
 789 249 767 209 836 164 c 0
 865 145 889 140 928 146 c 1
 976 218 1020 310 1020 441 c 0
 1020 581 886 739 735 739 c 0
 567 739 486 632 408 507 c 1
 412 148 421 149 421 148 c 0
 421 101 122 -22 77 -23 c 2
 75 -23 l 2
 38 -23 76 17 129 44 c 0
 147 53 182 92 195 131 c 0
 204 159 207 286 207 451 c 0
 207 747 98 728 28 732 c 0
 -93 739 -99 738 -99 747 c 0
 -99 774 13 866 80 882 c 0
 81 882 105 882 137 882 c 0
 148 882 160 882 172 882 c 0
 252 882 395 910 406 621 c 1
EndSplineSet
EndChar

StartChar: uniE010.dec
Encoding: 65767 -1 426
Width: 2333
VWidth: 0
Flags: HW
LayerCount: 2
Fore
SplineSet
632 730 m 1
 743 859 944 1015 1152 1015 c 0
 1336 1015 1430 845 1459 768 c 1
 1477 787 l 2
 1577 890 1747 1015 1927 1015 c 0
 2112 1015 2253 812 2253 619 c 0
 2253 220 1904 0 1745 -0 c 0
 1652 0 1570 95 1601 137 c 0
 1634 181 1736 247 1775 251 c 0
 1785 252 1787 251 1792 237 c 0
 1821 156 1931 120 1956 156 c 0
 1995 211 2055 340 2055 491 c 0
 2055 669 1919 901 1711 868 c 0
 1621 854 1571 817 1494 700 c 0
 1469 663 1485 692 1480 608 c 0
 1455 178 1112 0 970 -0 c 0
 896 0 838 57 822 104 c 0
 805 154 1007 284 1018 242 c 0
 1025 213 1074 143 1148 143 c 0
 1174 143 1179 142 1213 210 c 0
 1250 284 1283 391 1283 512 c 0
 1283 684 1147 871 982 871 c 0
 803 871 727 764 632 579 c 1
 632 486 632 397 632 343 c 2
 633 179 l 1
 579 70 455 34 388 -25 c 0
 277 -122 269 -198 167 -265 c 0
 120 -296 70 -317 48 -317 c 0
 40 -317 36 -314 36 -309 c 0
 36 -277 135 -175 137 -170 c 0
 160 -128 169 33 169 418 c 0
 169 418 198 910 49 851 c 0
 29 843 20 844 20 854 c 0
 20 884 139 1022 229 1022 c 0
 299 1022 333 940 347 822 c 1
 496 917 606 1036 630 1012 c 0
 631 1011 632 1006 632 931 c 0
 632 874 632 804 632 730 c 1
354 750 m 1
 358 655 361 517 361 358 c 0
 361 32 353 18 353 18 c 0
 353 18 365 26 380 38 c 2
 450 89 l 1
 451 153 l 2
 451 188 452 353 452 519 c 0
 452 685 451 821 451 821 c 2
 450 821 440 814 429 805 c 2
 354 750 l 1
EndSplineSet
EndChar

StartChar: uniE018
Encoding: 57368 57368 427
Width: 1340
VWidth: 0
Flags: HW
LayerCount: 2
Fore
SplineSet
359 600 m 1
 480 726 690 882 910 882 c 0
 1109 882 1260 719 1260 564 c 0
 1260 244 912 0 729 -0 c 0
 632 0 571 93 571 123 c 0
 571 163 757 289 769 248 c 0
 783 201 841 143 908 143 c 0
 964 143 972 164 992 197 c 0
 1187 511 935 739 745 739 c 0
 546 739 435 606 359 503 c 1
 362 -573 355 -524 385 -573 c 0
 388 -578 389 -579 389 -581 c 0
 389 -601 326 -639 282 -658 c 0
 242 -676 74 -832 9 -832 c 0
 0 -832 -1 -827 -1 -824 c 0
 -1 -778 118 -758 145 -603 c 0
 150 -575 157 1165 157 1180 c 0
 157 1200 170 1592 49 1547 c 0
 39 1543 9 1531 9 1546 c 0
 9 1579 147 1702 232 1702 c 0
 378 1702 357 1370 358 990 c 2
 359 600 l 1
EndSplineSet
EndChar

StartChar: uniE018.conr
Encoding: 65768 -1 428
Width: 1340
VWidth: 0
Flags: HW
LayerCount: 2
Fore
SplineSet
359 600 m 1
 475 721 686 882 905 882 c 0
 917 882 1095 893 1212 718 c 0
 1289 602 1308 398 977 143 c 1
 1080 143 1184 143 1287 143 c 0
 1453 143 1439 142 1439 135 c 0
 1439 110 1347 30 1263 0 c 1
 944 -0 l 2
 863 -0 802 0 756 -0 c 0
 633 0 619 1 619 5 c 0
 619 42 760 143 807 143 c 0
 994 143 1077 367 1060 471 c 0
 1038 605 899 739 742 739 c 0
 513 739 392 548 359 503 c 1
 362 -573 355 -524 385 -573 c 0
 388 -578 389 -579 389 -581 c 0
 389 -601 326 -639 282 -658 c 0
 242 -676 74 -832 9 -832 c 0
 0 -832 -1 -827 -1 -824 c 0
 -1 -778 118 -758 145 -603 c 0
 150 -575 157 1165 157 1180 c 0
 157 1200 170 1592 49 1547 c 0
 39 1543 9 1531 9 1546 c 0
 9 1579 147 1702 232 1702 c 0
 378 1702 357 1370 358 990 c 2
 359 600 l 1
EndSplineSet
EndChar

StartChar: uniE018.dec
Encoding: 65769 -1 429
Width: 1656
VWidth: 0
Flags: HW
LayerCount: 2
Fore
SplineSet
632 701 m 1
 761 848 980 1015 1213 1015 c 0
 1405 1015 1576 831 1576 641 c 0
 1576 248 1214 0 1027 -0 c 0
 929 0 862 96 862 129 c 0
 862 162 1002 264 1048 264 c 0
 1069 264 1051 239 1099 192 c 0
 1168 123 1247 142 1260 157 c 0
 1322 232 1378 374 1378 511 c 0
 1378 692 1213 871 1048 871 c 0
 882 871 766 801 632 576 c 1
 632 327 632 90 632 -54 c 2
 633 -496 l 1
 574 -617 458 -625 326 -754 c 0
 241 -837 174 -958 150 -982 c 0
 107 -1025 14 -1076 -23 -1076 c 0
 -32 -1076 -36 -1074 -36 -1068 c 0
 -36 -1064 -2 -979 93 -881 c 0
 141 -831 179 -695 179 434 c 0
 179 803 179 1200 148 1405 c 0
 126 1551 87 1628 36 1628 c 0
 15 1628 -12 1607 -12 1626 c 0
 -12 1658 110 1794 194 1794 c 0
 301 1794 325 1578 329 1581 c 0
 365 1606 423 1639 506 1710 c 0
 573 1767 618 1796 630 1784 c 0
 631 1783 632 1771 632 1566 c 0
 632 1382 632 1043 632 701 c 1
452 743 m 0
 452 1273 452 1593 451 1593 c 0
 338 1510 l 0
 333 1506 371 1437 371 417 c 0
 371 -95 363 -506 336 -661 c 0
 335 -667 335 -671 335 -671 c 2
 335 -671 351 -660 369 -646 c 2
 450 -587 l 1
 451 -347 l 2
 451 -215 452 276 452 743 c 0
EndSplineSet
EndChar

StartChar: uniE01C
Encoding: 57372 57372 430
Width: 1985
VWidth: 0
Flags: HW
LayerCount: 2
Fore
SplineSet
359 623 m 1
 551 830 749 882 846 882 c 0
 1029 882 1117 750 1151 665 c 1
 1180 691 l 2
 1245 751 1410 883 1593 883 c 0
 1770 883 1905 707 1905 551 c 0
 1905 215 1568 0 1408 -0 c 0
 1359 0 1289 33 1265 112 c 1
 1292 172 1453 275 1463 239 c 0
 1479 178 1558 129 1616 146 c 0
 1624 148 1708 274 1708 419 c 0
 1708 570 1576 739 1421 739 c 0
 1270 739 1197 628 1170 596 c 1
 1169 566 l 2
 1167 213 833 0 676 0 c 0
 676 0 599 -8 547 71 c 0
 538 84 526 107 533 120 c 0
 554 161 668 241 713 246 c 0
 740 249 718 209 787 164 c 0
 816 145 840 140 879 146 c 1
 927 218 972 310 972 441 c 0
 972 581 837 739 686 739 c 0
 517 739 438 633 359 507 c 1
 359 506 l 2
 362 -573 355 -524 385 -573 c 0
 388 -578 389 -579 389 -581 c 0
 389 -601 326 -639 282 -658 c 0
 242 -676 74 -832 9 -832 c 0
 0 -832 -1 -827 -1 -824 c 0
 -1 -778 118 -758 145 -603 c 0
 150 -575 157 1165 157 1180 c 0
 157 1200 170 1592 49 1547 c 0
 39 1543 9 1531 9 1546 c 0
 9 1579 147 1702 232 1702 c 0
 378 1702 357 1370 358 990 c 2
 359 623 l 1
EndSplineSet
EndChar

StartChar: uniE01C.conr
Encoding: 65770 -1 431
Width: 1985
VWidth: 0
Flags: HW
LayerCount: 2
Fore
SplineSet
359 623 m 1
 551 830 749 882 846 882 c 0
 1029 882 1117 750 1151 665 c 1
 1180 691 l 2
 1245 751 1410 883 1593 883 c 0
 1774 883 1905 701 1905 550 c 0
 1905 357 1697 196 1628 144 c 1
 1854 143 l 2
 2100 142 2084 143 2084 135 c 0
 2084 110 1992 30 1908 0 c 1
 1590 -0 l 2
 1549 -0 1511 0 1477 -0 c 0
 1267 0 1258 -6 1269 17 c 0
 1285 49 1391 139 1459 143 c 0
 1559 149 1613 182 1669 284 c 0
 1693 328 1707 378 1707 423 c 0
 1707 561 1583 739 1421 739 c 0
 1270 739 1197 628 1170 596 c 1
 1169 566 l 2
 1167 213 833 0 676 0 c 0
 676 0 599 -8 547 71 c 0
 538 84 526 107 533 120 c 0
 554 161 668 241 713 246 c 0
 740 249 718 209 787 164 c 0
 816 145 840 140 879 146 c 1
 927 218 972 310 972 441 c 0
 972 581 837 739 686 739 c 0
 517 739 438 633 359 507 c 1
 359 506 l 2
 362 -573 355 -524 385 -573 c 0
 388 -578 389 -579 389 -581 c 0
 389 -601 326 -639 282 -658 c 0
 242 -676 74 -832 9 -832 c 0
 0 -832 -1 -827 -1 -824 c 0
 -1 -778 118 -758 145 -603 c 0
 150 -575 157 1165 157 1180 c 0
 157 1200 170 1592 49 1547 c 0
 39 1543 9 1531 9 1546 c 0
 9 1579 147 1702 232 1702 c 0
 378 1702 357 1370 358 990 c 2
 359 623 l 1
EndSplineSet
EndChar

StartChar: uniE01C.dec
Encoding: 65771 -1 432
Width: 2333
VWidth: 0
Flags: HW
LayerCount: 2
Fore
SplineSet
632 730 m 1
 743 859 944 1015 1152 1015 c 0
 1336 1015 1430 845 1459 768 c 1
 1477 787 l 2
 1577 890 1747 1015 1927 1015 c 0
 2112 1015 2253 812 2253 619 c 0
 2253 220 1904 0 1745 -0 c 0
 1652 0 1570 95 1601 137 c 0
 1634 181 1736 247 1775 251 c 0
 1785 252 1787 251 1792 237 c 0
 1821 156 1931 120 1956 156 c 0
 1995 211 2055 340 2055 491 c 0
 2055 669 1919 901 1711 868 c 0
 1621 854 1571 817 1494 700 c 0
 1469 663 1485 692 1480 608 c 0
 1455 178 1112 0 970 -0 c 0
 896 0 838 57 822 104 c 0
 805 154 1007 284 1018 242 c 0
 1025 213 1074 143 1148 143 c 0
 1174 143 1179 142 1213 210 c 0
 1250 284 1283 391 1283 512 c 0
 1283 684 1147 871 982 871 c 0
 803 871 727 764 632 579 c 1
 632 329 632 90 632 -54 c 2
 633 -496 l 1
 574 -617 458 -625 326 -754 c 0
 241 -837 174 -958 150 -982 c 0
 107 -1025 14 -1076 -23 -1076 c 0
 -32 -1076 -36 -1074 -36 -1068 c 0
 -36 -1064 -2 -979 93 -881 c 0
 141 -831 179 -695 179 434 c 0
 179 803 179 1200 148 1405 c 0
 126 1551 87 1628 36 1628 c 0
 15 1628 -12 1607 -12 1626 c 0
 -12 1658 110 1794 194 1794 c 0
 301 1794 325 1578 329 1581 c 0
 365 1606 423 1639 506 1710 c 0
 573 1767 618 1796 630 1784 c 0
 631 1783 632 1771 632 1566 c 0
 632 1394 632 1060 632 730 c 1
452 743 m 0
 452 1273 452 1593 451 1593 c 0
 338 1510 l 0
 333 1506 371 1437 371 417 c 0
 371 -95 363 -506 336 -661 c 0
 335 -667 335 -671 335 -671 c 2
 335 -671 351 -660 369 -646 c 2
 450 -587 l 1
 451 -347 l 2
 451 -215 452 276 452 743 c 0
EndSplineSet
EndChar

StartChar: uniE001
Encoding: 57345 57345 433
Width: 1366
VWidth: 0
Flags: HW
LayerCount: 2
Fore
SplineSet
402 615 m 1
 537 762 730 882 905 882 c 0
 1098 882 1227 711 1227 565 c 0
 1227 401 1063 227 954 155 c 1
 1215 155 1215 148 1270 185 c 0
 1347 237 1389 244 1389 228 c 0
 1389 192 1128 -4 991 -4 c 0
 888 -4 630 8 476 8 c 0
 463 8 449 9 409 8 c 1
 411 -568 407 -510 437 -569 c 1
 411 -618 358 -633 300 -681 c 0
 209 -757 106 -820 58 -820 c 0
 47 -820 46 -815 46 -812 c 0
 46 -773 157 -756 195 -608 c 0
 205 -570 207 -271 207 347 c 0
 207 648 146 755 67 725 c 0
 42 715 34 718 34 726 c 0
 34 759 169 882 259 882 c 0
 316 882 381 837 402 615 c 1
738 739 m 2
 605 738 516 681 407 507 c 1
 408 439 408 327 409 142 c 1
 594 158 735 155 875 155 c 0
 875 155 1181 403 933 651 c 0
 880 704 817 739 740 739 c 2
 738 739 l 2
EndSplineSet
EndChar

StartChar: uniE001.conr
Encoding: 65772 -1 434
Width: 1366
VWidth: 0
Flags: HW
LayerCount: 2
Fore
SplineSet
402 615 m 1
 537 762 730 882 905 882 c 0
 1098 882 1227 711 1227 565 c 0
 1227 402 1066 231 960 159 c 1
 1108 158 1465 151 1465 137 c 0
 1465 110 1368 28 1299 4 c 0
 1282 -2 1186 -4 1100 -4 c 0
 996 -4 846 10 569 10 c 2
 541 10 l 2
 487 10 445 10 409 9 c 1
 411 -569 407 -510 437 -569 c 1
 412 -617 357 -633 300 -681 c 0
 209 -757 106 -820 58 -820 c 0
 47 -820 46 -815 46 -812 c 0
 46 -773 157 -756 195 -608 c 0
 205 -570 207 -271 207 347 c 0
 207 648 146 755 67 725 c 0
 42 715 34 718 34 726 c 0
 34 759 169 882 259 882 c 0
 316 882 381 837 402 615 c 1
409 141 m 1
 490 150 635 159 819 159 c 0
 838 159 857 159 878 159 c 1
 937 220 1096 361 999 560 c 0
 958 645 861 739 740 739 c 2
 738 739 l 2
 605 738 516 681 407 507 c 1
 408 439 408 326 409 141 c 1
EndSplineSet
EndChar

